<svg xmlns="http://www.w3.org/2000/svg" width="52" height="52" viewBox="0 0 52 52"><path d="M26 2C12.745 2 2 12.745 2 26s10.745 24 24 24 24-10.745 24-24S39.255 2 26 2zm10.764 18.48c.01.237.016.477.016.718C36.78 28.538 31.194 37 20.978 37a15.72 15.72 0 0 1-8.513-2.495c.434.051.876.077 1.324.077 2.602 0 4.997-.888 6.898-2.377a5.56 5.56 0 0 1-5.188-3.857 5.556 5.556 0 0 0 2.508-.095 5.557 5.557 0 0 1-4.455-5.516 5.532 5.532 0 0 0 2.516.695 5.551 5.551 0 0 1-2.47-4.623c0-1.018.273-1.972.751-2.792a15.767 15.767 0 0 0 11.448 5.802 5.554 5.554 0 0 1 9.464-5.066 11.12 11.12 0 0 0 3.527-1.347 5.57 5.57 0 0 1-2.442 3.073 11.102 11.102 0 0 0 3.19-.875 11.287 11.287 0 0 1-2.772 2.875z" fill="#B42C01"/></svg>