<svg xmlns="http://www.w3.org/2000/svg" width="52" height="52" viewBox="0 0 52 52"><path d="M15 13a5 5 0 0 0-10 0c0 2.235 1.477 4.105 3.5 4.746v3.508C6.477 21.894 5 23.764 5 26s1.477 4.105 3.5 4.746v3.508C6.477 34.894 5 36.764 5 39a5 5 0 0 0 10 0c0-2.235-1.477-4.105-3.5-4.746v-3.508c2.023-.64 3.5-2.51 3.5-4.746s-1.477-4.105-3.5-4.746v-3.508c2.023-.64 3.5-2.51 3.5-4.746zm-5-2c1.103 0 2 .897 2 2s-.897 2-2 2-2-.897-2-2 .897-2 2-2zm0 30c-1.103 0-2-.897-2-2s.897-2 2-2 2 .897 2 2-.897 2-2 2zm0-13c-1.103 0-2-.897-2-2s.897-2 2-2 2 .897 2 2-.897 2-2 2zM20.5 14.5h16a1.5 1.5 0 0 0 0-3h-16a1.5 1.5 0 0 0 0 3zM33.5 37.5h-13a1.5 1.5 0 0 0 0 3h13a1.5 1.5 0 0 0 0-3zM45.5 24.5h-25a1.5 1.5 0 0 0 0 3h25a1.5 1.5 0 0 0 0-3z" fill="#B42C01"/></svg>