<svg xmlns="http://www.w3.org/2000/svg" width="52" height="52" viewBox="0 0 52 52"><path d="M48.274 18.575l-5.303-5.303c-.586.586-1.354.879-2.122.879s-1.535-.293-2.121-.879a3 3 0 0 1 0-4.243l-5.303-5.303c-.584-.583-1.353-.875-2.122-.875s-1.538.292-2.121.875L3.726 29.182a3.009 3.009 0 0 0 0 4.243l5.303 5.303c.586-.586 1.354-.879 2.122-.879s1.535.293 2.121.879a3 3 0 0 1 0 4.243l5.303 5.303c.584.583 1.353.875 2.122.875s1.538-.292 2.121-.875l25.456-25.456a3.009 3.009 0 0 0 0-4.243zM14.333 29.182a1.496 1.496 0 0 1-2.121 0L10.09 27.06l2.12-2.122 2.123 2.122a1.5 1.5 0 0 1 0 2.12zm6.363 6.364a1.495 1.495 0 0 1-2.121 0l-2.12-2.121a1.5 1.5 0 1 1 2.12-2.121l2.121 2.12a1.5 1.5 0 0 1 0 2.122zm4.243 6.364l-2.12-2.122a1.5 1.5 0 1 1 2.12-2.121l2.122 2.122-2.122 2.121z" fill="#B42C01"/></svg>