<svg xmlns="http://www.w3.org/2000/svg" width="52" height="52" viewBox="0 0 52 52"><path d="M43.964 36.68a9.542 9.542 0 0 0-.19-1.222 10.347 10.347 0 0 0-.135-.52l-.052-.18a9.337 9.337 0 0 0-.295-.81l-.049-.116a9.608 9.608 0 0 0-4.28-4.658c-.114-.063-.23-.124-.34-.18-.749-.378-1.84-1.419-2.492-2.04l-.067-.063c-.293-.29-.57-.945-.816-1.521a14.05 14.05 0 0 0-.507-1.106C33.195 21.066 29.798 19 26.086 19h-.172c-3.712 0-7.11 2.066-8.626 5.206-.215.4-.384.816-.547 1.219-.23.567-.468 1.153-.731 1.413-.647.615-1.851 1.762-2.629 2.154-.114.059-.228.12-.336.178a9.624 9.624 0 0 0-4.29 4.666l-.047.111a8.8 8.8 0 0 0-.296.819l-.048.163a9.13 9.13 0 0 0-.34 1.9 9.307 9.307 0 0 0 .573 3.95 9.36 9.36 0 0 0 1.355 2.423 9.577 9.577 0 0 0 1.614 1.642 9.739 9.739 0 0 0 2.406 1.416c.442.18.898.33 1.354.444a10.024 10.024 0 0 0 4.201.136 9.465 9.465 0 0 0 2.659-.907c1.713-.831 3.838-1.065 5.788-.636a8.428 8.428 0 0 1 1.798.614 9.494 9.494 0 0 0 3.28 1.016 10.027 10.027 0 0 0 4.98-.669 9.762 9.762 0 0 0 4.015-3.056 9.38 9.38 0 0 0 1.642-3.318 9.272 9.272 0 0 0 .29-3.005l-.015-.2zm-32.687-1.026a6.209 6.209 0 0 1 .237-.641 6.613 6.613 0 0 1 2.956-3.203l.261-.138c1.176-.595 2.483-1.838 3.375-2.689.714-.706 1.086-1.622 1.414-2.43.131-.323.258-.643.44-.984C21.008 23.401 23.345 22 25.918 22h.168c2.568 0 4.906 1.4 5.983 3.627.15.277.282.593.417.915.354.832.754 1.776 1.49 2.502l.085.081c.87.83 2.064 1.969 3.213 2.55.086.043.17.089.262.137a6.668 6.668 0 0 1 2.983 3.278 9.693 9.693 0 0 1 .203.557l.03.11a5.693 5.693 0 0 1 .182.839c.022.145.038.29.048.438l.002.022a6.253 6.253 0 0 1-.389 2.665 6.37 6.37 0 0 1-.922 1.65 6.59 6.59 0 0 1-1.113 1.13 6.793 6.793 0 0 1-2.61 1.291 7.008 7.008 0 0 1-3.329.013 6.673 6.673 0 0 1-1.498-.572c-.783-.38-1.624-.67-2.5-.865-.858-.19-1.74-.285-2.623-.285-1.798 0-3.57.397-5.164 1.17a6.566 6.566 0 0 1-2.669.734 6.986 6.986 0 0 1-3.058-.504 6.773 6.773 0 0 1-2.782-2.113 6.394 6.394 0 0 1-1.117-2.255 6.314 6.314 0 0 1 .037-3.356l.03-.105zM14 21c0-3.364-1.977-6-4.5-6S5 17.636 5 21s1.977 6 4.5 6 4.5-2.636 4.5-6zm-6 0c0-1.832.888-3 1.5-3s1.5 1.168 1.5 3-.888 3-1.5 3S8 22.832 8 21zM42.5 15c-2.523 0-4.5 2.636-4.5 6s1.977 6 4.5 6 4.5-2.636 4.5-6-1.977-6-4.5-6zm0 9c-.611 0-1.5-1.168-1.5-3s.889-3 1.5-3 1.5 1.168 1.5 3-.889 3-1.5 3zM19.5 17c2.523 0 4.5-2.636 4.5-6s-1.977-6-4.5-6S15 7.636 15 11s1.977 6 4.5 6zm0-9c.611 0 1.5 1.168 1.5 3s-.889 3-1.5 3-1.5-1.168-1.5-3 .889-3 1.5-3zM32.5 17c2.523 0 4.5-2.636 4.5-6s-1.977-6-4.5-6S28 7.636 28 11s1.977 6 4.5 6zm0-9c.611 0 1.5 1.168 1.5 3s-.889 3-1.5 3-1.5-1.168-1.5-3 .889-3 1.5-3z" fill="#B42C01"/></svg>