<svg xmlns="http://www.w3.org/2000/svg" width="52" height="52" viewBox="0 0 52 52"><path d="M26 5c3.883 4.11 8.537 6 11.677 6H41v19.829C41 40.358 26 47 26 47s-15-6.642-15-16.171V11s1.967.042 3.385.042C17.527 11.042 22.117 9.11 26 5m0-3a3 3 0 0 0-2.18.94c-3.33 3.524-7.138 5.102-9.435 5.102A195.557 195.557 0 0 1 11 8a3 3 0 0 0-3 3v19.829c0 4.939 2.922 9.665 8.684 14.047 3.984 3.03 7.935 4.794 8.101 4.867a3 3 0 0 0 2.43 0c.166-.073 4.117-1.837 8.1-4.867C41.079 40.494 44 35.768 44 30.829V11a3 3 0 0 0-3-3h-3.323c-2.348 0-6.194-1.565-9.496-5.06A3 3 0 0 0 26 2z" fill="#B42C01"/></svg>