<svg xmlns="http://www.w3.org/2000/svg" width="52" height="52" viewBox="0 0 52 52"><path d="M45.32 12.491l-17.258-9.94a4.2 4.2 0 0 0-4.125 0L6.68 12.491a4.132 4.132 0 0 0-2.064 3.57v19.88a4.13 4.13 0 0 0 2.065 3.568l17.257 9.94a4.138 4.138 0 0 0 4.125 0l17.255-9.94a4.128 4.128 0 0 0 2.066-3.569V16.06a4.131 4.131 0 0 0-2.065-3.569zm-.936 23.45c0 .397-.215.769-.563.968l-17.256 9.94a1.153 1.153 0 0 1-1.13 0L8.179 36.91c-.346-.199-.562-.57-.562-.969V16.06c0-.398.216-.77.562-.97l17.258-9.94a1.131 1.131 0 0 1 1.128 0l17.257 9.94c.347.2.563.572.563.97v19.88z" fill="#B42C01"/><path d="M37.23 20.288l-6.732-1.048-3.195-5.313a1.498 1.498 0 0 0-2.57 0l-3.196 5.312-6.766 1.048a1.5 1.5 0 0 0-.865 2.509l4.752 5.065-1.232 7.185a1.5 1.5 0 0 0 2.177 1.582l6.415-3.373 6.415 3.373a1.5 1.5 0 0 0 2.176-1.582l-1.232-7.189 4.72-5.065a1.5 1.5 0 0 0-.867-2.504zm-6.555 6.068a1.5 1.5 0 0 0-.381 1.277l.845 4.925-4.423-2.326a1.51 1.51 0 0 0-1.397 0l-4.423 2.326.845-4.925a1.5 1.5 0 0 0-.385-1.28l-3.317-3.536 4.651-.72c.44-.069.827-.328 1.056-.71l2.272-3.776 2.271 3.776c.229.382.615.641 1.055.71l4.63.72-3.3 3.54z" fill="#B42C01"/></svg>