<svg xmlns="http://www.w3.org/2000/svg" width="52" height="52" viewBox="0 0 52 52"><path d="M46.082 43.96L33.964 31.844c5.356-6.429 5.026-15.995-1.007-22.027-3.195-3.196-7.383-4.793-11.57-4.793S13.01 6.62 9.815 9.816c-6.39 6.39-6.39 16.75 0 23.141a16.312 16.312 0 0 0 11.57 4.793 16.31 16.31 0 0 0 10.457-3.786l12.118 12.118a1.496 1.496 0 0 0 2.121 0 1.5 1.5 0 0 0 0-2.121zm-24.696-9.21c-3.57 0-6.925-1.39-9.45-3.914s-3.913-5.88-3.913-9.45c0-3.57 1.39-6.925 3.914-9.45s5.88-3.913 9.45-3.913c3.569 0 6.925 1.39 9.449 3.914s3.914 5.88 3.914 9.45c0 3.569-1.39 6.925-3.914 9.449s-5.88 3.914-9.45 3.914z" fill="#B42C01"/></svg>