<svg xmlns="http://www.w3.org/2000/svg" width="52" height="52" viewBox="0 0 52 52"><path d="M26 5c11.58 0 21 9.42 21 21s-9.42 21-21 21S5 37.58 5 26 14.42 5 26 5m0-3C12.745 2 2 12.745 2 26s10.745 24 24 24 24-10.745 24-24S39.255 2 26 2z" fill="#B42C01"/><path d="M39.535 17.604c-.996.442-2.066.74-3.19.875a5.57 5.57 0 0 0 2.443-3.073 11.12 11.12 0 0 1-3.527 1.348 5.554 5.554 0 0 0-9.464 5.066 15.767 15.767 0 0 1-11.448-5.803 5.528 5.528 0 0 0-.752 2.792c0 1.927.98 3.627 2.47 4.623a5.531 5.531 0 0 1-2.515-.695v.07a5.557 5.557 0 0 0 4.455 5.446 5.565 5.565 0 0 1-2.508.095 5.56 5.56 0 0 0 5.188 3.857 11.144 11.144 0 0 1-6.898 2.377c-.448 0-.89-.026-1.324-.077A15.72 15.72 0 0 0 20.978 37c10.216 0 15.802-8.463 15.802-15.802 0-.241-.005-.48-.016-.719a11.287 11.287 0 0 0 2.771-2.875z" fill="#B42C01"/></svg>