<svg xmlns="http://www.w3.org/2000/svg" width="52" height="52" viewBox="0 0 52 52"><path d="M26.267 8.5c2.358 0 6.358.885 6.652 6.808l.006.1.01.092c.22 1.979.153 7.65-2.77 10.09L28.9 26.647l.215 1.637c.063.48.14.776.198.991l.011.046c.606 3.045 1.495 4.682 2.961 5.449.338.183 4.58 2.48 8.972 5.086 1.92 1.123 2.46 2.063 2.661 3.644H8.059c.207-1.548.768-2.525 2.671-3.654a291.55 291.55 0 0 1 8.954-5.076c1.695-.887 2.397-2.795 2.912-5.388l.04-.14c.06-.21.104-.363.182-.743l.364-1.758-1.379-1.151c-2.922-2.44-2.99-8.111-2.77-10.082l.012-.1.005-.1c.101-2.047.954-6.808 6.66-6.808.048 0 .085 0 .107.002l.166.008.16-.008.124-.002m0-3a5.54 5.54 0 0 0-.283.006 5.133 5.133 0 0 0-.274-.006c-1.693 0-9.205.582-9.657 9.66 0 0-1.017 8.687 3.827 12.732-.083.405-.111.443-.208.811-.242 1.241-.664 3.047-1.39 3.415 0 0-4.431 2.39-9.082 5.148-3.146 1.866-3.991 3.9-4.2 6.672A2.855 2.855 0 0 0 7.835 46.5h36.3a2.855 2.855 0 0 0 2.836-2.58c-.204-2.763-1.018-4.792-4.2-6.654-4.651-2.758-9.084-5.148-9.084-5.148-.727-.368-1.195-2.22-1.437-3.462-.063-.25-.113-.396-.162-.764 4.845-4.045 3.827-12.733 3.827-12.733-.45-9.076-7.92-9.659-9.648-9.659z" fill="#B42C01"/></svg>