<svg xmlns="http://www.w3.org/2000/svg" width="52" height="52" viewBox="0 0 52 52"><path d="M44 14a6 6 0 1 0-12 0h-9.42l-2.657-7.974c-.01-.03-.027-.057-.039-.087-.02-.05-.04-.1-.066-.148-.024-.044-.05-.084-.078-.125-.027-.039-.053-.078-.083-.115a1.453 1.453 0 0 0-.104-.111c-.032-.032-.064-.064-.1-.094a1.498 1.498 0 0 0-.128-.092c-.036-.024-.072-.048-.111-.07a1.496 1.496 0 0 0-.162-.072c-.026-.01-.05-.026-.077-.035l-9-3a1.5 1.5 0 1 0-.95 2.846l8.29 2.763L19.418 14H15.5a3 3 0 0 0-2.993 3.21l2.1 30A3 3 0 0 0 17.6 50h16.8a3 3 0 0 0 2.993-2.79l1.915-27.357A6 6 0 0 0 44 14zm-22.503 3H36.5l-.42 6H15.92l-.42-6h5.997zM17.6 47l-1.47-21h19.74L34.4 47H17.6zm21.872-30.402a2.999 2.999 0 0 1-.778-1.644A3 3 0 0 0 36.5 14H35c0-1.654 1.346-3 3-3s3 1.346 3 3a2.99 2.99 0 0 1-1.528 2.598z" fill="#B42C01"/></svg>