<svg xmlns="http://www.w3.org/2000/svg" width="52" height="52" viewBox="0 0 52 52"><path d="M26 2C12.745 2 2 12.745 2 26s10.745 24 24 24 24-10.745 24-24S39.255 2 26 2zm0 45C14.42 47 5 37.58 5 26S14.42 5 26 5s21 9.42 21 21-9.42 21-21 21z" fill="#B42C01"/><path d="M27.133 24.568c-4.594-1.36-5.929-2.079-5.929-4.214 0-1.816 1.76-2.99 4.486-2.99 2.803 0 4.647 1.12 5.805 3.525l.073.153.008-.004c.245.39.675.65 1.169.65a1.383 1.383 0 0 0 1.275-1.92l.007-.004-.061-.141c-1.154-2.665-3.424-4.306-6.466-4.762V12.5a1.5 1.5 0 0 0-3 0v2.29c-3.727.415-6.323 2.709-6.323 5.767 0 3.93 3.21 5.149 7.746 6.441 4.382 1.29 5.648 2.26 5.648 4.33 0 2.108-1.943 3.366-5.198 3.366-3.088 0-5.217-1.39-6.334-4.129a1.402 1.402 0 0 0-2.745.409c0 .16.033.313.083.457l-.019.007.053.148c1.093 3.06 3.686 5.051 7.089 5.558V39.5a1.5 1.5 0 0 0 3 0v-2.282c4.236-.392 7.099-2.771 7.099-6.064 0-3.708-2.739-5.223-7.466-6.586z" fill="#B42C01"/></svg>