<svg xmlns="http://www.w3.org/2000/svg" width="52" height="52" viewBox="0 0 52 52"><path d="M13.757 15.747a1.5 1.5 0 0 0-2.121 0L2.443 24.94a1.5 1.5 0 0 0 0 2.122l9.193 9.192a1.496 1.496 0 0 0 2.121 0 1.5 1.5 0 0 0 0-2.121L5.625 26l8.132-8.132a1.5 1.5 0 0 0 0-2.12zM32.136 12.892a1.5 1.5 0 0 0-1.994.722l-11 23.5a1.5 1.5 0 1 0 2.716 1.272l11-23.5a1.5 1.5 0 0 0-.722-1.994zM49.557 24.94l-9.193-9.193a1.5 1.5 0 1 0-2.12 2.121L46.374 26l-8.132 8.132a1.5 1.5 0 1 0 2.121 2.12l9.193-9.191a1.5 1.5 0 0 0 0-2.122z" fill="#B42C01"/></svg>