<svg xmlns="http://www.w3.org/2000/svg" width="52" height="52" viewBox="0 0 52 52"><path d="M15.464 15.04a2.5 2.5 0 0 0-3.535 0l-9.193 9.192a2.5 2.5 0 0 0 0 3.536l9.193 9.192c.488.488 1.128.732 1.767.732s1.28-.244 1.768-.732a2.5 2.5 0 0 0 0-3.535L8.039 26l7.425-7.425a2.5 2.5 0 0 0 0-3.535zM32.56 11.986a2.498 2.498 0 0 0-3.325 1.204l-11 23.5a2.5 2.5 0 0 0 4.53 2.12l11-23.5a2.5 2.5 0 0 0-1.205-3.324zM49.264 24.232L40.07 15.04a2.5 2.5 0 1 0-3.535 3.535L43.961 26l-7.425 7.425a2.5 2.5 0 1 0 3.535 3.535l9.193-9.192a2.5 2.5 0 0 0 0-3.536z" fill="#B42C01"/></svg>