<svg xmlns="http://www.w3.org/2000/svg" width="52" height="52" viewBox="0 0 52 52"><path d="M44 14a6 6 0 1 0-12 0h-9.42l-2.657-7.974c-.01-.03-.027-.057-.039-.086-.02-.051-.04-.102-.067-.15-.023-.043-.05-.082-.076-.121a1.473 1.473 0 0 0-.085-.12 1.486 1.486 0 0 0-.099-.105 1.455 1.455 0 0 0-.107-.1 1.488 1.488 0 0 0-.119-.085c-.04-.027-.078-.053-.12-.076-.05-.026-.1-.047-.152-.068-.029-.011-.054-.028-.084-.038l-9-3a1.5 1.5 0 1 0-.95 2.846l8.29 2.763L19.418 14H15.5a3 3 0 0 0-2.993 3.21l2.1 30A3 3 0 0 0 17.6 50h16.8a3 3 0 0 0 2.993-2.79l1.915-27.357A6 6 0 0 0 44 14zm-22.503 3H36.5l-.42 6H15.92l-.42-6h5.997z" fill="#B42C01"/></svg>