<svg xmlns="http://www.w3.org/2000/svg" width="52" height="52" viewBox="0 0 52 52"><path d="M24.232 37.27c.489.489 1.128.733 1.768.733s1.28-.244 1.768-.732l11-11a2.5 2.5 0 1 0-3.536-3.536L28.5 29.468V11.5a2.5 2.5 0 1 0-5 0v17.968l-6.732-6.733a2.5 2.5 0 1 0-3.536 3.536l11 11z" fill="#B42C01"/><path d="M44.5 33a2.501 2.501 0 0 0-2.5 2.494L41.996 42H10v-6.5c0-1.379-1.121-2.5-2.5-2.5S5 34.121 5 35.5V43c0 2.206 1.794 4 4 4h34c2.206 0 4-1.794 4-4v-7.5c0-1.379-1.121-2.5-2.5-2.5z" fill="#B42C01"/></svg>