<svg xmlns="http://www.w3.org/2000/svg" width="52" height="52" viewBox="0 0 52 52"><path d="M29.714 49.625h-7.428a2.858 2.858 0 0 1-2.854-2.855v-2.01a19.69 19.69 0 0 1-2.051-.852l-1.423 1.423c-1.078 1.078-2.958 1.08-4.037.001l-5.253-5.253a2.86 2.86 0 0 1 0-4.037l1.422-1.423a19.75 19.75 0 0 1-.852-2.05H5.23a2.859 2.859 0 0 1-2.855-2.855v-7.428a2.858 2.858 0 0 1 2.855-2.855h2.007c.245-.698.53-1.384.852-2.052l-1.42-1.421a2.833 2.833 0 0 1-.837-2.019c0-.762.297-1.479.836-2.019L11.92 6.67c1.04-1.042 2.994-1.044 4.037 0l1.42 1.42a19.697 19.697 0 0 1 2.054-.852V5.23a2.858 2.858 0 0 1 2.854-2.855h7.428a2.858 2.858 0 0 1 2.854 2.855v2.007c.7.246 1.384.53 2.052.853l1.422-1.422c1.085-1.08 2.96-1.077 4.038 0l5.253 5.253c.54.54.837 1.257.837 2.02a2.838 2.838 0 0 1-.838 2.018l-1.42 1.42c.321.668.607 1.353.852 2.052h2.008a2.857 2.857 0 0 1 2.854 2.854v7.428a2.858 2.858 0 0 1-2.854 2.855h-2.01c-.244.698-.53 1.382-.852 2.05l1.423 1.423a2.857 2.857 0 0 1 0 4.037l-5.253 5.252c-1.04 1.042-2.993 1.044-4.037 0l-1.423-1.422a19.55 19.55 0 0 1-2.05.852v2.01a2.858 2.858 0 0 1-2.855 2.855zm-7.282-3h7.136v-2.96a1.5 1.5 0 0 1 1.087-1.443 16.7 16.7 0 0 0 3.519-1.461 1.496 1.496 0 0 1 1.79.25l2.097 2.095 5.047-5.046-2.095-2.096a1.499 1.499 0 0 1-.251-1.788 16.934 16.934 0 0 0 1.464-3.523 1.5 1.5 0 0 1 1.441-1.085h2.958v-7.137h-2.958a1.5 1.5 0 0 1-1.441-1.086 16.88 16.88 0 0 0-1.463-3.52 1.5 1.5 0 0 1 .25-1.79l2.095-2.096-5.048-5.047-2.096 2.096a1.503 1.503 0 0 1-1.79.25 16.734 16.734 0 0 0-3.52-1.463 1.5 1.5 0 0 1-1.087-1.442V5.375h-7.136v2.958a1.5 1.5 0 0 1-1.087 1.442c-1.222.35-2.407.843-3.52 1.462a1.5 1.5 0 0 1-1.79-.25l-2.096-2.094-5.046 5.046 2.095 2.095a1.5 1.5 0 0 1 .25 1.789 16.798 16.798 0 0 0-1.463 3.521 1.5 1.5 0 0 1-1.441 1.087H5.375v7.138h2.959a1.5 1.5 0 0 1 1.441 1.087 16.72 16.72 0 0 0 1.463 3.518 1.5 1.5 0 0 1-.25 1.79L8.892 38.06l5.047 5.047 2.097-2.096a1.497 1.497 0 0 1 1.79-.251 16.694 16.694 0 0 0 3.518 1.462 1.5 1.5 0 0 1 1.088 1.442v2.961z" fill="#B42C01"/><path d="M26 21.5c2.481 0 4.5 2.019 4.5 4.5s-2.019 4.5-4.5 4.5-4.5-2.019-4.5-4.5 2.019-4.5 4.5-4.5m0-3a7.5 7.5 0 1 0 0 15 7.5 7.5 0 0 0 0-15z" fill="#B42C01"/></svg>