<svg xmlns="http://www.w3.org/2000/svg" width="52" height="52" viewBox="0 0 52 52"><path d="M15.343 22.305h4.569V37h-4.569V22.305zM17.627 15a2.65 2.65 0 0 1 0 5.297 2.647 2.647 0 0 1-2.646-2.648A2.647 2.647 0 0 1 17.627 15M22.776 22.305h4.38v2.01h.064c.61-1.156 2.099-2.374 4.32-2.374 4.626 0 5.48 3.042 5.48 7V37h-4.566v-7.146c0-1.705-.03-3.897-2.373-3.897-2.377 0-2.74 1.858-2.74 3.774V37h-4.565V22.305z" fill="#B42C01"/><g><path d="M26 5c11.58 0 21 9.42 21 21s-9.42 21-21 21S5 37.58 5 26 14.42 5 26 5m0-3C12.745 2 2 12.745 2 26s10.745 24 24 24 24-10.745 24-24S39.255 2 26 2z"/></g></svg>