<svg xmlns="http://www.w3.org/2000/svg" width="52" height="52" viewBox="0 0 52 52"><path d="M48.274 18.575l-5.303-5.303c-.586.586-1.354.879-2.122.879s-1.535-.293-2.121-.879a3 3 0 0 1 0-4.243l-5.303-5.303c-.584-.583-1.353-.875-2.122-.875s-1.538.292-2.121.875L3.726 29.182a3.009 3.009 0 0 0 0 4.243l5.303 5.303c.586-.586 1.354-.879 2.122-.879s1.535.293 2.121.879a3 3 0 0 1 0 4.243l5.303 5.303c.584.583 1.353.875 2.122.875s1.538-.292 2.121-.875l25.456-25.456a3.009 3.009 0 0 0 0-4.243zM27.06 39.79l-2.12-2.122a1.5 1.5 0 1 0-2.122 2.121l2.121 2.122-4.242 4.243-3.752-3.752a6.003 6.003 0 0 0-1.552-5.794 5.96 5.96 0 0 0-4.242-1.758c-.533 0-1.054.07-1.555.203l-3.749-3.749 4.243-4.243 2.121 2.122c.293.293.677.44 1.061.44s.768-.147 1.06-.44a1.5 1.5 0 0 0 0-2.121l-2.12-2.122h-.001L31.295 5.852h.008v-.005L35.055 9.6a6.003 6.003 0 0 0 1.552 5.794 5.96 5.96 0 0 0 4.242 1.758c.533 0 1.054-.07 1.555-.203l3.749 3.749L27.06 39.789z" fill="#B42C01"/><path d="M18.575 31.304a1.5 1.5 0 1 0-2.12 2.12l2.12 2.122a1.496 1.496 0 0 0 2.121 0 1.5 1.5 0 0 0 0-2.121l-2.12-2.121z" fill="#B42C01"/></svg>