<svg xmlns="http://www.w3.org/2000/svg" width="52" height="52" viewBox="0 0 52 52"><path d="M17.026 26h17.948C36.088 26 37 25.212 37 24.25l-1.544-11.5c-.19-1.016-.912-1.75-2.026-1.75H18.57c-1.114 0-1.836.766-2.026 1.75L15 24.25c0 .962.912 1.75 2.026 1.75zm2.377-12h13.194l1.208 9h-15.61l1.208-9z" fill="#B42C01"/><path d="M43.57 47.448L40.12 44H41c1.654 0 3-1.346 3-3V20c0-9.925-8.075-18-18-18S8 10.075 8 20v21c0 1.654 1.346 3 3 3h.91l-3.45 3.448a1.5 1.5 0 1 0 2.122 2.121L16.152 44h19.727l5.57 5.57c.292.292.676.439 1.06.439s.767-.147 1.06-.44a1.5 1.5 0 0 0 0-2.12zM11 20c0-8.271 6.729-15 15-15s15 6.729 15 15l-.004 21H11V20z" fill="#B42C01"/><circle cx="16" cy="33" r="2" fill="#B42C01"/><circle cx="36" cy="33" r="2" fill="#B42C01"/></svg>