<svg xmlns="http://www.w3.org/2000/svg" width="52" height="52" viewBox="0 0 52 52"><path d="M26 2C12.745 2 2 12.745 2 26s10.745 24 24 24 24-10.745 24-24S39.255 2 26 2zm1.5 35.218V39.5a1.5 1.5 0 0 1-3 0v-2.356c-3.403-.507-5.996-2.498-7.089-5.558l-.053-.148.019-.007a1.392 1.392 0 0 1-.083-.457 1.402 1.402 0 1 1 2.745-.409c1.117 2.738 3.246 4.13 6.334 4.13 3.255 0 5.198-1.26 5.198-3.368 0-2.068-1.266-3.04-5.648-4.329-4.535-1.292-7.746-2.511-7.746-6.44 0-3.06 2.596-5.353 6.323-5.767V12.5a1.5 1.5 0 0 1 3 0v2.361c3.042.456 5.312 2.097 6.466 4.762l.061.141-.007.004a1.383 1.383 0 0 1-1.275 1.92c-.494 0-.924-.26-1.169-.65l-.008.004-.073-.153c-1.158-2.405-3.002-3.525-5.805-3.525-2.725 0-4.486 1.174-4.486 2.99 0 2.135 1.335 2.854 5.929 4.214 4.727 1.363 7.466 2.878 7.466 6.586 0 3.293-2.863 5.672-7.099 6.064z" fill="#B42C01"/></svg>