<svg xmlns="http://www.w3.org/2000/svg" width="52" height="52" viewBox="0 0 52 52"><path d="M16.344 42.509h-.224c-1.53 0-2.24-.652-2.567-1.198-.507-.851-.324-1.83.016-2.46l4.187-7.172h-5.861l-3.5 2.873a5.262 5.262 0 0 1-.594.427c-.712.475-1.497.548-2.241.555l-.798.001c-.324 0-1.276 0-2.01-.701A2.135 2.135 0 0 1 2 33.191c.001-.205.03-.407.085-.604l.033-.102 2.319-6.484-2.352-6.585A2.3 2.3 0 0 1 2 18.814a2.134 2.134 0 0 1 .753-1.645c.732-.7 1.685-.7 2.007-.7h.786c.758.007 1.545.08 2.258.557.127.076.283.182.51.36l4.632 2.938h4.807l-4.158-7.112c-.366-.676-.55-1.654-.042-2.505.326-.546 1.036-1.198 2.567-1.198h.224c.467 0 1.644.103 2.277.168l.397.048c1.78.204 2.856.422 3.512.985.73.507 2.99 2.423 9.465 9.614H43.58c4.85 0 6.42 3.825 6.42 5.677 0 1.853-1.57 5.678-6.42 5.678H31.987c-6.682 7.292-8.867 9.165-9.41 9.588-.653.593-1.736.816-3.558 1.025l-.338.041c-.69.072-1.867.176-2.337.176zm-3.834-13.83h10.47l-6.314 10.816a44.83 44.83 0 0 0 1.647-.14c.042-.006.188-.024.364-.043 1.003-.116 1.653-.227 1.937-.332l.144-.097c.047-.035 1.86-1.397 9.46-9.716l.447-.488H43.58c3.273 0 3.42-2.65 3.42-2.678s-.147-2.677-3.42-2.677H30.656l-.446-.498c-7.52-8.383-9.32-9.606-9.393-9.654l-.239-.148c-.3-.101-.938-.208-1.901-.318-.176-.02-.322-.038-.422-.052a43.56 43.56 0 0 0-1.588-.132l6.316 10.802H12.075l-5.57-3.543c-.12-.096-.188-.15-.247-.184l-.122-.077c-.016-.007-.138-.047-.605-.051h-.244L7.622 26l-2.336 6.533h.257c.454-.004.576-.044.602-.056l.122-.078c.057-.033.125-.087.24-.178l4.312-3.542 1.69-.001z" fill="#B42C01"/></svg>