<svg xmlns="http://www.w3.org/2000/svg" width="52" height="52" viewBox="0 0 52 52"><path d="M33.968 15c-1.652.007-2.962 1.403-2.968 3.055-.006 1.652 1.38 2.951 3.032 2.945s2.962-1.403 2.968-3.055c-.08-1.652-1.467-2.95-3.032-2.945z" fill="#B42C01"/><path d="M24.606 46.973a3.234 3.234 0 0 1-2.3-.954L5.953 29.666c-.615-.614-.953-1.432-.953-2.3s.338-1.687.953-2.302L25.037 5.981a3.229 3.229 0 0 1 2.939-.89l13.623 2.731a3.25 3.25 0 0 1 2.548 2.537l2.787 13.565a3.246 3.246 0 0 1-.887 2.956l-19.14 19.139a3.225 3.225 0 0 1-2.3.954zm2.754-38.94c-.1 0-.158.025-.202.069L8.074 27.186c-.061.061-.074.131-.074.18s.013.117.074.178l16.353 16.353c.125.125.236.124.357.001l19.142-19.14a.253.253 0 0 0 .07-.229l-2.788-13.567a.253.253 0 0 0-.2-.198l-13.62-2.731h-.028z" fill="#B42C01"/></svg>