<svg xmlns="http://www.w3.org/2000/svg" width="52" height="52" viewBox="0 0 52 52"><path d="M44 38h-1.5V20h.919c.502 0 1.45-.066 2.162-.511.583-.364.918-.93.919-1.557 0-.626-.334-1.194-.918-1.558L28.164 5.512C27.45 5.066 26.502 5 26 5s-1.45.066-2.163.512L6.417 16.374c-.583.364-.917.932-.917 1.558.001.626.336 1.193.917 1.556.714.446 1.662.512 2.164.512H9.5v18H8c-1.654 0-3 1.346-3 3v3c0 1.654 1.346 3 3 3h36c1.654 0 3-1.346 3-3v-3c0-1.654-1.346-3-3-3zm-4.504 0H36.5V20h3l-.004 18zm-12 0H24.5V20h3l-.004 18zM12.5 20h3l-.004 18H12.5V20zm6 18V20h3v18h-3zm12 0V20h3v18h-3z"/></svg>