<svg xmlns="http://www.w3.org/2000/svg" width="52" height="52" viewBox="0 0 52 52"><path fill="none" d="M26 5C14.42 5 5 14.42 5 26s9.42 21 21 21 21-9.42 21-21S37.58 5 26 5zm-.2 33a1.75 1.75 0 1 1 0-3.5 1.75 1.75 0 0 1 0 3.5zm1.55-10.247v2.726a1.5 1.5 0 0 1-3 0v-4.09a1.5 1.5 0 0 1 1.5-1.5h.004c.042-.004.083-.013.126-.014 2.493-.004 4.52-1.766 4.52-3.926 0-2.166-2.032-3.928-4.53-3.928-2.327 0-4.252 1.527-4.48 3.552a1.5 1.5 0 0 1-2.98-.334c.396-3.545 3.603-6.218 7.46-6.218 4.152 0 7.53 3.108 7.53 6.928 0 3.382-2.656 6.204-6.15 6.804z"/><path d="M26 2C12.745 2 2 12.745 2 26s10.745 24 24 24 24-10.745 24-24S39.255 2 26 2zm0 45C14.42 47 5 37.58 5 26S14.42 5 26 5s21 9.42 21 21-9.42 21-21 21z"/><circle cx="25.8" cy="36.25" r="1.75"/><path d="M25.97 14.021c-3.857 0-7.064 2.673-7.46 6.218a1.5 1.5 0 1 0 2.98.334c.228-2.025 2.153-3.552 4.48-3.552 2.498 0 4.53 1.762 4.53 3.928 0 2.16-2.027 3.922-4.52 3.926-.043 0-.084.01-.126.013h-.003a1.5 1.5 0 0 0-1.5 1.5v4.091a1.5 1.5 0 0 0 3 0v-2.726c3.493-.6 6.149-3.422 6.149-6.804 0-3.82-3.378-6.928-7.53-6.928z"/></svg>