<svg xmlns="http://www.w3.org/2000/svg" width="52" height="52" viewBox="0 0 52 52"><path d="M48.5 20H36.724L30.3 8.87a1.499 1.499 0 1 0-2.598 1.5l5.56 9.63H18.74l5.559-9.63a1.5 1.5 0 1 0-2.598-1.5L15.276 20H3.5a1.5 1.5 0 1 0 0 3h1.406l.21.824 5.142 18A3 3 0 0 0 13.143 44h25.714a3 3 0 0 0 2.885-2.176l5.143-18 .24-.824H48.5a1.5 1.5 0 0 0 0-3zM21 30.5V23h10v7.5H21zm10 3V41H21v-7.5h10zM18 23v7.5h-7.857L8 23h10zm-7 10.5h7V41h-4.857L11 33.5zM34 41v-7.5h7L38.857 41H34zm7.857-10.5H34V23h10l-2.143 7.5z"/></svg>