<svg xmlns="http://www.w3.org/2000/svg" width="52" height="52" viewBox="0 0 52 52"><path d="M45.5 24.5A1.5 1.5 0 0 0 44 26c0 9.925-8.075 18-18 18S8 35.925 8 26 16.075 8 26 8c5.725 0 10.829 2.691 14.128 6.87l-2.333.002a1.501 1.501 0 0 0 .002 3l6-.004a1.499 1.499 0 0 0 1.499-1.5l-.003-6a1.5 1.5 0 1 0-3 0l.002 2.406C38.445 8.035 32.581 5 26 5 14.402 5 5 14.402 5 26s9.402 21 21 21 21-9.402 21-21a1.5 1.5 0 0 0-1.5-1.5z"/><path d="M26 14c-6.627 0-12 5.373-12 12s5.373 12 12 12 12-5.373 12-12-5.373-12-12-12zm6 19.5H20a1.5 1.5 0 0 1 0-3h12a1.5 1.5 0 0 1 0 3zm0-6H20a1.5 1.5 0 0 1 0-3h12a1.5 1.5 0 0 1 0 3zm0-6H20a1.5 1.5 0 0 1 0-3h12a1.5 1.5 0 0 1 0 3z"/></svg>