<svg xmlns="http://www.w3.org/2000/svg" width="52" height="52" viewBox="0 0 52 52"><path d="M44 38.364c0-.583-.192-1.22-.49-1.665-2.485-3.976-3.603-10.098-3.603-13.176v-2.177c0-6.56-4.358-12.13-10.225-13.785C29.886 7.08 30 6.554 30 6c0-2.206-1.794-4-4-4a4.004 4.004 0 0 0-3.687 5.55c-2.255.628-4.35 1.82-6.018 3.488-2.71 2.612-4.202 6.15-4.202 9.96v2.525c0 2.936-.976 9.105-3.58 13.14A3.187 3.187 0 0 0 8 38.363c0 3.573 6.094 4.913 12 5.374v.712c0 3.06 2.691 5.55 6 5.55s6-2.49 6-5.55v-.745c4.16-.345 9.158-1.159 11.041-3.083.815-.834.972-1.705.959-2.258z"/></svg>