<svg xmlns="http://www.w3.org/2000/svg" width="52" height="52" viewBox="0 0 52 52"><path d="M43.57 47.448L40.12 44H41c1.654 0 3-1.346 3-3V20c0-9.925-8.075-18-18-18S8 10.075 8 20v21c0 1.654 1.346 3 3 3h.91l-3.45 3.448a1.5 1.5 0 1 0 2.122 2.121L16.152 44h19.727l5.57 5.57c.292.292.676.439 1.06.439s.767-.147 1.06-.44a1.5 1.5 0 0 0 0-2.12zM16.543 12.75c.19-.984.912-1.75 2.026-1.75h14.86c1.114 0 1.836.734 2.026 1.75L37 24.25c0 .962-.912 1.75-2.026 1.75H17.026C15.912 26 15 25.212 15 24.25l1.544-11.5zM16 35a2 2 0 1 1 0-4 2 2 0 0 1 0 4zm18-2a2 2 0 1 1 4 0 2 2 0 0 1-4 0z"/></svg>