<svg xmlns="http://www.w3.org/2000/svg" width="52" height="52" viewBox="0 0 52 52"><path d="M9 26c0-9.374 7.626-17 17-17 4.951 0 9.617 2.165 12.834 5.871h-1.039a1.501 1.501 0 0 0 .002 3l6-.003a1.499 1.499 0 0 0 1.499-1.5l-.003-6a1.5 1.5 0 1 0-3 0l.001.874A21.996 21.996 0 0 0 26 4C13.87 4 4 13.87 4 26c0 1.379 1.122 2.5 2.5 2.5S9 27.379 9 26zM45.5 23.5A2.503 2.503 0 0 0 43 26c0 9.374-7.626 17-17 17a16.988 16.988 0 0 1-12.834-5.871h1.039a1.501 1.501 0 0 0-.002-3l-6 .003a1.499 1.499 0 0 0-1.499 1.5l.003 6a1.5 1.5 0 1 0 3 0l-.001-.873A21.995 21.995 0 0 0 26 48c12.13 0 22-9.87 22-22 0-1.378-1.121-2.5-2.5-2.5z"/></svg>