<svg xmlns="http://www.w3.org/2000/svg" width="52" height="52" viewBox="0 0 52 52"><path d="M24.032 46.983h.002c9.678 0 16.87-9.982 17.164-10.398 7.421-10.297 5.31-29.05 5.216-29.844a1.5 1.5 0 1 0-2.726-.673c-2.223 3.237-8.881 4.341-11.258 4.493-7.88.492-12.737 2.917-12.996 3.05-12.988 7.31-9.58 21.489-9.54 21.649 0 0 1.018 3.674 2.585 5.933v.001c-3.45 1.577-5.972 2.133-6.035 2.146a1.5 1.5 0 0 0 .61 2.937c.298-.061 3.461-.75 7.58-2.736 4.729 3.603 9.398 3.442 9.398 3.442zm-7.778-5.973c-.381-.303-.74-.715-1.072-1.184 4.815-2.665 10.507-7.144 14.014-14.433a1.499 1.499 0 1 1 2.703 1.3c-3.64 7.567-9.302 12.33-14.305 15.266-.45-.29-.898-.598-1.34-.95z"/></svg>