<svg xmlns="http://www.w3.org/2000/svg" width="52" height="52" viewBox="0 0 52 52"><path d="M50.006 30H50V17c0-1.65-1.35-3-3-3H36v-3c0-1.65-1.35-3-3-3H19c-1.65 0-3 1.35-3 3v3H5c-1.65 0-3 1.35-3 3v24c0 1.65 1.35 3 3 3h42c1.65 0 3-1.35 3-3V30.189c.003-.065.006-.13.006-.189zM19 11h14v3H19v-3zM8.782 32.003C7.057 31.895 5 31.459 5 30V17h42v13.032c-.033 1.431-2.064 1.863-3.682 1.968l-34.536.003zM5 41v-6.791c.924.4 2.121.693 3.688.791h10.497c.416 1.16 1.517 2 2.815 2h8c1.298 0 2.4-.84 2.815-2.001l10.598-.002c1.515-.095 2.683-.378 3.587-.768V41H5z"/></svg>