<svg xmlns="http://www.w3.org/2000/svg" width="18" height="18" viewBox="0 0 18 18"><path d="M9.002 1.002a7.997 7.997 0 1 0 0 15.993 7.997 7.997 0 0 0 0-15.993zm0 14.993c-3.858 0-6.997-3.138-6.997-6.996s3.139-6.997 6.997-6.997 6.996 3.139 6.996 6.997-3.138 6.996-6.996 6.996z"/><circle cx="9" cy="12.867" r="1.125"/><path d="M8 10.023a1 1 0 1 0 2 0v-.572c1.162-.39 2-1.418 2-2.634 0-1.549-1.35-2.81-3.01-2.81-1.54 0-2.823 1.083-2.984 2.518a1 1 0 1 0 1.988.222c.046-.414.484-.74.996-.74.548 0 1.01.371 1.01.81 0 .438-.461.808-1.008.809a1 1 0 0 0-.998 1.002L8 10.023z"/></svg>