<svg xmlns="http://www.w3.org/2000/svg" width="52" height="52" viewBox="0 0 52 52"><path d="M9.5 37.984h33a1.5 1.5 0 0 0 1.5-1.5V32.06c0-9.42-7.276-17.158-16.5-17.924V11H29a1.5 1.5 0 0 0 0-3h-6a1.5 1.5 0 0 0 0 3h1.5v3.136C15.276 14.902 8 22.64 8 32.06v4.424a1.5 1.5 0 0 0 1.5 1.5zM11 32.06c0-8.271 6.729-15 15-15s15 6.729 15 15v2.924H11V32.06zM45.5 41h-39a1.5 1.5 0 0 0 0 3h39a1.5 1.5 0 0 0 0-3z"/><path d="M20.844 21.123c-4.95 2.406-6.687 7.204-6.759 7.407a1.5 1.5 0 0 0 2.83.996c.013-.038 1.387-3.831 5.241-5.705a1.5 1.5 0 1 0-1.312-2.698z"/></svg>