<svg xmlns="http://www.w3.org/2000/svg" width="52" height="52" viewBox="0 0 52 52"><path d="M24.5 2A1.5 1.5 0 0 0 23 3.5V11h-3V3.5a1.5 1.5 0 0 0-3 0V11h-3V3.5a1.5 1.5 0 1 0-3 0v12c0 2.481 2.019 4.5 4.5 4.5H17v28.5a1.5 1.5 0 0 0 3 0V20h1.5c2.481 0 4.5-2.019 4.5-4.5v-12A1.5 1.5 0 0 0 24.5 2zM23 15.5c0 .827-.673 1.5-1.5 1.5h-6c-.827 0-1.5-.673-1.5-1.5V14h9v1.5zM40.536 2.41a1.5 1.5 0 0 0-1.113-.408c-4.556.25-7.99 6.699-7.99 14.998 0 .686-.008 1.363-.015 2.026-.049 4.495-.09 8.377 2.111 10.604 1.066 1.077 2.547 1.624 4.402 1.624l.074-.003V48.5a1.5 1.5 0 0 0 3 0v-45c0-.412-.17-.806-.469-1.09zm-4.874 25.11c-1.322-1.336-1.284-4.797-1.244-8.46.007-.675.015-1.364.015-2.06 0-5.42 1.673-9.643 3.572-11.274V28.254c-1.108-.002-1.843-.229-2.343-.733z"/></svg>