<svg xmlns="http://www.w3.org/2000/svg" width="52" height="52" viewBox="0 0 52 52"><path d="M41 2H11C9.35 2 8 3.35 8 5v6c0 1.65 1.35 3 3 3v34.5a1.501 1.501 0 0 0 2.513 1.106L17 46.414l3.487 3.192a1.498 1.498 0 0 0 2.026 0L26 46.414l3.487 3.192a1.498 1.498 0 0 0 2.026 0L35 46.414l3.487 3.192A1.5 1.5 0 0 0 41 48.5V14c1.65 0 3-1.35 3-3V5c0-1.65-1.35-3-3-3zM30.5 35h-9a1.5 1.5 0 0 1 0-3h9a1.5 1.5 0 0 1 0 3zm0-6h-9a1.5 1.5 0 0 1 0-3h9a1.5 1.5 0 0 1 0 3zm0-6h-9a1.5 1.5 0 0 1 0-3h9a1.5 1.5 0 0 1 0 3zM41 11H11V5h30v6z"/></svg>