<svg xmlns="http://www.w3.org/2000/svg" width="52" height="52" viewBox="0 0 52 52"><path d="M46.089 42.554L34.576 31.04c4.696-6.402 4.169-15.438-1.619-21.225-3.195-3.196-7.383-4.793-11.57-4.793S13.01 6.62 9.814 9.816c-6.39 6.39-6.39 16.75 0 23.141a16.312 16.312 0 0 0 11.571 4.793c3.398 0 6.787-1.07 9.655-3.174l11.513 11.513c.488.488 1.128.732 1.767.732s1.28-.244 1.768-.732a2.5 2.5 0 0 0 0-3.535zM21.386 32.75a11.29 11.29 0 0 1-8.035-3.328c-4.43-4.431-4.43-11.64 0-16.07 2.146-2.147 5-3.33 8.035-3.33s5.89 1.183 8.036 3.33c4.43 4.43 4.43 11.639 0 16.07a11.29 11.29 0 0 1-8.036 3.328z"/></svg>