<svg xmlns="http://www.w3.org/2000/svg" width="52" height="52" viewBox="0 0 52 52"><path d="M41 18.994h-6v-6.988c0-4.963-4.037-9-9-9-4.64 0-8.45 3.536-8.928 8.052-.042.139-.04.32-.04.473 0 .829.64 1.463 1.468 1.463s1.5-.671 1.5-1.5l.031-.15c.261-3.07 2.833-5.338 5.969-5.338 3.309 0 6 2.691 6 6v6.976H22v.012H11c-1.65 0-3 1.35-3 3v24c0 1.65 1.35 3 3 3h30c1.65 0 3-1.35 3-3v-24c0-1.65-1.35-3-3-3zm0 27H11v-24h30v24z"/><path d="M24.5 33.578v4.916a1.5 1.5 0 0 0 3 0v-4.916a2.987 2.987 0 0 0 1.5-2.584 3 3 0 1 0-6 0c0 1.108.607 2.064 1.5 2.584z"/></svg>