<svg xmlns="http://www.w3.org/2000/svg" width="52" height="52" viewBox="0 0 52 52"><path d="M43.099 22.386l-2.927-7.531c-.932-2.437-3.026-3.834-5.767-3.834h-2.407L32 11V8c0-1.65-1.35-3-3-3h-6c-1.65 0-3 1.35-3 3v3l.002.02h-2.427c-2.701 0-4.794 1.395-5.743 3.827L8.9 22.387A6.014 6.014 0 0 0 5 28.06v11.418a1.5 1.5 0 0 0 1.5 1.5H8V42.8c0 2.316 2.019 4.2 4.5 4.2s4.5-1.884 4.5-4.2v-1.822h18V42.8c0 2.316 2.019 4.2 4.5 4.2s4.5-1.884 4.5-4.2v-1.822h1.5a1.5 1.5 0 0 0 1.5-1.5V28.06a5.984 5.984 0 0 0-3.901-5.675zM23 8h6v3h-6V8zm-9 34.8c0 .65-.687 1.2-1.5 1.2s-1.5-.55-1.5-1.2V41h3v1.8zm27 0c0 .65-.687 1.2-1.5 1.2s-1.5-.55-1.5-1.2V41h3v1.8zm3-4.822H8v-9.913c.008-2.028 1.718-2.873 2.201-2.931a1.5 1.5 0 0 0 1.218-.946l3.208-8.252c.503-1.289 1.467-1.915 2.968-1.915h16.83c1.491 0 2.454.623 2.947 1.913l3.208 8.254a1.5 1.5 0 0 0 1.22.946c.486.058 2.201.9 2.2 2.926v9.918z"/><path d="M37.16 24.843a1.5 1.5 0 0 0 .16-1.39l-1.594-4.094a1.273 1.273 0 0 0-.052-.118c-.296-.602-1.082-2.2-3.066-2.225H19.48c-1.999.026-2.749 1.473-3.109 2.17-.02.039-.039.08-.056.12l-1.688 4.122a1.5 1.5 0 0 0 1.389 2.069h19.906a1.5 1.5 0 0 0 1.238-.654zm-18.91-2.346l.815-1.989c.206-.39.298-.471.3-.476 0 0 .042-.015.135-.016l13.14-.002c.025.017.118.103.315.496l.774 1.987H18.25zM14 30a2 2 0 0 0-2 2.009A1.992 1.992 0 0 0 14 34a2 2 0 0 0 2-1.991A2.01 2.01 0 0 0 14 30zM38 30a2 2 0 0 0-2 2.009A1.992 1.992 0 0 0 38 34a2 2 0 0 0 2-1.991A2.01 2.01 0 0 0 38 30z"/></svg>