<svg xmlns="http://www.w3.org/2000/svg" width="52" height="52" viewBox="0 0 52 52"><path d="M49.901 23.88c-.005-.066-.008-.133-.015-.199a23.975 23.975 0 0 0-.277-1.978c-.016-.087-.03-.174-.047-.26a23.818 23.818 0 0 0-.516-2.141 23.788 23.788 0 0 0-.625-1.865c-.02-.054-.043-.108-.064-.162a23.872 23.872 0 0 0-.818-1.865l-.01-.019a24.146 24.146 0 0 0-5.656-7.385 24.028 24.028 0 0 0-5.263-3.534l-.02-.01c-.608-.3-1.23-.571-1.865-.82-.054-.02-.107-.042-.161-.063a23.792 23.792 0 0 0-2.105-.692 23.809 23.809 0 0 0-1.902-.45l-.259-.046a23.943 23.943 0 0 0-1.979-.277c-.066-.007-.133-.01-.199-.015A24.27 24.27 0 0 0 26 2C12.745 2 2 12.745 2 26c0 .715.037 1.421.099 2.12.005.066.008.133.015.199.064.668.16 1.327.277 1.978.016.087.03.174.047.26a23.823 23.823 0 0 0 .516 2.141c.184.633.392 1.255.625 1.865.02.055.043.108.064.162.248.635.52 1.258.818 1.865l.01.019a24.03 24.03 0 0 0 3.535 5.263v.001a24.077 24.077 0 0 0 7.385 5.656l.019.01c.607.299 1.23.57 1.865.818l.162.064a23.799 23.799 0 0 0 2.104.693c.625.174 1.258.324 1.901.448.087.017.174.031.26.047.652.118 1.31.213 1.98.277.065.007.132.01.198.015.699.062 1.405.099 2.12.099 13.255 0 24-10.745 24-24 0-.715-.037-1.421-.099-2.12zm-10.17-13.732a21.17 21.17 0 0 1 2.122 2.121L12.269 41.852a21.175 21.175 0 0 1-2.121-2.12L39.73 10.147z" fill="#008566"/></svg>