<svg xmlns="http://www.w3.org/2000/svg" width="52" height="52" viewBox="0 0 52 52"><path d="M24.308 28.738a27.766 27.766 0 0 1 1.886-.567l-1.03-1.361a105.79 105.79 0 0 1-.856 1.928z" fill="#008566"/><path d="M43.983 14a1.479 1.479 0 0 0-.42-.957L32.957 2.436a1.479 1.479 0 0 0-.957-.42V2H11C9.35 2 8 3.35 8 5v42c0 1.65 1.35 3 3 3h30c1.65 0 3-1.35 3-3V14.119 14h-.017zM33.942 32.039c-1.45 0-3.391-.62-5.13-1.63-.876.158-1.766.371-2.65.634a28.603 28.603 0 0 0-3.857 1.456c-2.403 4.06-3.792 4.587-4.738 4.587h-.004a2.053 2.053 0 0 1-1.458-.611 2.043 2.043 0 0 1-.575-1.804c.23-1.36 1.849-2.802 4.811-4.286a50.356 50.356 0 0 0 1.741-3.424 41.825 41.825 0 0 0 1.32-3.179c-.552-1.388-1.682-4.768-.47-6.627a2.333 2.333 0 0 1 1.987-1.075c.76 0 1.414.332 1.843.934.835 1.177.709 3.295-.402 6.652.346.72.742 1.403 1.18 2.033.451.647 1.095 1.273 1.872 1.824a18.804 18.804 0 0 1 2.509-.183c1.938 0 3.235.372 3.966 1.139.421.44.639 1.01.61 1.607-.035.898-.725 1.953-2.555 1.953zM32 13.999V5.722L40.278 14H32z" fill="#008566"/><path d="M17.428 34.992c-.01.057-.002.08.039.12.047.048.074.048.095.048.288 0 1.035-.52 2.225-2.278-1.52.912-2.288 1.69-2.359 2.11zM25.192 18.13c-.054-.077-.12-.125-.273-.125-.172 0-.28.06-.375.203-.349.534-.322 1.992.289 3.878.664-2.317.633-3.57.359-3.956zM31.921 29.266c-.336 0-.686.013-1.052.04 1.223.55 2.35.805 3.073.805.405 0 .587-.08.632-.118.002-.054-.01-.11-.08-.185-.25-.262-1.058-.542-2.573-.542z" fill="#008566"/></svg>