<svg xmlns="http://www.w3.org/2000/svg" width="52" height="52" viewBox="0 0 52 52"><path d="M45.32 12.491l-17.258-9.94a4.2 4.2 0 0 0-4.125 0l-17.256 9.94a4.131 4.131 0 0 0-2.065 3.57v19.88a4.13 4.13 0 0 0 2.065 3.568l17.257 9.94a4.138 4.138 0 0 0 4.125 0l17.255-9.94a4.128 4.128 0 0 0 2.066-3.569V16.06a4.131 4.131 0 0 0-2.065-3.569zm-9.642 10.743l-3.776 4.052.986 5.75a1.2 1.2 0 0 1-1.742 1.266l-5.132-2.698-5.132 2.698a1.202 1.202 0 0 1-1.741-1.265l.986-5.748-3.802-4.052a1.2 1.2 0 0 1 .691-2.007l5.414-.839 2.556-4.25a1.199 1.199 0 0 1 2.056 0l2.556 4.25 5.386.839a1.2 1.2 0 0 1 .694 2.004z" fill="#008566"/></svg>