<svg xmlns="http://www.w3.org/2000/svg" width="52" height="52" viewBox="0 0 52 52"><path d="M16.344 42.509h-.224c-1.53 0-2.24-.652-2.566-1.198-.508-.851-.325-1.83.015-2.46l4.187-7.172h-5.861l-3.499 2.873a5.429 5.429 0 0 1-.595.427c-.712.475-1.497.548-2.241.555l-.797.001c-.325 0-1.278 0-2.011-.701A2.14 2.14 0 0 1 2 33.194c0-.193.028-.396.083-.598l.035-.11L4.437 26l-2.354-6.594A2.316 2.316 0 0 1 2 18.803a2.129 2.129 0 0 1 .753-1.634c.732-.7 1.685-.7 2.008-.7h.786c.758.007 1.544.08 2.257.557.127.076.283.182.51.36l4.632 2.938h4.807l-4.158-7.112c-.366-.676-.55-1.654-.041-2.505.326-.546 1.036-1.198 2.566-1.198h.224c.467 0 1.644.103 2.277.168l.397.048c1.78.204 2.856.422 3.512.985.73.507 2.99 2.423 9.465 9.614H43.58c4.85 0 6.42 3.825 6.42 5.677 0 1.853-1.57 5.678-6.42 5.678H31.987c-6.682 7.29-8.866 9.164-9.41 9.588-.653.593-1.736.816-3.558 1.025l-.338.041c-.69.072-1.867.176-2.337.176z" fill="#008566"/></svg>