<svg xmlns="http://www.w3.org/2000/svg" width="52" height="52" viewBox="0 0 52 52"><path d="M41 18.994h-6v-6.988c0-4.963-4.037-9-9-9-4.64 0-8.45 3.536-8.928 8.052a1.483 1.483 0 0 0-.072.436 1.5 1.5 0 1 0 3 0h.026c.26-3.07 2.838-5.488 5.974-5.488 3.309 0 6 2.691 6 6v6.976H22v.012H11c-1.65 0-3 1.35-3 3v24c0 1.65 1.35 3 3 3h30c1.65 0 3-1.35 3-3v-24c0-1.65-1.35-3-3-3zM27.5 33.578v4.916a1.5 1.5 0 0 1-3 0v-4.916a2.987 2.987 0 0 1-1.5-2.584 3 3 0 1 1 6 0 2.987 2.987 0 0 1-1.5 2.584z" fill="#008566"/></svg>