<svg xmlns="http://www.w3.org/2000/svg" width="52" height="52" viewBox="0 0 52 52"><path d="M48.5 20a1.5 1.5 0 0 0-1.5 1.5V23h-4.276c.168-.472.276-.972.276-1.5 0-2.481-2.019-4.5-4.5-4.5h-21c-.847 0-1.632.25-2.31.658a5.449 5.449 0 0 0-.8-1.048C13.35 15.572 11.968 15 10.5 15s-2.85.572-3.89 1.61a5.484 5.484 0 0 0-1.607 3.89H5v-8a1.5 1.5 0 1 0-3 0v27a1.5 1.5 0 0 0 3 0V38h42v1.5a1.5 1.5 0 0 0 3 0v-18a1.5 1.5 0 0 0-1.5-1.5zm-31 0h21c.825 0 1.5.675 1.5 1.5 0 .824-.673 1.497-1.496 1.5H17.496A1.504 1.504 0 0 1 16 21.5c0-.825.675-1.5 1.5-1.5zm-8.768-1.268C9.204 18.26 9.832 18 10.5 18s1.296.26 1.768.732a2.504 2.504 0 0 1 0 3.536c-.944.944-2.592.943-3.536 0a2.504 2.504 0 0 1 0-3.536zM5 35v-9h42v9H5z" fill="#008566"/></svg>