<svg xmlns="http://www.w3.org/2000/svg" width="52" height="52" viewBox="0 0 52 52"><path d="M8 26c0-9.925 8.075-18 18-18 5.725 0 10.829 2.691 14.128 6.87l-2.333.002a1.501 1.501 0 0 0 .002 3l6-.004a1.499 1.499 0 0 0 1.499-1.5l-.003-6a1.5 1.5 0 1 0-3 0l.002 2.406C38.445 8.035 32.581 5 26 5 14.402 5 5 14.402 5 26a1.5 1.5 0 1 0 3 0zM45.5 24.5A1.5 1.5 0 0 0 44 26c0 9.925-8.075 18-18 18-5.725 0-10.829-2.691-14.128-6.87l2.333-.002a1.501 1.501 0 0 0-.002-3l-6 .004a1.499 1.499 0 0 0-1.499 1.5l.003 6a1.5 1.5 0 1 0 3 0l-.002-2.406C13.555 43.965 19.419 47 26 47c11.598 0 21-9.402 21-21a1.5 1.5 0 0 0-1.5-1.5z" fill="#008566"/></svg>