<svg xmlns="http://www.w3.org/2000/svg" width="52" height="52" viewBox="0 0 52 52"><path d="M31.92 27.34c-.77 0-1.611.061-2.508.183-.777-.551-1.421-1.177-1.871-1.824-.44-.63-.835-1.313-1.18-2.033 1.11-3.357 1.236-5.475.4-6.652-.428-.602-1.081-.934-1.842-.934-.817 0-1.542.393-1.986 1.075-1.213 1.859-.083 5.239.47 6.627a41.822 41.822 0 0 1-1.32 3.179 50.353 50.353 0 0 1-1.742 3.424c-2.962 1.484-4.58 2.925-4.811 4.286a2.043 2.043 0 0 0 .575 1.804c.394.394.912.611 1.458.611h.004c.946 0 2.335-.528 4.738-4.587a28.603 28.603 0 0 1 3.857-1.456 24.724 24.724 0 0 1 2.65-.634c1.739 1.01 3.68 1.63 5.13 1.63 1.83 0 2.52-1.055 2.556-1.953a2.162 2.162 0 0 0-.61-1.607c-.732-.767-2.03-1.14-3.967-1.14zm-14.358 7.82c-.021 0-.048 0-.095-.048-.041-.04-.048-.063-.039-.12.071-.42.839-1.198 2.359-2.11-1.19 1.757-1.937 2.278-2.225 2.278zm6.982-16.952a.401.401 0 0 1 .375-.203c.154 0 .219.048.273.125.274.385.305 1.64-.36 3.956-.61-1.886-.637-3.344-.288-3.878zm.833 10.19c-.357.106-.714.22-1.07.34.303-.66.608-1.353.857-1.928l1.03 1.36c-.272.072-.544.148-.817.229zm8.565 1.713c-.723 0-1.85-.254-3.073-.805.366-.027.716-.04 1.052-.04 1.515 0 2.323.28 2.573.542.07.074.082.131.08.185-.045.037-.227.118-.632.118z" fill="#008566"/><path d="M44 14.089V14h-.017a1.479 1.479 0 0 0-.42-.957L32.957 2.436a1.479 1.479 0 0 0-.957-.42V2H11C9.35 2 8 3.35 8 5v42c0 1.65 1.35 3 3 3h30c1.65 0 3-1.35 3-3V14.119v-.03zm-3.722-.09H32V5.722L40.278 14zM11 47V5h18v9c0 1.65 1.35 3 3 3h9v30H11z" fill="#008566"/></svg>