<svg xmlns="http://www.w3.org/2000/svg" width="52" height="52" viewBox="0 0 52 52"><path d="M46.971 43.92c-.204-2.763-1.018-4.792-4.2-6.654-4.651-2.758-9.084-5.148-9.084-5.148-.727-.368-1.195-2.22-1.437-3.462-.063-.25-.113-.396-.162-.764 4.845-4.045 3.827-12.733 3.827-12.733-.484-9.745-9.059-9.699-9.93-9.653-.824-.046-9.447-.092-9.932 9.653 0 0-1.017 8.688 3.827 12.733-.083.405-.111.443-.208.811-.242 1.241-.664 3.047-1.39 3.415 0 0-4.431 2.39-9.082 5.148-3.146 1.866-3.991 3.9-4.2 6.672A2.855 2.855 0 0 0 7.835 46.5h36.3a2.855 2.855 0 0 0 2.836-2.58z" fill="#008566"/></svg>