<svg xmlns="http://www.w3.org/2000/svg" width="52" height="52" viewBox="0 0 52 52"><path d="M43.26 11.232l-.003-.002-8.482-8.483a2.5 2.5 0 1 0-3.535 3.535l4.218 4.218H10.5a2.5 2.5 0 1 0 0 5h24.958l-4.218 4.218a2.5 2.5 0 1 0 3.535 3.535l8.482-8.483.003-.002c.488-.488.732-1.128.732-1.768s-.244-1.28-.732-1.768zM41.492 36.5H16.535l4.218-4.218a2.5 2.5 0 1 0-3.535-3.535l-8.486 8.485a2.5 2.5 0 0 0 0 3.536l8.486 8.485c.488.488 1.128.732 1.767.732s1.28-.244 1.768-.732a2.5 2.5 0 0 0 0-3.535L16.535 41.5h24.957a2.5 2.5 0 1 0 0-5z" fill="#008566"/></svg>