<svg xmlns="http://www.w3.org/2000/svg" width="52" height="52" viewBox="0 0 52 52"><path d="M46.414 6.74a1.499 1.499 0 1 0-2.726-.673c-2.223 3.238-8.881 4.342-11.258 4.494-7.88.492-12.737 2.917-12.996 3.05-12.988 7.31-9.58 21.489-9.54 21.649.117.44.959 3.474 2.586 5.934-3.45 1.577-5.973 2.133-6.036 2.146a1.501 1.501 0 0 0 .61 2.937c.298-.061 3.46-.75 7.58-2.736 2.96 2.278 6.118 3.442 9.398 3.442h.002c9.678 0 16.87-9.982 17.164-10.398 7.421-10.297 5.31-29.05 5.216-29.844zm-7.656 28.1c-.065.092-6.58 9.143-14.724 9.143h-.002c-2.199 0-4.356-.687-6.435-2.022 5.003-2.938 10.663-7.704 14.302-15.268a1.5 1.5 0 0 0-2.703-1.3C25.691 32.677 20 37.164 15.184 39.83c-1.234-1.733-2.11-4.287-2.385-5.318-.122-.492-2.854-12.118 8.049-18.256.044-.022 4.5-2.247 11.77-2.7.331-.021 6.767-.46 11.043-3.373.269 5.634.156 17.637-4.903 24.657z" fill="#008566"/></svg>