<svg xmlns="http://www.w3.org/2000/svg" width="52" height="52" viewBox="0 0 52 52"><path d="M26 11c.58 0 1.115.271 1.405.711l8.939 13.578 8.939 13.577c.29.44.29.983 0 1.423-.29.44-.826.711-1.405.711H8.122c-.58 0-1.115-.271-1.405-.711-.29-.44-.29-.983 0-1.423l8.94-13.577 8.938-13.578c.29-.44.825-.711 1.405-.711m0-3c-1.599 0-3.06.77-3.91 2.062l-8.94 13.577-8.938 13.577a4.29 4.29 0 0 0 0 4.722C5.062 43.23 6.523 44 8.122 44h35.756c1.599 0 3.06-.77 3.91-2.062a4.29 4.29 0 0 0 0-4.721L38.85 23.639l-8.938-13.577C29.06 8.77 27.599 8 26 8z" fill="#008566"/><path d="M26 33a1.5 1.5 0 0 1-1.5-1.5v-14a1.5 1.5 0 0 1 3 0v14A1.5 1.5 0 0 1 26 33z" fill="#008566"/><circle cx="26" cy="36.5" r="1.75" fill="#008566"/></svg>