<svg xmlns="http://www.w3.org/2000/svg" width="52" height="52" viewBox="0 0 52 52"><path d="M46.77 19.43h-2.007a19.814 19.814 0 0 0-.853-2.05l1.421-1.42c.54-.54.837-1.256.838-2.02 0-.762-.297-1.48-.837-2.02L40.079 6.67c-1.077-1.078-2.953-1.08-4.038 0l-1.422 1.42a19.893 19.893 0 0 0-2.052-.852V5.23a2.858 2.858 0 0 0-2.854-2.855h-7.428a2.858 2.858 0 0 0-2.854 2.855v2.007c-.7.245-1.385.53-2.053.853l-1.421-1.421c-1.045-1.046-2.998-1.042-4.037 0L6.667 11.92a2.837 2.837 0 0 0-.835 2.02c0 .763.297 1.48.836 2.018l1.422 1.42a19.84 19.84 0 0 0-.853 2.053H5.23a2.858 2.858 0 0 0-2.854 2.855v7.428a2.858 2.858 0 0 0 2.854 2.855h2.008c.245.698.53 1.382.853 2.05l-1.423 1.423a2.86 2.86 0 0 0 .001 4.037l5.253 5.252c1.078 1.078 2.959 1.078 4.037 0l1.423-1.423a19.69 19.69 0 0 0 2.05.852v2.01a2.858 2.858 0 0 0 2.855 2.855h7.428a2.858 2.858 0 0 0 2.854-2.855v-2.01c.699-.244 1.384-.53 2.051-.852l1.423 1.422c1.043 1.044 2.997 1.042 4.037 0l5.253-5.252a2.857 2.857 0 0 0 0-4.037l-1.423-1.423c.322-.668.608-1.352.853-2.05h2.008a2.858 2.858 0 0 0 2.855-2.855v-7.428a2.857 2.857 0 0 0-2.854-2.854zM26 32a6 6 0 1 1 0-12 6 6 0 0 1 0 12z" fill="#008566"/></svg>