<svg xmlns="http://www.w3.org/2000/svg" width="52" height="52" viewBox="0 0 52 52"><path d="M43.099 22.386l-2.927-7.531c-.932-2.437-3.026-3.834-5.767-3.834h-2.407L32 11V8c0-1.65-1.35-3-3-3h-6c-1.65 0-3 1.35-3 3v3l.002.02h-2.428c-2.739 0-4.778 1.359-5.743 3.827l-2.93 7.54A6.016 6.016 0 0 0 5 28.06v11.418a1.5 1.5 0 0 0 1.5 1.5H8V42.8c0 2.316 2.019 4.2 4.5 4.2s4.5-1.884 4.5-4.2v-1.822h18V42.8c0 2.316 2.019 4.2 4.5 4.2s4.5-1.884 4.5-4.2v-1.822h1.5a1.5 1.5 0 0 0 1.5-1.5V28.06a5.984 5.984 0 0 0-3.901-5.675zM14 34a1.992 1.992 0 0 1-2-1.991A2 2 0 0 1 14 30a2.01 2.01 0 0 1 2 2.009A2 2 0 0 1 14 34zm21.227-10.418a.973.973 0 0 1-.804.424H17.514a.972.972 0 0 1-.9-1.341l1.094-2.673a.901.901 0 0 1 .037-.079c.233-.451.72-1.39 2.016-1.407h12.514c1.286.017 1.796 1.053 1.988 1.443.012.025.023.05.033.077l1.034 2.655c.116.299.078.636-.103.901zM38 34a1.992 1.992 0 0 1-2-1.991A2 2 0 0 1 38 30a2.01 2.01 0 0 1 2 2.009A2 2 0 0 1 38 34z" fill="#008566"/></svg>