<svg xmlns="http://www.w3.org/2000/svg" width="52" height="52" viewBox="0 0 52 52"><path d="M43.964 36.68a9.542 9.542 0 0 0-.19-1.222 10.347 10.347 0 0 0-.135-.52l-.052-.18a9.337 9.337 0 0 0-.295-.81l-.049-.116a9.608 9.608 0 0 0-4.28-4.658c-.114-.063-.23-.124-.34-.18-.749-.378-1.84-1.419-2.492-2.04l-.067-.063c-.293-.29-.57-.945-.816-1.521a14.05 14.05 0 0 0-.507-1.106C33.195 21.066 29.798 19 26.086 19h-.172c-3.712 0-7.11 2.066-8.626 5.206-.215.4-.384.816-.547 1.219-.23.567-.468 1.153-.731 1.413-.647.615-1.85 1.762-2.626 2.153-.117.059-.233.121-.338.179-1.921 1.03-3.444 2.686-4.276 4.63l-.062.147a8.8 8.8 0 0 0-.297.819l-.049.167a9.23 9.23 0 0 0-.327 1.755l-.014.195a9.325 9.325 0 0 0 .577 3.896 9.36 9.36 0 0 0 1.354 2.423 9.607 9.607 0 0 0 1.613 1.642 9.782 9.782 0 0 0 2.407 1.416c.441.18.897.33 1.354.444a10.032 10.032 0 0 0 4.201.136 9.465 9.465 0 0 0 2.659-.907c1.713-.831 3.84-1.065 5.788-.636a8.428 8.428 0 0 1 1.798.614 9.494 9.494 0 0 0 3.28 1.016 10.027 10.027 0 0 0 4.98-.669 9.762 9.762 0 0 0 4.015-3.056 9.38 9.38 0 0 0 1.642-3.318 9.272 9.272 0 0 0 .29-3.005l-.015-.2zM14 21c0-3.364-1.977-6-4.5-6S5 17.636 5 21s1.977 6 4.5 6 4.5-2.636 4.5-6zM42.5 15c-2.523 0-4.5 2.636-4.5 6s1.977 6 4.5 6 4.5-2.636 4.5-6-1.977-6-4.5-6zM19.5 17c2.523 0 4.5-2.636 4.5-6s-1.977-6-4.5-6S15 7.636 15 11s1.977 6 4.5 6zM32.5 17c2.523 0 4.5-2.636 4.5-6s-1.977-6-4.5-6S28 7.636 28 11s1.977 6 4.5 6z" fill="#008566"/></svg>