<svg xmlns="http://www.w3.org/2000/svg" width="52" height="52" viewBox="0 0 52 52"><path d="M46.243 24.96L27.762 5.764c-.887-.973-2.665-.94-3.493-.03L5.727 24.99a2.386 2.386 0 0 0-.416 2.569 2.386 2.386 0 0 0 2.177 1.416H12v15.658a2.384 2.384 0 0 0 2.381 2.382H21.5a1.5 1.5 0 0 0 1.5-1.5h.002L23.004 38H29v7.516a1.5 1.5 0 0 0 1.5 1.5h7.118A2.384 2.384 0 0 0 40 44.634V28.976h4.512c.94 0 1.795-.556 2.18-1.422.378-.862.214-1.868-.449-2.595zM38.5 25.975a1.5 1.5 0 0 0-1.5 1.5v16.54h-5V38c0-1.654-1.346-3-3-3h-6c-1.654 0-3 1.346-3 3v6.016h-5v-16.54a1.5 1.5 0 0 0-1.5-1.5H8.943L26 8.26l17.058 17.716H38.5z" fill="#008566"/></svg>