<svg xmlns="http://www.w3.org/2000/svg" width="52" height="52" viewBox="0 0 52 52"><path d="M44 38.364c0-.583-.192-1.22-.49-1.665-2.485-3.976-3.603-10.098-3.603-13.176v-2.177c0-6.56-4.358-12.13-10.225-13.785C29.886 7.08 30 6.554 30 6c0-2.206-1.794-4-4-4a4.004 4.004 0 0 0-3.687 5.55c-2.255.628-4.35 1.82-6.018 3.488-2.71 2.613-4.203 6.15-4.203 9.96v2.525c0 2.937-.975 9.106-3.578 13.137A3.19 3.19 0 0 0 8 38.364c0 3.573 6.094 4.913 12 5.374v.712c0 3.06 2.691 5.55 6 5.55s6-2.49 6-5.55v-.745c4.16-.345 9.158-1.159 11.041-3.083.815-.834.972-1.705.959-2.258zM26 5a1.001 1.001 0 1 1-1 1c0-.551.448-1 1-1zm3 39.45c0 1.406-1.346 2.55-3 2.55s-3-1.144-3-2.55V44h6v.45zm-2.957-3.493c-8.018 0-14.67-1.397-15.022-2.65 2.987-4.624 4.072-11.375 4.072-14.784v-2.525c0-2.988 1.166-5.758 3.303-7.82 1.994-1.992 4.731-3.135 7.511-3.135l.291.004c5.906.077 10.71 5.146 10.71 11.3v2.176c0 3.198 1.1 10.035 4.058 14.766l.036.096c-.4 1.19-7.022 2.572-14.959 2.572z" fill="#008566"/></svg>