<?xml version="1.0" encoding="utf-8"?>
<!-- Generator: Adobe Illustrator 18.0.0, SVG Export Plug-In . SVG Version: 6.00 Build 0)  -->
<!DOCTYPE svg PUBLIC "-//W3C//DTD SVG 1.1//EN" "http://www.w3.org/Graphics/SVG/1.1/DTD/svg11.dtd">
<svg version="1.1" id="Layer_1" xmlns="http://www.w3.org/2000/svg" xmlns:xlink="http://www.w3.org/1999/xlink" x="0px" y="0px"
	 width="100px" height="69px" viewBox="0 0 100 69" enable-background="new 0 0 100 69" xml:space="preserve">
<g>
	<path fill="#00C4FF" d="M0.00008,0h100v22.06797h-100V0z"/>
	<path fill="#FFFFFF" d="M0.00008,21.96532h100v25.06707h-100V21.96532z"/>
	<path fill="#00C4FF" d="M0.00008,46.92973h100V69h-100V46.92973z"/>
</g>
<path fill="#FFD600" stroke="#000000" stroke-width="0.3" d="M56.77771,34.81285c0,3.6865-3.04978,6.67488-6.81213,6.67488
	c-3.76234,0-6.81161-2.98838-6.81161-6.67488c0-3.68649,3.04978-6.67487,6.81213-6.67487S56.77771,31.12636,56.77771,34.81285z"/>
<path fill="none" stroke="#000000" stroke-width="0.3" d="M51.88459,30.0457c-0.86142-0.20196-1.74368,0.08117-2.02156,0.06116
	c-0.38208,0-1.3477-0.32314-2.02155,0 M46.7796,31.0478c0.85447-0.57895,1.80917,0.20888,2.06304,0.06059
	c0.69311-0.44124,1.33698-0.3593,2.00071,0.04039c0.42773,0.24466,1.17383-0.71359,2.04239,0.06059"/>
<path fill="#EFC000" stroke="#000000" stroke-width="0.3" d="M45.82093,32.03645c0.45155-0.35679,1.9241-0.37026,3.43853,0.46432
	c0.22925-0.05386,0.37514-0.2085,0.18757-0.42392c-1.13929-0.38372-2.46616-0.86843-3.68881-0.5049
	c-0.33345,0.22889-0.25009,0.37699,0.06252,0.4645H45.82093z"/>
<path fill="#EFC000" stroke="#000000" stroke-width="0.3" d="M53.88361,32.03645c-0.45155-0.35679-1.9241-0.37026-3.43853,0.46432
	c-0.22925-0.05386-0.37514-0.2085-0.18757-0.42392c1.13929-0.38372,2.46615-0.86843,3.68881-0.5049
	c0.33345,0.22889,0.25009,0.37699-0.06252,0.4645H53.88361z"/>
<path fill="#F0BF00" stroke="#000000" stroke-width="0.3" stroke-linejoin="round" d="M45.21753,33.22897
	c1.49359-0.92902,3.46631-0.44431,4.2932,0.06059c-1.20876-0.22216-1.2298-0.32314-2.10511-0.34333
	C46.78735,32.96662,45.87729,32.90583,45.21753,33.22897z"/>
<path fill="none" stroke="#000000" stroke-width="0.3" d="M48.63542,33.12703c-0.72942,1.47431-2.00071,1.49451-2.89666-0.08078"/>
<path d="M48.24673,33.57886c-0.21609,0.23656-0.74531,0.37703-1.18187,0.31406s-0.61515-0.30625-0.39891-0.54281
	c0.21625-0.23656,0.74531-0.37703,1.18203-0.31406c0.43672,0.06297,0.61515,0.30625,0.39891,0.54281H48.24673z"/>
<path fill="#FFD700" d="M47.17142,33.27526c0.02234,0.05516-0.04641,0.12813-0.15375,0.16328
	c-0.10735,0.03516-0.21219,0.01875-0.23438-0.03593c-0.0225-0.05531,0.04641-0.12844,0.15359-0.16344
	c0.10719-0.035,0.21249-0.01875,0.23437,0.03593L47.17142,33.27526z"/>
<path fill="none" stroke="#000000" stroke-width="0.3" d="M48.85772,35.66595c-0.84157,1.37083,0.30507,0.40392,0.49125,0.80092
	c0.3275,0.36795,0.65499,0.2812,0.84871,0c0.19392-0.31737,1.41479,0.59876,0.58096-0.75745"/>
<path fill="none" stroke="#000000" stroke-width="0.3" stroke-linejoin="round" d="M47.36116,37.93752
	c0.72208-0.07943,1.93581-0.61319,2.3679-0.17311c0.37196-0.3968,1.68235,0.11541,2.52352,0.17311
	c-0.61053,0.36065-1.84629,0.11541-2.4344,0.49778c-0.57362-0.3391-1.83935-0.02885-2.45723-0.49778H47.36116z"/>
<path fill="none" stroke="#000000" stroke-width="0.3" stroke-linejoin="round" d="M48.52427,38.56649
	c1.09444,0.43277,1.34016,0.36795,2.52391,0.04328c-0.24572,0.62781-0.87293,0.75975-1.22861,0.7359
	c-0.36858-0.02308-0.87094,0.02193-1.2953-0.77899V38.56649z"/>
<path fill="#FFD700" stroke="#000000" stroke-width="0.3" stroke-linejoin="round" d="M47.66484,42.12098
	c-0.78936,2.00229,0.07542,2.954-0.31102,4.03228c-0.37196,1.03827-1.9898,3.61143-0.75821,4.72971
	c0.97852,0.04366-0.1693-1.41892,1.78834-4.12691c0.90826-1.2685-0.23719-2.07153,0.7197-4.55987
	c0.08892-0.21273-1.31455-0.39046-1.439-0.07502L47.66484,42.12098z"/>
<path fill="#FFD700" stroke="#000000" stroke-width="0.3" stroke-linejoin="round" d="M49.33622,42.27209
	c-0.30328,2.24714-0.12306,9.1511,0.60279,8.87469c0.80386,0.2512,0.90965-6.76316,0.83601-8.83719
	c-0.01052-0.22966-1.39673-0.37276-1.43901-0.03751L49.33622,42.27209z"/>
<path fill="none" stroke="#000000" stroke-width="0.3" stroke-linejoin="round" d="M46.2741,41.50279
	c-0.8808,1.96639-2.18578,2.06059-2.68773,3.09334c-0.48344,0.99433-1.18404,3.93036-2.87142,3.89502
	c-0.73095-0.63202,1.14503-0.89958,1.70005-4.16231c0.26625-1.52242,1.66454-1.3201,2.77637-3.74751
	c0.08997-0.21234,1.22142,0.61187,1.08273,0.92172L46.2741,41.50279z"/>
<path fill="none" stroke="#000000" stroke-width="0.3" stroke-linejoin="round" d="M43.04749,38.46581
	c-2.02853,0.85465-2.12492,2.1193-3.19028,2.6063c-1.02573,0.46904-4.05489,1.14963-4.01739,2.78475
	c0.65261,0.70796,0.92754-1.1101,4.29392-1.6498c1.57078-0.25887,1.36115-1.61377,3.86523-2.69257
	c0.21906-0.0873-0.63212-1.18326-0.95176-1.04868L43.04749,38.46581z"/>
<path fill="none" stroke="#000000" stroke-width="0.3" stroke-linejoin="round" d="M42.40945,37.04356
	c-2.06168,0.77633-3.04874-0.05629-4.15921,0.32433c-1.06928,0.36635-3.71529,1.94877-4.87635,0.76165
	c-0.05068-0.948,1.46519,0.156,4.24838-1.75648c1.30378-0.88737,2.13903,0.21807,4.70131-0.72337
	c0.21901-0.08738,0.41048,1.27166,0.08568,1.39406L42.40945,37.04356z"/>
<path fill="none" stroke="#000000" stroke-width="0.3" stroke-linejoin="round" d="M47.74556,41.95366
	c-0.64492,2.1783-3.64642,8.4418-4.19873,7.90827c-0.84061-0.07965,1.94387-6.55475,2.86345-8.42886
	c0.104-0.20661,1.43441,0.19683,1.33547,0.52067L47.74556,41.95366z"/>
<path fill="none" stroke="#000000" stroke-width="0.3" stroke-linejoin="round" d="M44.90182,40.57574
	c-1.41133,1.80721-6.53962,6.6032-6.85657,5.9126c-0.75461-0.36778,4.24987-5.43697,5.80436-6.86449
	c0.17382-0.15646,1.26503,0.68443,1.05236,0.95203L44.90182,40.57574z"/>
<path fill="none" stroke="#000000" stroke-width="0.3" stroke-linejoin="round" d="M43.1246,38.26508
	c-2.016,1.14855-8.64434,3.68545-8.66543,2.93005c-0.55273-0.61882,6.06871-3.45396,8.06756-4.19869
	c0.22226-0.08035,0.89988,1.10011,0.59795,1.26881L43.1246,38.26508z"/>
<path fill="none" stroke="#000000" stroke-width="0.3" d="M48.85772,35.66595c-0.84157,1.37083,0.30507,0.40392,0.49125,0.80092
	c0.3275,0.36795,0.65499,0.2812,0.84871,0c0.19392-0.31737,1.41479,0.59876,0.58096-0.75745"/>
<path fill="#F0BF00" stroke="#000000" stroke-width="0.3" stroke-linejoin="round" d="M47.36116,37.93752
	c0.72208-0.07943,1.93581-0.61319,2.3679-0.17311c0.37196-0.3968,1.68235,0.11541,2.52352,0.17311
	c-0.61053,0.36065-1.84629,0.11541-2.4344,0.49778c-0.57362-0.3391-1.83935-0.02885-2.45723-0.49778H47.36116z"/>
<path fill="#F0BF00" stroke="#000000" stroke-width="0.3" stroke-linejoin="round" d="M48.52427,38.56649
	c1.09444,0.43277,1.34016,0.36795,2.52391,0.04328c-0.24572,0.62781-0.87293,0.75975-1.22861,0.7359
	c-0.36858-0.02308-0.87094,0.02193-1.2953-0.77899V38.56649z"/>
<path fill="#FFD700" stroke="#000000" stroke-width="0.3" stroke-linejoin="round" d="M46.2741,41.50279
	c-0.8808,1.96639-2.18578,2.06059-2.68773,3.09334c-0.48344,0.99433-1.18404,3.93036-2.87142,3.89502
	c-0.73095-0.63202,1.14503-0.89958,1.70005-4.16231c0.26625-1.52242,1.66454-1.3201,2.77637-3.74751
	c0.08997-0.21234,1.22142,0.61187,1.08273,0.92172L46.2741,41.50279z"/>
<path fill="#FFD700" stroke="#000000" stroke-width="0.3" stroke-linejoin="round" d="M43.04749,38.46581
	c-2.02853,0.85465-2.12492,2.1193-3.19028,2.6063c-1.02573,0.46904-4.05489,1.14963-4.01739,2.78475
	c0.65261,0.70796,0.92754-1.1101,4.29392-1.6498c1.57078-0.25887,1.36115-1.61377,3.86523-2.69257
	c0.21906-0.0873-0.63212-1.18326-0.95176-1.04868L43.04749,38.46581z"/>
<path fill="#FFD700" stroke="#000000" stroke-width="0.3" stroke-linejoin="round" d="M42.40945,37.04356
	c-2.06168,0.77633-3.04874-0.05629-4.15921,0.32433c-1.06928,0.36635-3.71529,1.94877-4.87635,0.76165
	c-0.05068-0.948,1.46519,0.156,4.24838-1.75648c1.30378-0.88737,2.13903,0.21807,4.70131-0.72337
	c0.21901-0.08738,0.41048,1.27166,0.08568,1.39406L42.40945,37.04356z"/>
<path fill="#FFD700" stroke="#000000" stroke-width="0.3" stroke-linejoin="round" d="M47.74556,41.95366
	c-0.64492,2.1783-3.64642,8.4418-4.19873,7.90827c-0.84061-0.07965,1.94387-6.55475,2.86345-8.42886
	c0.104-0.20661,1.43441,0.19683,1.33547,0.52067L47.74556,41.95366z"/>
<path fill="#FFD700" stroke="#000000" stroke-width="0.3" stroke-linejoin="round" d="M44.90182,40.57574
	c-1.41133,1.80721-6.53962,6.6032-6.85657,5.9126c-0.75461-0.36778,4.24987-5.43697,5.80436-6.86449
	c0.17382-0.15646,1.26503,0.68443,1.05236,0.95203L44.90182,40.57574z"/>
<path fill="#FFD700" stroke="#000000" stroke-width="0.3" stroke-linejoin="round" d="M43.1246,38.26508
	c-2.016,1.14855-8.64434,3.68545-8.66543,2.93005c-0.55273-0.61882,6.06871-3.45396,8.06756-4.19869
	c0.22226-0.08035,0.89988,1.10011,0.59795,1.26881L43.1246,38.26508z"/>
<path fill="#FFD700" stroke="#000000" stroke-width="0.3" stroke-linejoin="round" d="M57.67538,35.46822
	c2.31889,0.2939,9.44325,0.11925,9.15802-0.58414c0.25922-0.77898-6.97907-0.88151-9.11932-0.81015
	c-0.23699,0.0102-0.38466,1.35352-0.0387,1.39449L57.67538,35.46822z"/>
<path fill="#FFD700" stroke="#000000" stroke-width="0.3" stroke-linejoin="round" d="M52.3047,42.22036
	c0.78936,2.00229-0.07543,2.954,0.31102,4.03227c0.37196,1.03827,1.9898,3.61143,0.75821,4.72971
	c-0.97852,0.04366,0.1693-1.41891-1.78834-4.12691c-0.90826-1.2685,0.23719-2.07153-0.7197-4.55987
	c-0.08892-0.21273,1.31455-0.39045,1.439-0.07502L52.3047,42.22036z"/>
<path fill="#FFD700" stroke="#000000" stroke-width="0.3" stroke-linejoin="round" d="M53.75231,41.60123
	c0.8808,1.9664,2.18579,2.0606,2.68774,3.09335c0.48344,0.99433,1.18404,3.93036,2.87142,3.89502
	c0.73095-0.63202-1.14503-0.89958-1.70006-4.16231c-0.26625-1.52242-1.66454-1.3201-2.77637-3.74751
	c-0.08997-0.21234-1.22142,0.61187-1.08273,0.92172V41.60123z"/>
<path fill="#FFD700" stroke="#000000" stroke-width="0.3" stroke-linejoin="round" d="M56.98033,38.5158
	c2.02853,0.85466,2.12492,2.1193,3.19028,2.6063c1.02573,0.46904,4.05489,1.14963,4.01739,2.78476
	c-0.65261,0.70796-0.92754-1.1101-4.29392-1.6498c-1.57078-0.25888-1.36115-1.61377-3.86523-2.69257
	c-0.21906-0.0873,0.63212-1.18326,0.95176-1.04869L56.98033,38.5158z"/>
<path fill="#FFD700" stroke="#000000" stroke-width="0.3" stroke-linejoin="round" d="M57.56024,37.04356
	c2.06168,0.77633,3.04874-0.05629,4.15922,0.32433c1.06928,0.36635,3.71529,1.94877,4.87635,0.76165
	c0.05067-0.948-1.46519,0.156-4.24838-1.75648c-1.30378-0.88737-2.13903,0.21807-4.70131-0.72337
	c-0.21901-0.08738-0.41048,1.27166-0.08568,1.39406L57.56024,37.04356z"/>
<path fill="#FFD700" stroke="#000000" stroke-width="0.3" stroke-linejoin="round" d="M52.27085,42.05428
	c0.64492,2.1783,3.64642,8.4418,4.19873,7.90827c0.84061-0.07965-1.94387-6.55475-2.86345-8.42886
	c-0.104-0.20661-1.43441,0.19683-1.33547,0.52067L52.27085,42.05428z"/>
<path fill="#FFD700" stroke="#000000" stroke-width="0.3" stroke-linejoin="round" d="M54.98974,40.57574
	c1.41133,1.80721,6.53962,6.6032,6.85657,5.9126c0.75461-0.36778-4.24987-5.43697-5.80436-6.86449
	c-0.17382-0.15646-1.26503,0.68443-1.05236,0.95203L54.98974,40.57574z"/>
<path fill="#FFD700" stroke="#000000" stroke-width="0.3" stroke-linejoin="round" d="M56.93056,38.26508
	c2.016,1.14855,8.64434,3.68545,8.66544,2.93005c0.55273-0.61882-6.06871-3.45396-8.06757-4.19869
	c-0.22226-0.08035-0.89988,1.10011-0.59795,1.26881L56.93056,38.26508z"/>
<path fill="#FFD700" stroke="#000000" stroke-width="0.3" stroke-linejoin="round" d="M53.75231,41.60123
	c0.8808,1.9664,2.18579,2.0606,2.68774,3.09335c0.48344,0.99433,1.18404,3.93036,2.87142,3.89502
	c0.73095-0.63202-1.14503-0.89958-1.70006-4.16231c-0.26625-1.52242-1.66454-1.3201-2.77637-3.74751
	c-0.08997-0.21234-1.22142,0.61187-1.08273,0.92172V41.60123z"/>
<path fill="#FFD700" stroke="#000000" stroke-width="0.3" stroke-linejoin="round" d="M56.98033,38.5158
	c2.02853,0.85466,2.12492,2.1193,3.19028,2.6063c1.02573,0.46904,4.05489,1.14963,4.01739,2.78476
	c-0.65261,0.70796-0.92754-1.1101-4.29392-1.6498c-1.57078-0.25888-1.36115-1.61377-3.86523-2.69257
	c-0.21906-0.0873,0.63212-1.18326,0.95176-1.04869L56.98033,38.5158z"/>
<path fill="#FFD700" stroke="#000000" stroke-width="0.3" stroke-linejoin="round" d="M57.56024,37.04356
	c2.06168,0.77633,3.04874-0.05629,4.15922,0.32433c1.06928,0.36635,3.71529,1.94877,4.87635,0.76165
	c0.05067-0.948-1.46519,0.156-4.24838-1.75648c-1.30378-0.88737-2.13903,0.21807-4.70131-0.72337
	c-0.21901-0.08738-0.41048,1.27166-0.08568,1.39406L57.56024,37.04356z"/>
<path fill="#FFD700" stroke="#000000" stroke-width="0.3" stroke-linejoin="round" d="M52.27085,42.05428
	c0.64492,2.1783,3.64642,8.4418,4.19873,7.90827c0.84061-0.07965-1.94387-6.55475-2.86345-8.42886
	c-0.104-0.20661-1.43441,0.19683-1.33547,0.52067L52.27085,42.05428z"/>
<path fill="#FFD700" stroke="#000000" stroke-width="0.3" stroke-linejoin="round" d="M54.98974,40.57574
	c1.41133,1.80721,6.53962,6.6032,6.85657,5.9126c0.75461-0.36778-4.24987-5.43697-5.80436-6.86449
	c-0.17382-0.15646-1.26503,0.68443-1.05236,0.95203L54.98974,40.57574z"/>
<path fill="#FFD700" stroke="#000000" stroke-width="0.3" stroke-linejoin="round" d="M56.93056,38.26508
	c2.016,1.14855,8.64434,3.68545,8.66544,2.93005c0.55273-0.61882-6.06871-3.45396-8.06757-4.19869
	c-0.22226-0.08035-0.89988,1.10011-0.59795,1.26881L56.93056,38.26508z"/>
<path fill="#FFD700" stroke="#000000" stroke-width="0.3" stroke-linejoin="round" d="M42.27165,34.1548
	c-2.31889-0.2939-9.44325-0.11925-9.15802,0.58414c-0.25922,0.77898,6.97907,0.88151,9.11932,0.81015
	c0.23699-0.0102,0.38466-1.35352,0.0387-1.39449L42.27165,34.1548z"/>
<path fill="#FFD700" stroke="#000000" stroke-width="0.3" stroke-linejoin="round" d="M47.64499,27.40095
	c-0.78936-2.00229,0.07543-2.954-0.31102-4.03227c-0.37196-1.03827-1.9898-3.61143-0.75821-4.72971
	c0.97852-0.04366-0.16931,1.41891,1.78834,4.12691c0.90826,1.2685-0.23719,2.07153,0.7197,4.55987
	c0.08892,0.21273-1.31455,0.39046-1.439,0.07502L47.64499,27.40095z"/>
<path fill="#FFD700" stroke="#000000" stroke-width="0.3" stroke-linejoin="round" d="M46.19597,28.02054
	c-0.8808-1.9664-2.18578-2.06059-2.68773-3.09334c-0.48344-0.99433-1.18404-3.93036-2.87142-3.89502
	c-0.73095,0.63202,1.14503,0.89958,1.70005,4.16231c0.26625,1.52242,1.66454,1.3201,2.77638,3.74751
	c0.08996,0.21234,1.22142-0.61187,1.08273-0.92172L46.19597,28.02054z"/>
<path fill="#FFD700" stroke="#000000" stroke-width="0.3" stroke-linejoin="round" d="M42.96936,31.10706
	c-2.02853-0.85465-2.12492-2.1193-3.19028-2.6063c-1.02573-0.46904-4.05489-1.14963-4.01739-2.78475
	c0.65261-0.70796,0.92754,1.1101,4.29392,1.6498c1.57078,0.25887,1.36115,1.61377,3.86523,2.69257
	c0.21906,0.0873-0.63212,1.18326-0.95176,1.04868L42.96936,31.10706z"/>
<path fill="#FFD700" stroke="#000000" stroke-width="0.3" stroke-linejoin="round" d="M42.38945,32.57728
	c-2.06168-0.77633-3.04874,0.05629-4.15922-0.32433c-1.06928-0.36635-3.71529-1.94877-4.87635-0.76165
	c-0.05068,0.948,1.46519-0.156,4.24838,1.75648c1.30378,0.88737,2.13903-0.21807,4.70131,0.72337
	c0.21901,0.08738,0.41047-1.27166,0.08568-1.39406L42.38945,32.57728z"/>
<path fill="#FFD700" stroke="#000000" stroke-width="0.3" stroke-linejoin="round" d="M47.6776,27.56999
	c-0.64492-2.1783-3.64642-8.4418-4.19873-7.90827c-0.8406,0.07965,1.94387,6.55475,2.86345,8.42886
	c0.104,0.20661,1.43441-0.19683,1.33547-0.52067L47.6776,27.56999z"/>
<path fill="#FFD700" stroke="#000000" stroke-width="0.3" stroke-linejoin="round" d="M44.95995,29.04603
	c-1.41133-1.80721-6.53963-6.6032-6.85658-5.9126c-0.75461,0.36778,4.24987,5.43697,5.80437,6.86449
	c0.17381,0.15646,1.26502-0.68443,1.05235-0.95202L44.95995,29.04603z"/>
<path fill="#FFD700" stroke="#000000" stroke-width="0.3" stroke-linejoin="round" d="M43.01867,31.35544
	c-2.016-1.14855-8.64434-3.68545-8.66544-2.93005c-0.55273,0.61882,6.06871,3.45396,8.06757,4.19869
	c0.22226,0.08035,0.89988-1.10011,0.59795-1.26881L43.01867,31.35544z"/>
<path fill="#FFD700" stroke="#000000" stroke-width="0.3" stroke-linejoin="round" d="M46.19597,28.02054
	c-0.8808-1.9664-2.18578-2.06059-2.68773-3.09334c-0.48344-0.99433-1.18404-3.93036-2.87142-3.89502
	c-0.73095,0.63202,1.14503,0.89958,1.70005,4.16231c0.26625,1.52242,1.66454,1.3201,2.77638,3.74751
	c0.08996,0.21234,1.22142-0.61187,1.08273-0.92172L46.19597,28.02054z"/>
<path fill="#FFD700" stroke="#000000" stroke-width="0.3" stroke-linejoin="round" d="M42.96936,31.10706
	c-2.02853-0.85465-2.12492-2.1193-3.19028-2.6063c-1.02573-0.46904-4.05489-1.14963-4.01739-2.78475
	c0.65261-0.70796,0.92754,1.1101,4.29392,1.6498c1.57078,0.25887,1.36115,1.61377,3.86523,2.69257
	c0.21906,0.0873-0.63212,1.18326-0.95176,1.04868L42.96936,31.10706z"/>
<path fill="#FFD700" stroke="#000000" stroke-width="0.3" stroke-linejoin="round" d="M42.38945,32.57728
	c-2.06168-0.77633-3.04874,0.05629-4.15922-0.32433c-1.06928-0.36635-3.71529-1.94877-4.87635-0.76165
	c-0.05068,0.948,1.46519-0.156,4.24838,1.75648c1.30378,0.88737,2.13903-0.21807,4.70131,0.72337
	c0.21901,0.08738,0.41047-1.27166,0.08568-1.39406L42.38945,32.57728z"/>
<path fill="#FFD700" stroke="#000000" stroke-width="0.3" stroke-linejoin="round" d="M47.6776,27.56999
	c-0.64492-2.1783-3.64642-8.4418-4.19873-7.90827c-0.8406,0.07965,1.94387,6.55475,2.86345,8.42886
	c0.104,0.20661,1.43441-0.19683,1.33547-0.52067L47.6776,27.56999z"/>
<path fill="#FFD700" stroke="#000000" stroke-width="0.3" stroke-linejoin="round" d="M44.95995,29.04603
	c-1.41133-1.80721-6.53963-6.6032-6.85658-5.9126c-0.75461,0.36778,4.24987,5.43697,5.80437,6.86449
	c0.17381,0.15646,1.26502-0.68443,1.05235-0.95202L44.95995,29.04603z"/>
<path fill="#FFD700" stroke="#000000" stroke-width="0.3" stroke-linejoin="round" d="M43.01867,31.35544
	c-2.016-1.14855-8.64434-3.68545-8.66544-2.93005c-0.55273,0.61882,6.06871,3.45396,8.06757,4.19869
	c0.22226,0.08035,0.89988-1.10011,0.59795-1.26881L43.01867,31.35544z"/>
<path fill="#FFD700" stroke="#000000" stroke-width="0.3" stroke-linejoin="round" d="M50.60159,27.3464
	c0.30329-2.24714,0.12306-9.15109-0.60279-8.87469c-0.80386-0.2512-0.90965,6.76316-0.83601,8.83719
	c0.01052,0.22966,1.39672,0.37276,1.439,0.03751L50.60159,27.3464z"/>
<path fill="#FFD700" stroke="#000000" stroke-width="0.3" stroke-linejoin="round" d="M57.56975,32.55422
	c2.06622-0.76495,3.04831,0.07309,4.16101-0.3014c1.07141-0.36045,3.72672-1.92824,4.88071-0.73475
	c0.04505,0.94825-1.46422-0.16407-4.25866,1.73301c-1.309,0.88016-2.13766-0.22985-4.70545,0.69743
	c-0.21952,0.08617-0.40292-1.27388-0.07741-1.39449L57.56975,32.55422z"/>
<path fill="#FFD700" stroke="#000000" stroke-width="0.3" stroke-linejoin="round" d="M56.93172,31.14148
	c2.02896-0.85363,2.12616-2.11837,3.19177-2.60484c1.02597-0.46852,4.05542-1.14752,4.01896-2.78286
	c-0.65214-0.70841-0.92821,1.10972-4.29475,1.64762c-1.57086,0.25803-1.36211,1.6132-3.86675,2.69074
	c-0.2191,0.08719,0.63134,1.18375,0.95105,1.04934L56.93172,31.14148z"/>
<path fill="#FFD700" stroke="#000000" stroke-width="0.3" stroke-linejoin="round" d="M53.75094,28.01837
	c0.88209-1.96567,2.18719-2.05913,2.68982-3.09147c0.48409-0.99394,1.18658-3.92922,2.87403-3.89295
	c0.73058,0.63235-1.14566,0.89883-1.70277,4.16086c-0.26722,1.52209-1.66546,1.31902-2.77888,3.74551
	c-0.0901,0.21227-1.22109-0.61248-1.0822-0.92221L53.75094,28.01837z"/>
<path fill="#FFD700" stroke="#000000" stroke-width="0.3" stroke-linejoin="round" d="M52.23061,27.4645
	c0.80124-1.99794-0.05791-2.95442,0.33493-4.03056c0.37811-1.03622,2.01121-3.60047,0.78625-4.72553
	c-0.97826-0.04905,0.16089,1.41985-1.81281,4.11705c-0.91578,1.2635,0.2249,2.07284-0.74675,4.55591
	c-0.09018,0.21224,1.31224,0.3977,1.43856,0.08295L52.23061,27.4645z"/>
<path fill="#FFD700" stroke="#000000" stroke-width="0.3" stroke-linejoin="round" d="M57.39417,32.58978
	c2.24795-0.62488,8.71168-3.53321,8.16108-4.06841c-0.08222-0.81456-6.76433,1.88346-8.69836,2.7745
	c-0.21321,0.10077,0.20316,1.38996,0.53735,1.2941L57.39417,32.58978z"/>
<path fill="#FFD700" stroke="#000000" stroke-width="0.3" stroke-linejoin="round" d="M55.87436,29.94685
	c1.86489-1.36782,6.81402-6.33791,6.10141-6.64503c-0.37947-0.73128-5.6105,4.11883-7.0836,5.62537
	c-0.16145,0.16845,0.70618,1.22591,0.98232,1.0198L55.87436,29.94685z"/>
<path fill="#FFD700" stroke="#000000" stroke-width="0.3" stroke-linejoin="round" d="M53.48449,28.07624
	c1.18533-1.95341,3.80345-8.37598,3.02385-8.39643c-0.63865-0.53558-3.56456,5.8803-4.33313,7.81711
	c-0.08292,0.21536,1.13536,0.87195,1.30946,0.5794L53.48449,28.07624z"/>
<path fill="#FFD700" stroke="#000000" stroke-width="0.3" stroke-linejoin="round" d="M56.93172,31.14148
	c2.02896-0.85363,2.12616-2.11837,3.19177-2.60484c1.02597-0.46852,4.05542-1.14752,4.01896-2.78286
	c-0.65214-0.70841-0.92821,1.10972-4.29475,1.64762c-1.57086,0.25803-1.36211,1.6132-3.86675,2.69074
	c-0.2191,0.08719,0.63134,1.18375,0.95105,1.04934L56.93172,31.14148z"/>
<path fill="#FFD700" stroke="#000000" stroke-width="0.3" stroke-linejoin="round" d="M53.75094,28.01837
	c0.88209-1.96567,2.18719-2.05913,2.68982-3.09147c0.48409-0.99394,1.18658-3.92922,2.87403-3.89295
	c0.73058,0.63235-1.14566,0.89883-1.70277,4.16086c-0.26722,1.52209-1.66546,1.31902-2.77888,3.74551
	c-0.0901,0.21227-1.22109-0.61248-1.0822-0.92221L53.75094,28.01837z"/>
<path fill="#FFD700" stroke="#000000" stroke-width="0.3" stroke-linejoin="round" d="M52.23061,27.4645
	c0.80124-1.99794-0.05791-2.95442,0.33493-4.03056c0.37811-1.03622,2.01121-3.60047,0.78625-4.72553
	c-0.97826-0.04905,0.16089,1.41985-1.81281,4.11705c-0.91578,1.2635,0.2249,2.07284-0.74675,4.55591
	c-0.09018,0.21224,1.31224,0.3977,1.43856,0.08295L52.23061,27.4645z"/>
<path fill="#FFD700" stroke="#000000" stroke-width="0.3" stroke-linejoin="round" d="M57.39417,32.58978
	c2.24795-0.62488,8.71168-3.53321,8.16108-4.06841c-0.08222-0.81456-6.76433,1.88346-8.69836,2.7745
	c-0.21321,0.10077,0.20316,1.38996,0.53735,1.2941L57.39417,32.58978z"/>
<path fill="#FFD700" stroke="#000000" stroke-width="0.3" stroke-linejoin="round" d="M55.87436,29.94685
	c1.86489-1.36782,6.81402-6.33791,6.10141-6.64503c-0.37947-0.73128-5.6105,4.11883-7.0836,5.62537
	c-0.16145,0.16845,0.70618,1.22591,0.98232,1.0198L55.87436,29.94685z"/>
<path fill="#FFD700" stroke="#000000" stroke-width="0.3" stroke-linejoin="round" d="M53.48449,28.07624
	c1.18533-1.95341,3.80345-8.37598,3.02385-8.39643c-0.63865-0.53558-3.56456,5.8803-4.33313,7.81711
	c-0.08292,0.21536,1.13536,0.87195,1.30946,0.5794L53.48449,28.07624z"/>
<path fill="none" stroke="#000000" stroke-width="0.3" d="M44.78429,31.59325h-0.62522"/>
<path fill="none" stroke="#000000" stroke-width="0.3" d="M44.62788,31.98262h-0.62522"/>
<path fill="none" stroke="#000000" stroke-width="0.3" d="M44.56067,32.35059h-0.69221"/>
<path fill="none" stroke="#000000" stroke-width="0.3" d="M44.36052,32.69715h-0.69221"/>
<path fill="none" stroke="#000000" stroke-width="0.3" d="M44.31578,33.06512H43.4896"/>
<path fill="none" stroke="#000000" stroke-width="0.3" d="M44.33541,33.43293h-0.91546"/>
<path fill="none" stroke="#000000" stroke-width="0.3" d="M44.20333,33.84402h-0.87082"/>
<path fill="none" stroke="#000000" stroke-width="0.3" d="M44.2515,34.25527h-0.84853"/>
<path fill="none" stroke="#000000" stroke-width="0.3" d="M44.24802,34.64495h-0.87082"/>
<path fill="none" stroke="#000000" stroke-width="0.3" d="M44.47335,35.09948h-1.09413"/>
<path fill="none" stroke="#000000" stroke-width="0.3" d="M44.37756,35.61901H43.4398"/>
<path fill="none" stroke="#000000" stroke-width="0.3" d="M44.3999,35.98682h-0.93776"/>
<path fill="none" stroke="#000000" stroke-width="0.3" d="M44.5563,36.48463h-0.93776"/>
<path fill="none" stroke="#000000" stroke-width="0.3" d="M44.57849,36.91776h-0.93776"/>
<path fill="none" stroke="#000000" stroke-width="0.3" d="M44.84661,37.39385h-0.93776"/>
<path fill="none" stroke="#000000" stroke-width="0.3" d="M45.11474,37.78337h-0.93776"/>
<path fill="none" stroke="#000000" stroke-width="0.3" d="M45.36005,38.23806h-0.93776"/>
<path fill="none" stroke="#000000" stroke-width="0.3" d="M45.65067,38.67087h-0.93776"/>
<path fill="none" stroke="#000000" stroke-width="0.3" d="M45.85177,39.08181h-0.93776"/>
<path fill="none" stroke="#000000" stroke-width="0.3" d="M46.27599,39.58102h-0.93776"/>
<path fill="none" stroke="#000000" stroke-width="0.3" d="M46.46463,40.03493h-0.60293"/>
<path fill="none" stroke="#000000" stroke-width="0.3" d="M44.3999,35.98682h-0.93776"/>
<path fill="none" stroke="#000000" stroke-width="0.3" d="M44.5563,36.48463h-0.93776"/>
<path fill="none" stroke="#000000" stroke-width="0.3" d="M44.57849,36.91776h-0.93776"/>
<path fill="none" stroke="#000000" stroke-width="0.3" d="M44.84661,37.39385h-0.93776"/>
<path fill="none" stroke="#000000" stroke-width="0.3" d="M45.11474,37.78337h-0.93776"/>
<path fill="none" stroke="#000000" stroke-width="0.3" d="M45.36005,38.23806h-0.93776"/>
<path fill="none" stroke="#000000" stroke-width="0.3" d="M45.65067,38.67087h-0.93776"/>
<path fill="none" stroke="#000000" stroke-width="0.3" d="M45.85177,39.08181h-0.93776"/>
<path fill="none" stroke="#000000" stroke-width="0.3" d="M46.27599,39.58102h-0.93776"/>
<path fill="none" stroke="#000000" stroke-width="0.3" d="M46.56182,39.99712h-0.60293"/>
<path fill="#00699D" stroke="#000000" stroke-width="0.3" d="M55.13634,31.49372h0.62522"/>
<path fill="#00699D" stroke="#000000" stroke-width="0.3" d="M55.29259,31.8834h0.62522"/>
<path fill="#00699D" stroke="#000000" stroke-width="0.3" d="M55.35824,32.25121h0.69221"/>
<path fill="#00699D" stroke="#000000" stroke-width="0.3" d="M55.55981,32.59746h0.69221"/>
<path fill="#00699D" stroke="#000000" stroke-width="0.3" d="M55.60516,32.96543h0.82618"/>
<path fill="#00699D" stroke="#000000" stroke-width="0.3" d="M55.58506,33.3334h0.91546"/>
<path fill="#00699D" stroke="#000000" stroke-width="0.3" d="M55.71621,33.74464h0.87082"/>
<path fill="#00699D" stroke="#000000" stroke-width="0.3" d="M55.66804,34.15605h0.84853"/>
<path fill="#00699D" stroke="#000000" stroke-width="0.3" d="M55.67324,34.54558h0.87082"/>
<path fill="#00699D" stroke="#000000" stroke-width="0.3" d="M55.44588,35.00011h1.09413"/>
<path fill="#00699D" stroke="#000000" stroke-width="0.3" d="M55.54214,35.51964h0.93776"/>
<path fill="#00699D" stroke="#000000" stroke-width="0.3" d="M55.51933,35.88745h0.93776"/>
<path fill="#00699D" stroke="#000000" stroke-width="0.3" d="M55.36308,36.38526h0.93776"/>
<path fill="#00699D" stroke="#000000" stroke-width="0.3" d="M55.34042,36.81807h0.93776"/>
<path fill="#00699D" stroke="#000000" stroke-width="0.3" d="M55.07308,37.29432h0.93776"/>
<path fill="#00699D" stroke="#000000" stroke-width="0.3" d="M54.80574,37.68416h0.93776"/>
<path fill="#00699D" stroke="#000000" stroke-width="0.3" d="M54.55871,38.13853h0.93776"/>
<path fill="#00699D" stroke="#000000" stroke-width="0.3" d="M54.26855,38.57243h0.93776"/>
<path fill="#00699D" stroke="#000000" stroke-width="0.3" d="M54.06933,38.98337h0.93776"/>
<path fill="#00699D" stroke="#000000" stroke-width="0.3" d="M53.64324,39.48024H54.581"/>
<path fill="#00699D" stroke="#000000" stroke-width="0.3" d="M53.45428,39.93415h0.60293"/>
<path fill="none" stroke="#000000" stroke-width="0.3" d="M55.51933,35.88745h0.93776"/>
<path fill="none" stroke="#000000" stroke-width="0.3" d="M55.36308,36.38526h0.93776"/>
<path fill="none" stroke="#000000" stroke-width="0.3" d="M55.34042,36.81807h0.93776"/>
<path fill="none" stroke="#000000" stroke-width="0.3" d="M55.07308,37.29432h0.93776"/>
<path fill="none" stroke="#000000" stroke-width="0.3" d="M54.80574,37.68416h0.93776"/>
<path fill="none" stroke="#000000" stroke-width="0.3" d="M54.55871,38.13853h0.93776"/>
<path fill="none" stroke="#000000" stroke-width="0.3" d="M54.26855,38.57243h0.93776"/>
<path fill="none" stroke="#000000" stroke-width="0.3" d="M54.06933,38.98337h0.93776"/>
<path fill="none" stroke="#000000" stroke-width="0.3" d="M53.64324,39.48024H54.581"/>
<path fill="none" stroke="#000000" stroke-width="0.3" d="M53.45428,39.93415h0.60293"/>
<path fill="#F0BF00" stroke="#000000" stroke-width="0.3" stroke-linejoin="round" d="M54.69106,33.17929
	c-1.49359-0.92902-3.46631-0.44431-4.2932,0.06059c1.20876-0.22215,1.2298-0.32313,2.10511-0.34333
	C53.12125,32.91693,54.0313,32.85615,54.69106,33.17929z"/>
<path fill="none" stroke="#000000" stroke-width="0.3" d="M53.81821,33.02766c-0.72942,1.47431-2.00071,1.4945-2.89667-0.08078"/>
<path d="M53.42561,33.49245c-0.22343,0.22656-0.77031,0.36094-1.22109,0.30062s-0.63546-0.29281-0.41203-0.51937
	c0.22344-0.22656,0.77-0.36094,1.22109-0.30062c0.45109,0.06031,0.63546,0.29313,0.41203,0.51953V33.49245z"/>
<path fill="#FFD700" d="M52.35499,33.17699c0.02219,0.055-0.04656,0.12812-0.1539,0.16328
	c-0.10734,0.03515-0.21218,0.01875-0.23438-0.03625c-0.0225-0.05469,0.04641-0.12812,0.15359-0.16312
	s0.2125-0.01875,0.23484,0.03625L52.35499,33.17699z"/>
</svg>
