<?xml version="1.0" encoding="utf-8"?>
<!-- Generator: Adobe Illustrator 18.0.0, SVG Export Plug-In . SVG Version: 6.00 Build 0)  -->
<!DOCTYPE svg PUBLIC "-//W3C//DTD SVG 1.1//EN" "http://www.w3.org/Graphics/SVG/1.1/DTD/svg11.dtd">
<svg version="1.1" id="Layer_1" xmlns="http://www.w3.org/2000/svg" xmlns:xlink="http://www.w3.org/1999/xlink" x="0px" y="0px"
	 width="100px" height="69px" viewBox="0 0 100 69" enable-background="new 0 0 100 69" xml:space="preserve">
<g>
	<rect x="-0.03494" fill="#DE2910" width="100" height="69"/>
	<g>
		<path fill="#FFFFFF" d="M49.04266,33.8512c-1.08289-0.85236-1.91357-2.13464-2.33264-3.66132
			c-0.58972-2.15283-0.25055-4.46558,0.9317-6.3465l0.24536,0.15485c-1.13953,1.81055-1.46649,4.04089-0.89813,6.1153
			c0.4245,1.54504,1.32104,2.87006,2.45465,3.67743c-1.91998-2.09406-1.14966-5.48047,1.81744-6.81604
			c1.95636-0.87988,3.53674-4.50128,2.08954-6.75195c-1.2923-2.01025-0.96429-4.18036,1.29858-5.34332
			C43.77454,14.13525,38.57654,28.50909,49.04266,33.8512z M48.25464,20.9939l0.89838,0.83215l1.13953-0.44922l-0.51227,1.11218
			l0.77795,0.94507l-1.21594-0.14368l-0.65771,1.03265l-0.23828-1.2016l-1.18646-0.30658l1.0694-0.59882L48.25464,20.9939z"/>
		<path fill="#FFFFFF" d="M50.11566,33.27063c0.47595-1.29327,1.43884-2.47961,2.76129-3.34998
			c1.8653-1.22614,4.16962-1.61823,6.32385-1.07501l-0.07147,0.28113c-2.0741-0.52423-4.29626-0.14594-6.09351,1.03558
			c-1.33832,0.88123-2.32166,2.14343-2.73907,3.47113c1.39813-2.47333,4.85699-2.78723,7.04419-0.37799
			c1.44135,1.58868,5.3739,1.97266,7.0672-0.09918c1.51251-1.85028,3.67773-2.20892,5.48309-0.4162
			C67.23871,22.16772,51.9621,21.66602,50.11566,33.27063z M61.14972,30.461l-0.65839,1.03186l-0.23914-1.20081l-1.18536-0.3064
			l1.06915-0.59796l-0.07507-1.22314l0.89996,0.83203l1.13934-0.44861l-0.51379,1.11157l0.7793,0.94495L61.14972,30.461z"/>
		<path fill="#FFFFFF" d="M50.99957,34.11163c1.37701,0.0531,2.80273,0.60223,4.03912,1.59094
			c1.74255,1.39514,2.82751,3.46545,2.97662,5.68213l-0.28949,0.01892c-0.14233-2.13458-1.18878-4.1311-2.86792-5.47528
			c-1.25165-1.00049-2.75586-1.54565-4.14764-1.53241c2.78442,0.56549,4.15173,3.75806,2.53625,6.5827
			c-1.06549,1.86169-0.21545,5.7204,2.27826,6.69061c2.22711,0.86676,3.2373,2.81519,2.09015,5.08612
			C66.85022,46.9657,62.60675,32.2818,50.99957,34.11163z M57.97839,43.90509l-0.65784,1.0332l-0.23926-1.20087l-1.18488-0.30731
			l1.06812-0.59851l-0.07483-1.22198l0.89905,0.83203l1.14008-0.4494l-0.51318,1.1131l0.77869,0.94489L57.97839,43.90509z"/>
		<path fill="#FFFFFF" d="M50.20782,39.54529c-0.78839,2.08832-2.42212,3.75995-4.48425,4.58673l-0.10742-0.26947
			c1.98615-0.79498,3.56152-2.40717,4.32104-4.41943c0.5647-1.49951,0.61829-3.09845,0.17572-4.41791
			c0.32239,2.82275-2.2912,5.1095-5.47675,4.44598c-2.09985-0.43805-5.50702,1.56281-5.65912,4.23419
			c-0.13617,2.38599-1.677,3.94885-4.19135,3.55963c8.36023,6.99414,21.0141-1.57928,15.68695-12.05292
			C50.84772,36.53815,50.76611,38.06384,50.20782,39.54529z M44.21094,45.04449l-0.65808,1.03259l-0.23767-1.20129l-1.18591-0.3064
			l1.06812-0.59863l-0.07385-1.22186l0.89923,0.83093l1.13916-0.44879l-0.51355,1.11212l0.77966,0.94543L44.21094,45.04449z"/>
		<path fill="#FFFFFF" d="M49.26312,35.05127c-1.14514,0.76636-2.6214,1.1601-4.20276,1.08698
			c-2.22974-0.10443-4.3244-1.14166-5.74799-2.84735l0.22308-0.18549c1.36981,1.64331,3.38995,2.64343,5.53845,2.7439
			c1.60071,0.07373,3.138-0.36945,4.25616-1.19812c-2.58496,1.17908-5.56763-0.60004-5.92096-3.83478
			c-0.2323-2.13245-3.18811-4.75458-5.77582-4.07373c-2.31122,0.60785-4.27374-0.37463-4.68054-2.88617
			C28.8844,33.96875,40.9483,43.35394,49.26312,35.05127z M37.86084,31.23016l-0.07507-1.22253l0.89941,0.83087l1.13916-0.44781
			l-0.51233,1.112l0.77881,0.9447l-1.21637-0.14471l-0.6582,1.03363l-0.23907-1.20209l-1.18542-0.30676L37.86084,31.23016z"/>
	</g>
</g>
</svg>
