<?xml version="1.0" encoding="utf-8"?>
<!-- Generator: Adobe Illustrator 18.0.0, SVG Export Plug-In . SVG Version: 6.00 Build 0)  -->
<!DOCTYPE svg PUBLIC "-//W3C//DTD SVG 1.1//EN" "http://www.w3.org/Graphics/SVG/1.1/DTD/svg11.dtd">
<svg version="1.1" id="Layer_1" xmlns="http://www.w3.org/2000/svg" xmlns:xlink="http://www.w3.org/1999/xlink" x="0px" y="0px"
	 width="100px" height="69px" viewBox="0 0 100 69" enable-background="new 0 0 100 69" xml:space="preserve">
<g transform="translate(74.118) scale(.9375)">
	<path fill="#FFFFFF" d="M-52.39248,0H0.941v73.6h-53.33348V0z"/>
	<path fill="#BF0A30" d="M-79.05907,0h26.66674v73.6h-26.66674V0z M0.941,0h26.66659v73.6H0.94115L0.941,0z M-44.41725,35.5354
		l-2.07091,0.70782l9.63629,8.45707c0.72873,2.17353-0.25322,2.81422-0.87889,3.95427l10.4613-1.3279l-0.27235,10.52784
		l2.16675-0.06227l-0.47257-10.4404l10.4716,1.24134c-0.64806-1.36869-1.22485-2.09535-0.62524-4.28374l9.63011-8.01247
		l-1.6852-0.61007c-1.37796-1.06321,0.59535-5.12082,0.89302-7.68153c0,0-5.62298,1.93371-5.99147,0.92188l-1.43199-2.75076
		l-5.11538,5.6193c-0.55884,0.13397-0.79689-0.08833-0.92806-0.5606l2.36329-11.74298l-3.74228,2.10477
		c-0.31328,0.13397-0.62656,0.0184-0.83296-0.3467l-3.59948-7.2225l-3.71136,7.50075
		c-0.27971,0.26882-0.55987,0.29988-0.79233,0.11719l-3.56326-1.99892l2.13907,11.65126
		c-0.17019,0.46227-0.57768,0.59255-1.05702,0.34214l-4.88999-5.55556c-0.63966,1.02493-1.07322,2.69939-1.91869,3.07464
		c-0.84562,0.35141-3.6775-0.71003-5.57558-1.1243c0.64835,2.34003,2.67583,6.22761,1.39268,7.50178L-44.41725,35.5354z"/>
</g>
</svg>
