<?xml version="1.0" encoding="utf-8"?>
<!-- Generator: Adobe Illustrator 18.0.0, SVG Export Plug-In . SVG Version: 6.00 Build 0)  -->
<!DOCTYPE svg PUBLIC "-//W3C//DTD SVG 1.1//EN" "http://www.w3.org/Graphics/SVG/1.1/DTD/svg11.dtd">
<svg version="1.1" id="Layer_1" xmlns="http://www.w3.org/2000/svg" xmlns:xlink="http://www.w3.org/1999/xlink" x="0px" y="0px"
	 width="100px" height="69px" viewBox="0 0 100 69" enable-background="new 0 0 100 69" xml:space="preserve">
<path fill="#000066" d="M0,0h100v69H0V0z"/>
<path fill="#FFFFFF" d="M0,0v4.01781L44.13657,35.9375h5.55551v-4.01781L5.55551,0H0z M49.69207,0v4.01781L5.55551,35.9375H0
	v-4.01781L44.13657,0H49.69207z"/>
<path fill="#FFFFFF" d="M20.70503,0v35.9375h8.28201V0h-8.28216H20.70503z M0,11.97912v11.97912h49.69207V11.97912H0z"/>
<path fill="#CC0000" d="M0,14.375v7.1875h49.69207V14.375H0z M22.36146,0v35.9375h4.96915V0C27.33061,0,22.36146,0,22.36146,0z
	 M0,35.9375l16.56402-11.97926h3.70372L3.70372,35.9375H0z M0,0l16.56402,11.97912h-3.70372L0,2.67849V0z M29.42419,11.97912
	L45.9885,0h3.70358L33.12805,11.97912H29.42419z M49.69222,35.9375L33.12819,23.95824h3.70372l12.86045,9.30062v2.67864H49.69222z"
	/>
<path fill="#FFFFFF" d="M45.09079,56.42518l-6.27512,0.54553l0.86437,6.23961l-4.33938-4.56607l-4.33924,4.56607l0.86451-6.23961
	l-6.27512-0.54553l5.4165-3.21483l-3.48507-5.24615l5.88944,2.23014l1.92913-5.99624l1.92912,5.9961l5.88943-2.23029
	l-3.48479,5.24601 M71.93839,62.1759l-1.51469-2.27901l2.56019,0.96916l0.8372-2.60547l0.83735,2.60561l2.55975-0.96916
	l-1.51469,2.27901l2.35318,1.39696l-2.72621,0.23719l0.37605,2.70969l-1.88542-1.98274l-1.88557,1.98289l0.37605-2.70969
	l-2.72607-0.23719 M71.93841,21.62474l-1.51469-2.2793l2.56019,0.96916l0.8372-2.60504l0.83735,2.60475l2.55975-0.96888
	l-1.51469,2.27916l2.35319,1.39682l-2.72622,0.23719l0.37605,2.70969l-1.88542-1.98274l-1.88557,1.98289l0.37605-2.70969
	l-2.72607-0.23719 M56.73167,38.09849l-1.51469-2.27887l2.5599,0.96917l0.83735-2.60547l0.83735,2.60547l2.5599-0.96917
	l-1.51455,2.27887l2.35319,1.39725l-2.72622,0.23719l0.37591,2.70969l-1.88557-1.98303l-1.88557,1.98303l0.37619-2.70969
	l-2.72607-0.23719L56.73167,38.09849z M85.45926,34.04345l-1.51771-2.27901l2.56191,0.96916l0.83116-2.60547l0.84151,2.60547
	l2.55472-0.96916l-1.51052,2.27901l2.35204,1.39696l-2.72693,0.23719l0.37489,2.70969l-1.88571-1.98275l-1.88557,1.98275
	l0.37518-2.70969l-2.72205-0.23719 M79.90362,45.9908l-1.49026,0.92359l0.41889-1.702l-1.33917-1.13031l1.74871-0.1288
	l0.66197-1.62294l0.66211,1.62294l1.74872,0.12894l-1.33932,1.13031l0.4186,1.702"/>
</svg>
