<?xml version="1.0" encoding="utf-8"?>
<!-- Generator: Adobe Illustrator 18.0.0, SVG Export Plug-In . SVG Version: 6.00 Build 0)  -->
<!DOCTYPE svg PUBLIC "-//W3C//DTD SVG 1.1//EN" "http://www.w3.org/Graphics/SVG/1.1/DTD/svg11.dtd">
<svg version="1.1" id="Layer_1" xmlns="http://www.w3.org/2000/svg" xmlns:xlink="http://www.w3.org/1999/xlink" x="0px" y="0px"
	 width="100px" height="69px" viewBox="0 0 100 69" enable-background="new 0 0 100 69" xml:space="preserve">
<path fill="#DE2110" d="M0,0h99.99999v69H0V0z"/>
<path fill="#08399C" d="M0,0h50.22005v33.33334H0V0z"/>
<g>
	<circle fill="#FFFFFF" cx="25.1004" cy="16.70328" r="6.75339"/>
	<polygon fill="#FFFFFF" points="29.26929,9.69141 30.69849,10.49341 31.79541,5.15863 27.78992,8.77057 	"/>
	<polygon fill="#FFFFFF" points="21.09491,9.59766 22.50031,8.7674 18.49371,5.20782 19.59875,10.39246 	"/>
	<polygon fill="#FFFFFF" points="25.19507,8.55249 26.84412,8.53369 25.13788,3.40094 23.48669,8.4939 	"/>
	<polygon fill="#FFFFFF" points="33.33588,14.98389 33.27423,16.79688 33.29181,18.38123 38.48932,16.65338 	"/>
	<polygon fill="#FFFFFF" points="32.22498,12.70911 33.05072,14.09814 36.68176,10.00952 31.3869,11.13885 	"/>
	<polygon fill="#FFFFFF" points="29.10614,23.80939 27.80463,24.57831 31.88135,28.19873 30.75775,22.93219 	"/>
	<polygon fill="#FFFFFF" points="18.06982,12.54688 18.84894,11.16516 13.64233,10.09479 17.16125,13.99805 	"/>
	<polygon fill="#FFFFFF" points="20.93335,23.71588 19.65753,23.00055 18.57837,28.24841 22.51312,24.69952 	"/>
	<polygon fill="#FFFFFF" points="32.13123,20.86017 31.37024,22.2099 36.73151,23.31238 33.11072,19.29535 	"/>
	<polygon fill="#FFFFFF" points="25.0061,24.85431 23.52942,24.87158 25.23596,30.00623 26.88525,24.91907 	"/>
	<polygon fill="#FFFFFF" points="17.97607,20.69751 17.21997,19.42548 13.69202,23.39703 18.83185,22.30151 	"/>
	<polygon fill="#FFFFFF" points="16.92694,16.60974 16.90991,15.08221 11.88464,16.75287 16.86713,18.36829 	"/>
</g>
</svg>
