<?xml version="1.0" encoding="utf-8"?>
<!-- Generator: Adobe Illustrator 18.0.0, SVG Export Plug-In . SVG Version: 6.00 Build 0)  -->
<!DOCTYPE svg PUBLIC "-//W3C//DTD SVG 1.1//EN" "http://www.w3.org/Graphics/SVG/1.1/DTD/svg11.dtd">
<svg version="1.1" id="Layer_1" xmlns="http://www.w3.org/2000/svg" xmlns:xlink="http://www.w3.org/1999/xlink" x="0px" y="0px"
	 width="100px" height="69px" viewBox="0 0 100 69" enable-background="new 0 0 100 69" xml:space="preserve">
<g>
	<path fill="#FF9933" d="M0,0h100v23H0V0z"/>
	<path fill="#FFFFFF" d="M0,23h100v23H0V23z"/>
	<path fill="#128807" d="M0,46h100v23H0V46z"/>
	<path fill="#000088" d="M50,25.29999c-5.08099,0-9.20001,4.11896-9.20001,9.20001c0,5.08099,4.11902,9.20001,9.20001,9.20001
		s9.20001-4.11902,9.20001-9.20001C59.20001,29.41895,55.08099,25.29999,50,25.29999z M57.26843,31.0575
		c-0.19373,0.09064-0.28577,0.31628-0.20306,0.51593c0.08276,0.19977,0.30743,0.29425,0.50867,0.22119
		c0.073,0.20428,0.13763,0.41187,0.19421,0.62341l-4.72943,0.98193l-1.51392,0.60687
		c-0.02661-0.08215-0.05859-0.16089-0.09741-0.23663l1.49908-0.64117l4.03973-2.65063
		C57.0752,30.66656,57.17474,30.86005,57.26843,31.0575z M54.57526,27.88049c-0.12561,0.17566-0.09241,0.41986,0.08026,0.55231
		c0.17224,0.13214,0.41577,0.1012,0.5531-0.06451c0.16608,0.14117,0.32953,0.28552,0.48358,0.43951
		c0.15399,0.15405,0.29834,0.3175,0.43951,0.48358c-0.16577,0.13733-0.19672,0.38086-0.06458,0.5531
		c0.13251,0.17261,0.37659,0.20581,0.55231,0.0802c0.12378,0.17865,0.23724,0.36438,0.3465,0.5531l-4.31537,2.17316
		l-1.30133,0.97504c-0.04669-0.07196-0.10114-0.13763-0.15845-0.20105l1.28125-1.00665l3.22015-3.61047l-3.61047,3.22015
		l-1.00671,1.28125c-0.06342-0.05731-0.12909-0.11182-0.20105-0.15851l0.97504-1.30133l2.17322-4.31531
		C54.211,27.64331,54.39661,27.75677,54.57526,27.88049z M52.70538,26.92596c-0.07306,0.20117,0.02142,0.4259,0.22119,0.50867
		c0.19971,0.0827,0.42529-0.00934,0.51599-0.20312c0.19745,0.09369,0.39087,0.1933,0.57904,0.30219l-2.65063,4.03967
		l-0.64117,1.49908c-0.07574-0.03888-0.15448-0.0708-0.23663-0.09741l0.60681-1.51392l0.98199-4.72937
		C52.29352,26.78833,52.5011,26.85297,52.70538,26.92596z M48.55536,26.58643c0.03656,0.21167,0.23157,0.35974,0.44641,0.33148
		c0.21466-0.02826,0.36444-0.22125,0.3454-0.43494c0.21594-0.0174,0.43243-0.03296,0.65283-0.03296s0.43689,0.01556,0.65283,0.03296
		c-0.01904,0.21368,0.13074,0.40668,0.34534,0.43494c0.2149,0.02826,0.40991-0.11981,0.44647-0.33148
		c0.21576,0.03912,0.42712,0.08911,0.63647,0.14514l-1.51434,4.58673l-0.23047,1.60803
		c-0.08221-0.01752-0.16809-0.02374-0.25452-0.02814l0.19421-1.61823L50,26.45001l-0.276,4.82996l0.19421,1.61823
		c-0.08643,0.00439-0.1723,0.01062-0.25452,0.02814l-0.23047-1.60803l-1.51434-4.58679
		C48.12823,26.67548,48.3396,26.62555,48.55536,26.58643z M46.55743,27.23151c0.0907,0.19379,0.31628,0.28583,0.51599,0.20312
		c0.19977-0.08276,0.29425-0.3075,0.22119-0.50867c0.20428-0.073,0.41187-0.13763,0.62341-0.19421l0.98199,4.72937l0.60681,1.51392
		c-0.08215,0.02661-0.16089,0.05853-0.23663,0.09741l-0.64117-1.49908l-2.65063-4.03967
		C46.16656,27.4248,46.35999,27.3252,46.55743,27.23151z M43.38055,29.92468c0.17572,0.12561,0.4198,0.09241,0.55225-0.0802
		c0.1322-0.17224,0.10126-0.41577-0.06451-0.5531c0.14124-0.16608,0.28546-0.32953,0.43951-0.48358
		c0.15399-0.15399,0.31757-0.29834,0.48358-0.43951c0.13733,0.16571,0.38086,0.19666,0.5531,0.06451
		c0.17267-0.13251,0.20587-0.37659,0.0802-0.55231c0.17859-0.12366,0.36438-0.23718,0.5531-0.34644l2.17322,4.31531l0.97504,1.30133
		c-0.07196,0.04669-0.13763,0.1012-0.20105,0.15851l-1.00671-1.28125L44.3078,28.8078l3.22015,3.61047l1.28125,1.00665
		c-0.05731,0.06342-0.11176,0.12909-0.15845,0.20105l-1.30133-0.97504l-4.31537-2.17316
		C43.14331,30.28906,43.25684,30.10333,43.38055,29.92468z M42.42596,31.79462c0.20123,0.07306,0.4259-0.02142,0.50867-0.22119
		c0.0827-0.19971-0.00934-0.42535-0.20312-0.51599c0.09369-0.19745,0.1933-0.39087,0.30219-0.57904l4.03973,2.65063l1.49908,0.64117
		c-0.03882,0.07574-0.0708,0.15448-0.09741,0.23663l-1.51392-0.60687l-4.72943-0.98193
		C42.28833,32.20648,42.35297,31.9989,42.42596,31.79462z M42.08643,35.94464c0.21167-0.03656,0.3598-0.23157,0.33148-0.44647
		c-0.02826-0.21466-0.22125-0.36444-0.43494-0.34534c-0.0174-0.21594-0.03296-0.43243-0.03296-0.65283
		s0.01556-0.43689,0.03296-0.65283c0.21368,0.01904,0.40668-0.13074,0.43494-0.3454c0.02832-0.2149-0.11975-0.40979-0.33142-0.44641
		c0.03912-0.2157,0.08905-0.42712,0.14502-0.63647l4.58679,1.51428l1.60809,0.23053
		c-0.01752,0.08228-0.02374,0.16809-0.02814,0.25452L46.78003,34.224L41.95001,34.5l4.83002,0.276l1.61823-0.19421
		c0.00439,0.08643,0.01062,0.1723,0.02814,0.25452l-1.60809,0.23047l-4.58673,1.51434
		C42.17554,36.37177,42.12555,36.1604,42.08643,35.94464z M42.73151,37.94257c0.19379-0.0907,0.28583-0.31628,0.20312-0.51599
		c-0.08276-0.19977-0.30743-0.29425-0.50867-0.22119c-0.073-0.20428-0.13763-0.41187-0.19421-0.62341l4.72943-0.98199
		l1.51392-0.60687c0.02661,0.08215,0.05853,0.16083,0.09741,0.23663l-1.49908,0.64124l-4.03979,2.65063
		C42.92474,38.33344,42.8252,38.13995,42.73151,37.94257z M45.42468,41.11951c0.12567-0.17572,0.09247-0.41986-0.0802-0.55237
		c-0.17224-0.13214-0.41577-0.1012-0.5531,0.06458c-0.16608-0.14124-0.32959-0.28546-0.48358-0.43951
		c-0.15405-0.15399-0.29828-0.3175-0.43951-0.48358c0.16577-0.13733,0.19672-0.38086,0.06451-0.55316
		c-0.13245-0.17261-0.37659-0.20581-0.55231-0.0802c-0.12378-0.17865-0.23724-0.36438-0.3465-0.5531l4.31543-2.17316
		l1.30133-0.97504c0.04669,0.07196,0.1012,0.13763,0.15851,0.20105l-1.28131,1.00671L44.3078,40.1922l3.61047-3.22015
		l1.00671-1.28131c0.06342,0.05731,0.12903,0.11182,0.20105,0.15851L48.151,37.15057l-2.17322,4.31537
		C45.78906,41.35669,45.60333,41.24323,45.42468,41.11951z M47.29462,42.07404c0.07306-0.20123-0.02142-0.42596-0.22119-0.50867
		c-0.19965-0.0827-0.42523,0.00934-0.51593,0.20306c-0.19745-0.09369-0.39093-0.19324-0.5791-0.30212l2.65063-4.03973
		l0.64117-1.49908c0.07574,0.03888,0.15448,0.0708,0.23663,0.09741l-0.60681,1.51392l-0.98199,4.72943
		C47.70648,42.21167,47.4989,42.14703,47.29462,42.07404z M51.44464,42.41357c-0.03656-0.21167-0.23157-0.3598-0.44647-0.33154
		c-0.2146,0.02832-0.36438,0.22144-0.34534,0.435C50.43689,42.53442,50.2204,42.54999,50,42.54999s-0.43689-0.01556-0.65283-0.03296
		c0.01904-0.21356-0.13074-0.40668-0.3454-0.435c-0.21484-0.02826-0.40985,0.11987-0.44641,0.33154
		c-0.21576-0.03912-0.42712-0.08905-0.63647-0.14508l1.51434-4.58679l0.23047-1.60809
		c0.08221,0.01752,0.16809,0.02374,0.25452,0.02814L49.724,37.71997L50,42.54999l0.276-4.83002l-0.19421-1.61823
		c0.08643-0.00439,0.1723-0.01062,0.25452-0.02814l0.23047,1.60809l1.51434,4.58673
		C51.87177,42.32446,51.6604,42.37445,51.44464,42.41357z M53.4425,41.76843c-0.0907-0.19373-0.31628-0.28577-0.51593-0.20306
		c-0.19977,0.0827-0.29425,0.30743-0.22119,0.50867c-0.20428,0.073-0.41187,0.13763-0.62341,0.19421l-0.98199-4.72943
		l-0.60681-1.51392c0.08215-0.02661,0.16089-0.05853,0.23663-0.09741l0.64117,1.49908l2.65063,4.03973
		C53.83344,41.5752,53.63995,41.67474,53.4425,41.76843z M56.61945,39.07526c-0.17572-0.12561-0.4198-0.09241-0.55231,0.0802
		c-0.13214,0.1723-0.1012,0.41583,0.06458,0.55316c-0.14117,0.16608-0.28552,0.32959-0.43951,0.48358
		c-0.15405,0.15405-0.3175,0.29828-0.48358,0.43951c-0.13733-0.16577-0.38086-0.19672-0.5531-0.06458
		c-0.17267,0.13245-0.20587,0.37659-0.08026,0.55231c-0.17865,0.12372-0.36432,0.23718-0.55304,0.34644L51.849,37.15057
		l-0.97504-1.30133c0.07202-0.04669,0.13763-0.1012,0.20105-0.15851l1.00671,1.28131l3.61047,3.22015l-3.22015-3.61047
		l-1.28131-1.00671c0.05731-0.06342,0.11182-0.12909,0.15851-0.20105l1.30133,0.97504l4.31537,2.17316
		C56.85669,38.71088,56.74323,38.89661,56.61945,39.07526z M57.57404,37.20538c-0.20123-0.07306-0.4259,0.02142-0.50867,0.22119
		c-0.0827,0.19965,0.00934,0.42523,0.20306,0.51593c-0.09369,0.19739-0.19324,0.39087-0.30212,0.57904l-4.03973-2.65057
		l-1.49908-0.64124c0.03888-0.07581,0.0708-0.15448,0.09741-0.23663l1.51392,0.60687l4.72943,0.98199
		C57.71167,36.79352,57.64703,37.0011,57.57404,37.20538z M57.91357,35.94464c-0.03912,0.21576-0.08911,0.42712-0.14514,0.63647
		l-4.58673-1.51434l-1.60809-0.23047c0.01752-0.08221,0.02374-0.16809,0.02814-0.25452l1.61823,0.19421l4.83002-0.276
		l-4.83002-0.276l-1.61823,0.19421c-0.00439-0.08643-0.01062-0.17224-0.02814-0.25452l1.60809-0.23053l4.58679-1.51428
		c0.05597,0.20935,0.1059,0.42078,0.14502,0.63647c-0.21167,0.03662-0.35974,0.23151-0.33142,0.44641
		c0.02826,0.21466,0.22125,0.36444,0.43494,0.3454c0.0174,0.21594,0.03296,0.43243,0.03296,0.65283
		s-0.01556,0.43689-0.03296,0.65283c-0.21368-0.0191-0.40668,0.13068-0.43494,0.34534
		C57.55377,35.71307,57.7019,35.90808,57.91357,35.94464z"/>
</g>
</svg>
