<?xml version="1.0" encoding="utf-8"?>
<!-- Generator: Adobe Illustrator 18.0.0, SVG Export Plug-In . SVG Version: 6.00 Build 0)  -->
<!DOCTYPE svg PUBLIC "-//W3C//DTD SVG 1.1//EN" "http://www.w3.org/Graphics/SVG/1.1/DTD/svg11.dtd">
<svg version="1.1"
	 id="Layer_1" xmlns:cc="http://creativecommons.org/ns#" xmlns:sodipodi="http://sodipodi.sourceforge.net/DTD/sodipodi-0.dtd" xmlns:svg="http://www.w3.org/2000/svg" xmlns:rdf="http://www.w3.org/1999/02/22-rdf-syntax-ns#" xmlns:dc="http://purl.org/dc/elements/1.1/"
	 xmlns="http://www.w3.org/2000/svg" xmlns:xlink="http://www.w3.org/1999/xlink" x="0px" y="0px" width="100px" height="69px"
	 viewBox="0 0 100 69" enable-background="new 0 0 100 69" xml:space="preserve">
<g>
	<polygon fill="#000066" points="0,46.00002 0,51.76529 11.56158,46.00002 	"/>
	<polygon fill="#000066" points="61.62427,47.96441 61.62427,69 100,69 100,67.10087 	"/>
	<polygon fill="#000066" points="0,17.23477 0,22.99998 11.56134,22.99998 	"/>
	<polygon fill="#000066" points="100,22.99998 100,17.32778 88.62512,22.99998 	"/>
	<polygon fill="#000066" points="100,51.67259 100,46.00002 88.62445,46.00002 	"/>
	<polygon fill="#000066" points="100,1.89932 100,0 61.62427,0 61.62427,21.03577 	"/>
	<polygon fill="#000066" points="0,67.19376 0,69 38.56244,69 38.56244,47.96423 	"/>
	<polygon fill="#000066" points="38.56244,0 0,0 0,1.80624 38.56244,21.03596 	"/>
	<polygon fill="#FFFFFF" points="43.17493,0 38.56244,0 38.56244,21.03596 0,1.80624 0,9.52038 27.03156,22.99998 
		16.71826,22.99998 0,14.66337 0,17.23477 11.56134,22.99998 0,22.99998 0,27.59999 43.17493,27.59999 	"/>
	<polygon fill="#FFFFFF" points="100,67.10087 100,59.38648 73.15515,46.00002 83.46838,46.00002 100,54.24368 100,51.67259 
		88.62445,46.00002 100,46.00002 100,41.40001 57.01172,41.40001 57.01172,69 61.62427,69 61.62427,47.96441 	"/>
	<polygon fill="#FFFFFF" points="0,41.40001 0,46.00002 11.56158,46.00002 0,51.76529 0,59.47956 27.03156,46.00002 
		37.34485,46.00002 0,64.62241 0,67.19376 38.56244,47.96423 38.56244,69 43.17493,69 43.17493,41.40001 	"/>
	<polygon fill="#FFFFFF" points="100,27.59999 100,22.99998 88.62512,22.99998 100,17.32778 100,9.61352 73.15515,22.99998 
		62.84186,22.99998 100,4.47066 100,1.89932 61.62427,21.03577 61.62427,0 57.01172,0 57.01172,27.59999 	"/>
	<polygon fill="#CC0000" points="100,41.40001 100,27.59999 57.01172,27.59999 57.01172,0 43.17493,0 43.17493,27.59999 0,27.59999 
		0,41.40001 43.17493,41.40001 43.17493,69 57.01172,69 57.01172,41.40001 	"/>
	<polygon fill="#CC0000" points="27.03156,46.00002 0,59.47956 0,64.62241 37.34485,46.00002 	"/>
	<polygon fill="#CC0000" points="27.03156,22.99998 0,9.52038 0,14.66337 16.71826,22.99998 	"/>
	<polygon fill="#CC0000" points="73.15515,22.99998 100,9.61352 100,4.47066 62.84186,22.99998 	"/>
	<polygon fill="#CC0000" points="73.15515,46.00002 100,59.38648 100,54.24368 83.46838,46.00002 	"/>
</g>
</svg>
