<?xml version="1.0" encoding="utf-8"?>
<!-- Generator: Adobe Illustrator 18.0.0, SVG Export Plug-In . SVG Version: 6.00 Build 0)  -->
<!DOCTYPE svg PUBLIC "-//W3C//DTD SVG 1.1//EN" "http://www.w3.org/Graphics/SVG/1.1/DTD/svg11.dtd">
<svg version="1.1" id="Layer_1" xmlns="http://www.w3.org/2000/svg" xmlns:xlink="http://www.w3.org/1999/xlink" x="0px" y="0px"
	 width="100px" height="69px" viewBox="0 0 100 69" enable-background="new 0 0 100 69" xml:space="preserve">
<g>
	<path fill="#FFFFFF" d="M0,0h100v69H0V0z"/>
	<path fill="#0B7226" d="M0,0h33.48537v69H0V0z"/>
	<path fill="#BC0000" d="M66.70635,0H100v69H66.7062L66.70635,0z"/>
</g>
<path fill="#9C4314" d="M33.39702,37.6407c0.01203-0.01562,0.54189-0.94346,0.47907-0.79393
	c0.24407,0.18704,0.68986,0.00985,0.36642-0.41095c0.07875-0.17016,0.17813-0.29985,0.25673-0.47001
	c0.17782-0.33313-0.20297-0.47657-0.3536-0.24626c-0.09219,0.17626-0.1811,0.28126-0.27313,0.45767
	c-0.47985-0.22782-0.51142,0.30782-0.28188,0.40157c-0.10188,0.14407-0.27532,0.38173-0.37704,0.52595
	C33.27452,37.28335,33.33593,37.46195,33.39702,37.6407z"/>
<path fill="#9C4314" d="M33.33405,37.43414c-0.01578-0.01172-0.95096-0.52845-0.80064-0.46782
	c0.1836-0.24673,0-0.68986-0.41595-0.36048c-0.17125-0.07641-0.30251-0.17391-0.47376-0.25016
	c-0.33548-0.17297-0.47345,0.20969-0.24126,0.35704c0.17782,0.08969,0.28376,0.17704,0.46157,0.26672
	c-0.22094,0.48283,0.31516,0.50689,0.40548,0.2761c0.14563,0.09985,0.71002,0.42689,0.85565,0.52658
	C33.3028,37.71867,33.15639,37.49773,33.33405,37.43414z M36.71648,43.10318c0.00313-0.01937,0.02719-1.08752,0.04313-0.92627
	c0.3036,0.04828,0.61111-0.31985,0.12641-0.53579c-0.01188-0.18703,0.01375-0.34845,0.00187-0.53564
	c-0.00219-0.37751-0.40548-0.32235-0.42813-0.04813c0.00297,0.19907-0.02531,0.3336-0.02235,0.53267
	c-0.53032,0.02813-0.30297,0.51423-0.0564,0.4872c-0.02094,0.17532-0.06031,0.46689-0.08125,0.6422
	C36.29975,42.71942,36.71648,43.10318,36.71648,43.10318z"/>
<path fill="#9C4314" d="M36.56257,42.95084c-0.01937-0.00282-1.08768-0.01172-0.92659-0.03
	c0.04375-0.30438-0.3286-0.60658-0.53751-0.11876c-0.18704,0.01438-0.34876-0.00891-0.53579,0.00563
	c-0.37735,0.00766-0.31641,0.41001-0.04203,0.42892c0.19907-0.00594,0.33392,0.02031,0.53283,0.01453
	c0.03594,0.53001,0.51876,0.29563,0.48814,0.04969l0.8994,0.09406C36.56694,43.25428,36.43678,43.09146,36.56257,42.95084z"/>
<path fill="#42B2F3" stroke="#000000" stroke-width="0.27175" d="M47.61659,46.61155c0,0,0.36641,0.4947,0.53126,0.51298
	c0.51298,0.03656,4.58012,0,4.58012,0c0-0.00625,0.14656-0.08547,0.14656-0.09156c0.13438-0.1711,0.12219-0.26876,0.25657-0.43986
	c0.21376-0.2136,0.51907-0.28079,0.73283-0.49454c0.91596-0.21985,1.74036-0.4397,2.65648-0.58627
	c-0.07328-0.54345-0.62283-0.42751-0.91596-0.64127c-0.09156-0.08547-0.07344-0.17094-0.01844-0.25641l2.03365-0.9344v-0.21985
	c-1.44129,0.17094-2.77257,0.45189-4.3237,0.51298l-5.29467,2.18006l-0.3847,0.45798V46.61155z"/>
<path fill="#008D00" stroke="#286726" stroke-width="0.29538" d="M33.05717,37.12788
	c-0.27485-0.97096-0.71877-1.82192-1.7552-2.07349c-0.19438-0.04406-0.33235-0.59908-0.00859-0.57314
	c0.18329,0.07328,0.00375-0.03484,0.18688,0.03844c0.18141,0.06484,0.46376-0.07813,0.34719-0.38689
	c0-0.03672-0.34579-0.65064-0.34579-0.66892c-0.06484-0.07031,0.05547-0.46392,0.36642-0.25657
	c0.14657,0.09625,0.29313,0.32188,0.50439,0.36642c0.07781-0.01297,0.12922-0.25423,0.11625-0.4411
	c0-0.01828,0.01828-0.63314,0.01828-0.63314c-0.07359-0.37048,0.25423-0.5597,0.51736-0.28235
	c0.01844,0.09156-0.00203,0.0925,0.01625,0.18407c0.06031,0.12266,0.13359,0.14172,0.21969,0.01828l0.34813-0.34813
	c0.20673-0.07672,0.33579-0.1536,0.34813,0.27501c0,0-0.28516,0.35735-0.42001,0.48689
	c-0.07031,0.1036-0.2225,0.24454,0.04203,0.32219c0.01828,0,0.37798,0.05188,0.37798,0.05188
	c0.2461,0.10235,0.27204,0.37313,0.09063,0.39767c0,0-0.19188,0.22391-0.52861,0.41064
	c-0.1036,0.08313-0.18907,0.18328-0.09829,0.29751c0.19438,0.07563,0.13251,0.00312,0.46392,0.00312
	c0.27969-0.06469,0.25376,0.62017-0.25157,0.57376c-0.1511,0.03609-0.35064,0.0211-0.43251,0.26282
	c-0.03672,0.18813-0.04578,0.54955-0.04578,0.64111c-0.03125,0.43595,0.03281,1.04096,0.03281,1.05925
	C33.20374,37.1646,33.09373,37.05475,33.05717,37.12788z M36.05568,42.71505c-0.03563-0.04563-0.95377-1.05159-2.01411-0.93862
	c-0.19797,0.02391-0.51532-0.45189-0.20156-0.53689c0.19704,0.00719,0.04359-0.02094,0.24063-0.01375
	c0.16672-0.11703-0.13469-0.47673-0.27079-0.35189c-0.01234-0.03437-0.3636,0.07531-0.51251,0.045
	c-0.46079-0.04422-0.66205-0.55908-0.32548-0.75439c0.20938,0.08,0.60517,0.0875,0.81924,0.05781
	c0.21141-0.06437,0.11344-0.25688-0.09141-0.28563c-0.29157-0.04313-1.46801-0.32969-1.36409-0.47251
	c-0.19438-0.32391-0.00156-0.57361,0.33985-0.40157c0.28173,0.17078,0.31454,0.075,0.24594-0.0525
	c-0.08344-0.24219-0.16375-0.18422-0.17594-0.39438c-0.02078-0.13548,0.02312-0.25782,0.22297-0.17282
	c0.08438-0.07094,0.22298,0.43626,0.74689,0.24392c0.09687,0.0811,0.17922-0.54876,0.54267-0.45283
	c0.27251,0.08438,0.08641,0.36751,0.13953,0.76752c0.04375,0.26345,0.30688,0.20298,0.34298,0.0661
	c-0.05688-0.60517,0.5347-0.6158,0.60236-0.41126c0.05625,0.14938,0.10672,0.55658,0.03516,0.9394
	c-0.03891,0.19454-0.00797,0.58064,0.11594,0.65783c0.20844,0.00531,0.07391-0.04188,0.21719-0.25751
	c0.24141-0.15532,0.61673,0.4072,0.17751,0.6897c-0.46345,0.1,0.2625,1.86536,0.32376,1.96411
	C36.14522,42.72208,36.06553,42.63364,36.05568,42.71505z"/>
<path fill="#9C4314" d="M41.74691,47.43626c0-0.01969-0.14376-1.07831-0.1025-0.92143c0.30751,0,0.55345-0.41173,0.04094-0.54908
	c-0.04094-0.18282-0.0411-0.34626-0.08204-0.52923c-0.06141-0.37251-0.4511-0.255-0.43048,0.01953
	c0.03406,0.1961,0.02734,0.33329,0.06141,0.52939c-0.51939,0.11094-0.21875,0.55548,0.02063,0.49017
	c0.00672,0.17641,0.0136,0.47048,0.02031,0.64689L41.74691,47.43626z"/>
<path fill="#9C4314" d="M41.7277,47.31173c-0.01953,0.00032-1.07612,0.15891-0.91986,0.11563
	c-0.00438-0.30751-0.41954-0.54767-0.54955-0.03313c-0.18235,0.04344-0.34579,0.04578-0.52814,0.08937
	c-0.37157,0.06672-0.24844,0.4547,0.02562,0.43016c0.19563-0.03687,0.33298-0.03203,0.52861-0.06891
	c0.11828,0.51767,0.55845,0.21079,0.4897-0.0275l0.90315-0.04797c0.10234-0.1586-0.05172-0.29891,0.05062-0.45766L41.7277,47.31173z
	"/>
<path fill="#33B1E9" stroke="#000000" stroke-width="0.27175" d="M41.36737,41.52252c2.586,1.52644,3.25055,1.30488,3.14258,0.62861
	c0.12391,0,0.15063,0.10781,0.51783-0.16251c-0.05125,1.00003,1.03768,1.57473,1.70161,1.45426
	c0.59892,0.0386,0.52173,0.8308,0.52173,0.8308c0.03641,0.81064-0.23625,1.13831-0.2,1.94896
	c-0.00891,0-0.01812-0.09672-0.02719-0.09672c-0.7369-0.17516-2.1888-0.19579-2.73257-0.31313
	c2.4924-1.70051-1.91692-1.74691-2.31131-1.80489c-0.29782-0.03875-0.08532-0.32845,0.08859-0.40579
	c1.37191-0.27047-1.28956-1.56973-1.22034-1.72426c-0.16251-0.09672,0.01141-0.17391,0.01141-0.17391
	c0.18219-0.11844,0.32563-0.06297,0.50782-0.18126L41.36737,41.52252z"/>
<path fill="#983D25" stroke="#000000" stroke-width="0.27175" d="M47.82472,42.81599
	c-0.44719-0.00103-0.81055,0.36064-0.81158,0.80783c0,0.00125,0,0.0025,0,0.00375c-0.13531,0.6183-0.1161,1.48785,0,2.31865
	c-0.00103,0.44719,0.36064,0.81055,0.80783,0.81158c0.0012,0,0.0024,0,0.0036,0c1.79067,0.19313,3.71634,0.13516,5.37169,0
	c0.44719,0.00095,0.81048-0.3608,0.81143-0.80799c0-0.0012,0-0.0024,0-0.0036c0.2125-0.73424,0.15469-1.50707,0-2.31865
	c0.00103-0.44719-0.36064-0.81055-0.80783-0.81158c-0.0012,0-0.0024,0-0.0036,0c-1.79067-0.07719-3.61978-0.17391-5.37169,0
	H47.82472z"/>
<path fill="#268728" stroke="#000003" stroke-width="0.27175" stroke-linejoin="round" d="M41.7777,20.74325l-1.22565,1.06143
	c-0.50345,0.22251-1.05065,0.4997-0.65658,1.6852c-0.22985,1.52113,0.9958,1.76176,2.06818,1.44441
	c0.17876-0.39376,0.23547-0.6658,0.41423-1.05971c-0.47423-0.07297-0.72783,0.09313-1.15831,0.06406
	c-0.29548-0.0475-0.31736-0.27001-0.20782-0.41595c0.46313-0.22969,0.88252-0.4486,1.34582-0.67845
	c-0.01094-0.06922-0.02188-0.01813-0.03281-0.0875c-0.38298,0.19688-0.65658,0.2625-1.06143,0.42673
	c-0.3211,0.11313-0.4122-0.29907-0.28454-0.48158c0,0,0.83158-1.19268,0.83158-1.20362
	c0.06969-0.25079,0.02141-0.67314-0.03281-0.75502L41.7777,20.74325z"/>
<path fill="#FFFFFF" stroke="#000000" stroke-width="0.27175" d="M45.20309,41.59705c0,0.35468-0.28753,0.6422-0.6422,0.6422
	c-0.35468,0-0.6422-0.28753-0.6422-0.6422l0,0c0-0.35468,0.28753-0.6422,0.6422-0.6422
	C44.91557,40.95485,45.20309,41.24237,45.20309,41.59705z"/>
<path fill="#FFFFFF" stroke="#000000" stroke-width="0.27175" d="M42.1577,44.01899c0,0.3344-0.27108,0.60548-0.60548,0.60548
	s-0.60548-0.27108-0.60548-0.60548c0-0.3344,0.27108-0.60548,0.60548-0.60548S42.1577,43.68459,42.1577,44.01899z"/>
<path fill="#FFFFFF" stroke="#000000" stroke-width="0.27175" d="M57.2023,45.37527c0,0.3344-0.27108,0.60548-0.60548,0.60548
	s-0.60548-0.27108-0.60548-0.60548s0.27108-0.60548,0.60548-0.60548S57.2023,45.04087,57.2023,45.37527z"/>
<path fill="#BA4600" stroke="#000000" stroke-width="0.27175" stroke-linejoin="round" d="M41.83473,21.55327
	c0.01453,0.36407,0.02438,0.82127,0.02438,0.96049c-0.01547-0.34048-0.13469-0.61314-0.17891-0.74705
	C41.73332,21.67921,41.81926,21.55327,41.83473,21.55327z"/>
<path fill="#973100" stroke="#000000" stroke-width="0.29538" d="M47.77144,46.10935c0,0.3344-0.27108,0.60548-0.60548,0.60548
	s-0.60548-0.27108-0.60548-0.60548s0.27108-0.60548,0.60548-0.60548S47.77144,45.77495,47.77144,46.10935z M54.15676,46.10935
	c0.00539,0.33435-0.26129,0.60978-0.59565,0.61516c-0.33435,0.00539-0.60978-0.26128-0.61517-0.59564
	c-0.0001-0.00651-0.0001-0.01301,0-0.01952c0-0.3344,0.27108-0.60548,0.60548-0.60548s0.60548,0.27108,0.60548,0.60548H54.15676z
	 M54.15676,43.17365c0.00539,0.33436-0.26129,0.60978-0.59565,0.61517c-0.33435,0.00539-0.60978-0.26128-0.61517-0.59564
	c-0.0001-0.00651-0.0001-0.01302,0-0.01952c0-0.3344,0.27108-0.60548,0.60548-0.60548s0.60548,0.27108,0.60548,0.60548H54.15676z
	 M47.808,43.17365c0,0.3344-0.27108,0.60548-0.60548,0.60548s-0.60548-0.27108-0.60548-0.60548s0.27108-0.60548,0.60548-0.60548
	S47.808,42.83925,47.808,43.17365z"/>
<path fill="#008D00" stroke="#286726" stroke-width="0.27175" d="M41.8377,47.76596
	c-0.03578-0.04562-0.30766-0.81643-1.84442-0.85002c-0.21626-0.0125-0.35329,0.04953-0.79111,0.01937
	c-0.25375,0.02078-0.15438-0.28157-0.05375-0.39032c0.16656-0.11703-0.59377-0.06-0.85518-0.02906
	c-0.2636-0.01516-0.44095-0.06-0.5897-0.09016c-0.46095-0.04422-0.73064-0.36782-0.39376-0.56314
	c0.14094-0.1386,0.71439,0.01907,0.92815-0.01047c0.21172-0.06437,0.18203-0.42095-0.02297-0.4497
	c-0.29157-0.04313-1.56348-0.13844-1.45957-0.28126c-0.19453-0.32391-0.13813-0.49157,0.3672-0.42891
	c0.28157,0.17094,0.27345-0.04797,0.20485-0.17547c-0.08344-0.24219-0.54626-0.2797-0.55861-0.48986
	c-0.07531-0.50439,0.25563-0.5722,0.45533-0.48705c0.08438-0.07109-0.37814-0.46564,0.14563-0.65783
	c0.13016-0.04078,0.39782-0.00907,0.48814,0.46923c0.27251,0.08438,0.08422-0.31376,0.45376-0.47564
	c0.31688-0.13282-0.0211,1.41894,0.35673,1.40504c0.32548,0.1325,0.26141-0.84815,0.53392-0.65736
	c0.58908-0.1511,0.30407,1.88208,0.56033,1.75942c0.42564,0.37219,0.47017-0.3347,0.59408-0.25782
	c0.20844,0.00563,0.34719,0.01297,0.23094,0.48048c-0.08656,0.36376,0.04297,0.44814,0.10907,0.59408
	c0.39798,0.87721,0.99533,0.86893,1.19471,1.27269C41.95552,48.0691,41.84754,47.68456,41.8377,47.76596z"/>
<path fill="#009400" stroke="#000000" stroke-width="0.29538" d="M49.19725,49.11506
	c-0.73486,0.60361-1.49817,0.99455-1.7777,1.62285c0.33485-0.045,0.46423-0.10094,0.71408-0.06937
	c0.27063-0.60548,1.12159-0.92878,1.62395-1.41832l-0.56048-0.13516H49.19725z M51.16168,49.17943
	c0.66439,0.61377,1.48801,0.96456,1.77755,1.61301c-0.33485-0.045-0.47454-0.09078-0.67408-0.03922
	c-0.27063-0.60548-1.16159-0.95893-1.66394-1.44847C50.78809,49.25959,50.9748,49.22459,51.16168,49.17943z"/>
<path fill="#FFFFFF" stroke="#000000" stroke-width="0.27175" d="M50.66073,49.30396c0.80502,0.48314,1.12628,0.8308,1.62223,1.4491
	c-0.23829,0.01438-0.57251,0.1225-0.69486,0.19329c-0.59908-0.77924-1.06284-1.05628-1.56504-1.54567
	c0.18673-0.04515,0.45095-0.05156,0.63752-0.09672H50.66073z"/>
<path fill="#FFBA00" stroke="#000000" stroke-width="0.27175" d="M43.05945,23.14565
	c-0.32251,0.08875-0.46173,0.36063-0.4911,0.61423c-1.18816,0.83221-0.32454,2.47053,0.77736,2.13021
	c-0.81533-1.22081,0-1.91052,0.90674-1.48254c0.27485,0.20157,0.46642,0.62189,0.4922,0.59595
	c0.17266-0.37407,0.85518-0.6997,0.85518-0.6997s0.54986,0.07391,0.64893-0.28172c0.06266-0.2275,0.56877-1.16909,0.56877-1.16909
	l-1.76176-0.36267l-1.21769-0.02594l-0.64783,0.28501c-0.08625,0.13813-0.04438,0.25797-0.13078,0.3961L43.05945,23.14565z"/>
<path fill="#D40000" stroke="#000000" stroke-width="0.27175" d="M50.0029,49.34349
	c0.80517,0.48314,1.17425,0.93549,1.67035,1.55379c-0.21829,0.06438-0.29219,0.42345-0.41439,0.49439
	c-0.38657-0.7794-1.02565-1.44347-1.70192-2.10693C49.74368,49.23958,49.81618,49.38849,50.0029,49.34349z"/>
<path fill="#FFFFFF" stroke="#000000" stroke-width="0.27175" d="M49.69977,49.24974
	c-0.80517,0.48314-1.08628,0.79065-1.58223,1.4091c0.23829,0.01438,0.53236,0.16251,0.65471,0.23329
	c0.59908-0.77924,1.06268-1.05628,1.56504-1.54566c-0.18673-0.04516-0.45095-0.05156-0.63752-0.09657V49.24974z"/>
<path fill="#D40000" stroke="#000000" stroke-width="0.27175" d="M50.35604,49.28787
	c-0.80518,0.48314-1.14425,0.96534-1.6402,1.58364c0.39907,0.28594,0.30188,0.30329,0.38407,0.46454
	c0.38657-0.77924,1.23675-1.42332,1.91302-2.08661c-0.18672-0.04516-0.47033,0.08375-0.65704,0.03859L50.35604,49.28787z"/>
<path fill="#973000" stroke="#000000" stroke-width="0.27175" d="M41.32511,41.81931
	c-0.09652,0.34949-0.63862,0.48135-1.21083,0.29441c-0.57221-0.18694-0.95777-0.62187-0.86124-0.97136
	c0.09653-0.34949,0.63863-0.48136,1.21083-0.29441C41.03608,41.03489,41.42164,41.46981,41.32511,41.81931z"/>
<path fill="#008D2B" stroke="#005E00" stroke-width="0.27175" d="M49.04788,48.27425
	c-0.58048,0.41704-1.40113,0.97409-1.98146,1.39113c-0.11922,0.10172,0.40236,0.20844,0.59345,0.115
	c0.61252-0.42064,0.93487-0.69611,1.54754-1.11675l0.35032-0.19547C49.30773,48.45019,49.29789,48.29206,49.04788,48.27425z"/>
<path fill="#973000" stroke="#000000" stroke-width="0.27175" d="M44.86001,45.60342
	c0.12831,0.28702-0.16148,0.67437-0.64734,0.86511c-0.48586,0.19074-0.98375,0.11262-1.11206-0.1744
	c-0.12831-0.28702,0.16148-0.67437,0.64734-0.86511C44.23381,45.23827,44.73169,45.31639,44.86001,45.60342z"/>
<path fill="#008D00" stroke="#000000" stroke-width="0.27175" d="M54.9674,41.84784c0.03032-1.59254,1.4266-0.19829,1.97474-0.8544
	c1.28831-1.51832,1.39878-1.63395,2.53694-1.46925c3.05039,1.19878-0.1336,3.97072-3.25134,2.7085
	c-0.3422-0.18828-0.91815-0.19688-1.26035-0.38501L54.9674,41.84784z"/>
<g>
	<path fill="#6D390B" d="M66.47081,36.60021c-0.04063,0.17813-0.24876,0.27251-0.46485,0.2111
		c-0.2161-0.06141-0.35798-0.25532-0.3172-0.43329c0.04078-0.17797,0.24876-0.27251,0.4647-0.2111s0.35798,0.25532,0.3172,0.43329
		H66.47081z"/>
	<path fill="#6D390B" d="M66.368,36.51942l0.74221,0.64376l-0.19547,0.22532l-0.74221-0.64377L66.368,36.51942z"/>
</g>
<path fill="#6D390B" d="M61.86554,38.87699l0.16203,0.22704l0.55986-0.48783l-0.16204-0.22704L61.86554,38.87699z"/>
<path fill="none" stroke="#000000" stroke-width="0.29538" d="M47.82472,42.79552c0.94674,0.28985,1.64223,3.72931,2.56975,4.03838
	 M48.73287,42.77646c0.9469,0.28985,1.62301,3.72931,2.55053,4.03838 M49.62196,42.73849
	c0.9469,0.28985,1.64254,3.74853,2.56991,4.05745"/>
<path fill="#973000" stroke="#000000" stroke-width="0.27175" d="M58.69426,43.20836
	c0.12831,0.28702-0.16148,0.67437-0.64734,0.86511c-0.48586,0.19074-0.98375,0.11261-1.11206-0.17441
	s0.16148-0.67437,0.64734-0.86511C58.06806,42.84321,58.56594,42.92134,58.69426,43.20836z"/>
<path fill="#DC0000" stroke="#000000" stroke-width="0.27175" d="M62.31087,39.66653
	c0.04735,0.18359-0.03484,0.42189-0.35782,0.50533c-0.32313,0.08344-0.62658-0.0425-0.67392-0.2261
	c-0.0475-0.18375,0.13969-0.44767,0.46283-0.53126c0.32298-0.08344,0.52142,0.06844,0.56877,0.25204L62.31087,39.66653z"/>
<path fill="#008D00" stroke="#286026" stroke-width="0.27175" d="M48.0927,48.4691c-0.47908,0.09703-1.57098,0.33376-2.04693,1.288
	c-0.08641,0.17969-0.80471,0.31876-0.70752,0.00891c0.11235-0.16235,0.15235-0.17641,0.26469-0.3386
	c-0.00875-0.20344-0.47423-0.14328-0.4422,0.0386c-0.03578-0.00813-0.26094,0.03547-0.36657,0.14453
	c-0.28547,0.36454-0.77283,0.34829-0.75596-0.04063c0.18016-0.13313,0.27142-0.2611,0.36173-0.4572
	c0.05969-0.21297-0.35672-0.28907-0.49142-0.13203c-0.28501,0.14922-0.46392,0.36282-0.80315,0.52814
	c-0.37767,0.13594-0.74064-0.10625-0.41173-0.30094c0.29579-0.14532,0.04938-0.48126-0.095-0.49204
	c-0.24907-0.06016-1.26925,0.11203-1.45301,0.00922c-0.14376-0.01891-0.40626-0.39688-0.09844-0.46423
	c0.2786-0.09094,0.74392,0.10204,0.86409-0.44283c0.12047-0.91737,1.57629,0.46938,1.33988,0.08641
	c-0.53329-0.78861,0.37454-0.97393,0.64845-0.43688c0.11188,0.2425,0.66611,0.60205,0.82689,0.53439
	c0.3022,0.0336-0.56064-0.76377,0.12438-0.89377c0.15625,0.03313,0.43501,0.045,0.6272,0.31157
	c0.14297,0.1375,0.17344,0.70424,0.70815,0.75127c0.11687-0.1725,0.00468-0.08469-0.09969-0.32172
	c-0.00094-0.28704,0.47377-0.2636,0.67658,0.22219c0.20094,0.37094,1.2616,0.11906,2.23209,0.14125
	c0.31095-0.05078,0.81127,0.22251-0.90268,0.25626L48.0927,48.4691z"/>
<path fill="#DC0000" stroke="#000000" stroke-width="0.27175" d="M61.23568,39.63138
	c0.17063,0.26235,0.16719,0.67799-0.29438,0.97831s-1.00159,0.26298-1.17253,0.00063
	c-0.17078-0.26235-0.01688-0.77361,0.44454-1.07393s0.85159-0.16735,1.02221,0.095H61.23568z"/>
<path fill="#DC0000" stroke="#000000" stroke-width="0.27175" d="M61.56663,38.54448
	c0.15985,0.10204,0.26204,0.33235,0.0825,0.61361c-0.17938,0.28125-0.4872,0.39595-0.64705,0.29376
	c-0.15985-0.10188-0.20312-0.42266-0.02344-0.70393C61.15803,38.46666,61.40678,38.44244,61.56663,38.54448z"/>
<path fill="#DC0000" stroke="#000000" stroke-width="0.27175" d="M62.05305,39.02198
	c0.10344,0.15891,0.10125,0.41095-0.17844,0.59299c-0.27969,0.18204-0.6072,0.15938-0.71064,0.00047
	c-0.10344-0.15907-0.01031-0.46892,0.26954-0.65095c0.27954-0.18204,0.51595-0.10141,0.61955,0.05766V39.02198z"/>
<path fill="#D90000" stroke="#000000" stroke-width="0.27175" d="M63.09307,38.08009
	c0.07781,0.11954,0.07625,0.30923-0.13422,0.44611c-0.21032,0.13704-0.45689,0.11985-0.5347,0.00032
	c-0.07781-0.11969-0.00781-0.35282,0.20266-0.48986C62.83728,37.89977,63.0151,37.9604,63.09307,38.08009z"/>
<path fill="#FFFFFF" stroke="#000000" stroke-width="0.27175" d="M49.7979,47.73799
	c-0.41173,0.04844-0.64595,0.07375-0.72502,0.37157c-0.04391,0.20219-0.00891,0.46642,0.02625,0.6933
	c0,0.26063,0.32892,0.43329,0.71189,0.50767h0.65908c0.2775,0,0.79096-0.27173,0.79096-0.53236
	c0.0411-0.14735,0.03953-0.38516,0.03953-0.5461c0-0.43829-0.30939-0.46532-0.69627-0.50626
	C50.60432,47.7258,49.79789,47.73799,49.7979,47.73799z"/>
<path fill="#008F00" stroke="#286326" stroke-width="0.27175" d="M64.43045,42.55958
	c-0.04531-1.52098-0.44626-3.72541,1.42097-4.48136c0.24094-0.06282,0.32797,0.07297,0.24594,0.27328L64.43045,42.55958z"/>
<path fill="#008C00" stroke="#286326" stroke-width="0.27175" d="M66.84316,39.46294
	c0.33236-0.62517,1.15394-0.78283,1.44379-0.7633c-0.57346,0.58595-1.14659,2.0224-1.46863,2.4924
	c-0.46376,0.79877-1.81629,1.36551-2.62772,1.83567c0.90814-1.2366,1.74442-2.32818,2.65272-3.56478L66.84316,39.46294z"/>
<path fill="#009400" stroke="#000000" stroke-width="0.27175" d="M49.83305,47.72924c0,0-0.41236,0.07344-0.42142,0.07344
	S49.091,48.00409,49.091,48.00409s-0.06406,0.39376-0.06406,0.40313c0,0.00938,0.07312,0.44876,0.07312,0.44876l0.1925,0.26563
	l0.50376,0.17391C49.79633,49.29553,49.83305,47.72924,49.83305,47.72924z"/>
<path fill="#008D00" stroke="#286326" stroke-width="0.27175" d="M64.18451,43.02552
	c0.05453-0.05469,1.06877-4.83606,2.75991-5.40248c0.27313,0.35517,0.14141,1.12737,0.03219,1.53723
	c-0.51923,1.7852-1.78098,3.00898-2.79226,3.86525H64.18451z"/>
<g>
	<path fill="#6D390B" d="M67.91804,37.14178c-0.07298,0.16719,0.03828,0.36688,0.24844,0.44595
		c0.21016,0.07907,0.4397,0.00734,0.51266-0.16c0.07298-0.16734-0.03812-0.36704-0.24844-0.44595
		c-0.21032-0.07891-0.4397-0.00734-0.51251,0.16001L67.91804,37.14178z"/>
	<path fill="#6D390B" d="M68.04867,37.13772l-0.9794,0.07688l0.02344,0.2975l0.9794-0.07703L68.04867,37.13772z"/>
</g>
<g>
	<path fill="#6D390B" d="M63.79215,42.03582c-0.10516,0.16891-0.34813,0.18938-0.54267,0.04531
		c-0.19453-0.14407-0.26719-0.39735-0.16219-0.56642s0.34798-0.18922,0.54267-0.04531
		C63.82465,41.6133,63.89715,41.86675,63.79215,42.03582z"/>
	<path fill="#6D390B" d="M63.71809,41.91378l0.51251,0.94252l-0.27735,0.16032l-0.51251-0.94237L63.71809,41.91378z"/>
</g>
<g>
	<path fill="#6D390B" d="M65.00546,43.35491c-0.09109-0.17688,0.0161-0.39595,0.23939-0.48907s0.47813-0.02563,0.56939,0.15125
		c0.09126,0.17688-0.01594,0.39595-0.23923,0.48907S65.09672,43.53179,65.00546,43.35491z"/>
	<path fill="#6D390B" d="M65.14812,43.35397l-1.0719-0.04344l0.00468-0.32048l1.0719,0.04344L65.14812,43.35397z"/>
</g>
<path fill="#008C00" stroke="#286326" stroke-width="0.29538" d="M63.44902,44.44947
	c1.03909-0.56314,0.38798,0.22688,0.32345,0.65939c-0.30704,1.06721-0.59408,1.07409-0.95502,1.25597
	c-0.53846,0.49111-2.26365,0.25282-3.06524,0.45517c1.00471-0.72971,2.6921-1.64098,3.69697-2.37053H63.44902z M61.89336,44.20181
	c0.43376-0.34423,0.50501-1.1044,0.4761-1.36784c-0.39313,0.56157-1.39957,1.17862-1.72207,1.50332
	c-0.5522,0.47548-0.89127,1.74739-1.18862,2.51881c0.84533-0.90971,1.58941-1.74442,2.43443-2.65429H61.89336z"/>
<path fill="#008C00" stroke="#286326" stroke-width="0.27175" d="M56.49088,48.56863
	c0.67955-0.19938,1.83755,0.30267,2.02662,0.52345c-0.81987,0-2.14849,0.56924-2.70976,0.66768
	c-0.89534,0.22657-3.37821-1.17425-4.26729-1.37425C53.02454,48.31066,54.97178,48.7838,56.49088,48.56863z"/>
<path fill="#00602B" stroke="#004500" stroke-width="0.27175" d="M51.31841,48.42503c0.58033,0.4172,1.40097,0.97424,1.9813,1.39128
	c0.11922,0.10156-0.4022,0.20845-0.59345,0.115c-0.61252-0.42064-0.93487-0.69611-1.54739-1.11675l-0.35048-0.19563
	c0.25001-0.01797,0.25985-0.17595,0.51001-0.19376L51.31841,48.42503z"/>
<path fill="#008C00" stroke="#286326" stroke-width="0.27175" d="M59.37376,46.82109
	c0.06969-0.02641,2.83648-3.7615,4.55636-3.60712c0.10328,0.40985-0.31516,1.02518-0.57204,1.33691
	c-1.15753,1.34128-2.75382,1.91645-3.98448,2.27021H59.37376z"/>
<g>
	<path fill="#6D390B" d="M59.0336,46.27248c-0.17234,0.09953-0.39626,0.00312-0.50001-0.21563s-0.04844-0.47657,0.12391-0.57611
		s0.3961-0.00297,0.50002,0.21563C59.26142,45.91497,59.20594,46.17294,59.0336,46.27248z"/>
	<path fill="#6D390B" d="M59.02578,46.12998l0.00797,1.07284l-0.32032,0.01062l-0.00797-1.07268L59.02578,46.12998z"/>
</g>
<g>
	<path fill="#6D390B" d="M59.75643,47.80518c0.01157-0.1986,0.21532-0.33266,0.45501-0.29923
		c0.2397,0.03344,0.4247,0.22157,0.41314,0.42017s-0.21532,0.33266-0.45501,0.29923
		C59.92987,48.1919,59.74487,48.00393,59.75643,47.80518z"/>
	<path fill="#6D390B" d="M59.87971,47.8769l-0.90065-0.58283l0.16719-0.27345l0.90049,0.58283L59.87971,47.8769z"/>
</g>
<path fill="#DC0000" stroke="#000000" stroke-width="0.27175" d="M36.28584,34.23906
	c0.08094-0.12078,0.26782-0.20032,0.50048-0.06985c0.23282,0.13032,0.33126,0.35876,0.25001,0.4797
	c-0.08094,0.1211-0.34266,0.15751-0.57548,0.02719c-0.23266-0.13031-0.25626-0.31594-0.17501-0.43689V34.23906z"/>
<path fill="#008C00" stroke="#286326" stroke-width="0.27175" d="M56.01774,48.07065c1.14253-0.3022,1.0744-0.85236,1.60832-1.33347
	c-1.23581-0.18094-2.22162,0.25641-2.74945,0.54689c-0.83393,0.53782-1.04971,1.12159-1.77223,1.52363
	c1.23175-0.15719,1.78661-0.33407,2.9132-0.7372L56.01774,48.07065z"/>
<path fill="#008C00" stroke="#286326" stroke-width="0.27175" d="M52.29108,48.40456
	c3.26789,0.24657,2.74694-1.08018,6.32829-1.04737c-0.05282,0.41938-0.73658,0.94565-1.0894,1.14253
	c-1.56614,0.82814-4.13964,1.21612-5.23904-0.09516H52.29108z"/>
<path fill="#D40000" stroke="#000000" stroke-width="0.27175" d="M50.62995,47.72049l0.00906,1.53879l0.42142-0.16485
	c0,0,0.17391-0.27485,0.17391-0.29313s0.07344-0.37563,0.07344-0.3847c0-0.00922-0.03672-0.4397-0.03672-0.4397l-0.32063-0.21063
	C50.95043,47.76627,50.62995,47.72049,50.62995,47.72049z"/>
<path fill="#6D390B" stroke="#000000" stroke-width="0.08696" d="M37.02539,33.43122l-0.52283-0.57486l0.17797-0.15063
	l0.52283,0.57455L37.02539,33.43122z"/>
<path fill="#DC0000" stroke="#000000" stroke-width="0.27175" d="M36.36772,33.78514
	c0.08875-0.15438,0.29329-0.25594,0.54798-0.08938c0.25485,0.16626,0.36251,0.45782,0.27376,0.61236
	c-0.0886,0.15438-0.37501,0.2011-0.63002,0.03469c-0.2547-0.16641-0.28032-0.40313-0.19172-0.55783V33.78514z"/>
<path fill="#DC0000" stroke="#000000" stroke-width="0.27175" d="M37.80775,33.14059c0.14891,0.0061,0.31047,0.13782,0.3022,0.43751
	c-0.00844,0.29939-0.17032,0.52845-0.31939,0.5222s-0.30704-0.2347-0.29876-0.53439
	C37.50024,33.26653,37.65853,33.13465,37.80775,33.14059z"/>
<path fill="#DC0000" stroke="#000000" stroke-width="0.27175" d="M37.07383,33.26059
	c0.16875-0.04422,0.38892,0.03062,0.46814,0.32782c0.07938,0.29704-0.03437,0.57673-0.20313,0.62111
	c-0.16891,0.04422-0.4136-0.12704-0.49298-0.42423c-0.07922-0.2972,0.05907-0.48033,0.22813-0.5247L37.07383,33.26059z"/>
<path fill="#008D00" stroke="#000000" stroke-width="0.27175" stroke-linejoin="round" d="M41.28394,38.02587
	c-0.50954-1.29535-1.90005-3.44602-3.31633-2.40944c-1.57191,1.35582,0.71689,3.48899,2.66882,3.36805l0.64767-0.95862H41.28394z"/>
<path fill="#DC0000" stroke="#000000" stroke-width="0.27175" d="M37.23946,34.2289
	c0.27204-0.18298,0.70877-0.18719,1.03299,0.28829c0.32423,0.47564,0.29532,1.03987,0.02312,1.22284
	c-0.27235,0.18313-0.81221,0.03234-1.13644-0.44314C36.83492,34.82141,36.96711,34.41219,37.23946,34.2289z"/>
<path fill="#DC0000" stroke="#000000" stroke-width="0.27175" d="M36.23302,32.06525
	c0.12407-0.08344,0.32314-0.08531,0.47111,0.13157c0.14782,0.21672,0.13453,0.47423,0.01047,0.55783
	c-0.12407,0.08329-0.37032,0.01453-0.51829-0.20235C36.04849,32.33557,36.1088,32.14885,36.23302,32.06525z"/>
<path fill="#008D00" stroke="#000000" stroke-width="0.27175" d="M45.61123,39.567
	c-0.64017-1.13909-2.38725-2.56335-4.16682-1.65207c-2.10458,1.47691,0.84877,3.68931,3.87119,2.5985
	c0.2711-0.28094,0.02422-0.66564,0.29548-0.94659L45.61123,39.567z"/>
<path fill="#008D00" stroke="#000000" stroke-width="0.27175" d="M51.54403,40.24077
	c-0.64017-1.13894-4.07135-2.43365-5.56608-1.34113c-1.87114,2.0988,0.87487,3.55978,4.5709,2.52069
	c0.27126-0.28094,0.72392-0.89862,0.99518-1.17971L51.54403,40.24077z"/>
<path fill="none" stroke="#000000" stroke-width="0.29538" stroke-linejoin="round" d="M38.21792,35.98676
	c0.01828,0,0.3847,0.45798,0.3847,0.45798l-0.01828-0.64127 M38.8595,36.88334l0.38485,0.3847 M40.21453,36.62693l0.03672,0.4397
	l0.23813-0.01828 M40.21453,38.09321c-0.09156-0.05485-0.40314-0.31142-0.40314-0.31142 M39.3167,38.12978l-0.51314-0.16469"/>
<path fill="none" stroke="#000000" stroke-width="1.08698" d="M38.34542,37.15866l-0.4947-0.16485"/>
<path fill="none" stroke="#000000" stroke-width="1.08698" stroke-linejoin="round" d="M37.41228,36.86568h-0.42142"/>
<path fill="none" stroke="#000000" stroke-width="1.08698" stroke-linejoin="round" d="M39.38982,35.47268v-0.5497"/>
<path fill="none" stroke="#000000" stroke-width="0.29538" stroke-linejoin="round" d="M38.65731,38.44197
	c-0.05469,0-0.76939-0.03672-0.76939-0.03672 M39.94062,38.93558l-0.54955,0.18313 M40.76392,36.97553
	c0.01828-0.01828,0.45798-0.23813,0.45798-0.23813 M39.51873,36.35302c0-0.01828-0.14657-0.60455-0.14657-0.60455"/>
<path fill="none" stroke="#000000" stroke-width="0.29538" d="M49.78899,47.72783c-0.41157,0.04828-0.64579,0.0736-0.72502,0.37142
	c-0.04375,0.20219-0.00875,0.46642,0.02641,0.69345c0.07328,0.3797,0.32892,0.4333,0.71189,0.50751h0.65908
	c0.27751,0,0.72689-0.18,0.80002-0.52314c0.05031-0.17485,0.03047-0.39423,0.03047-0.55532
	c-0.03656-0.40157-0.30939-0.46532-0.69627-0.50626C50.59557,47.71549,49.78899,47.72783,49.78899,47.72783z M49.83446,47.72924
	l-0.01297,1.52863 M50.63729,47.72924l-0.01313,1.52863"/>
<path fill="#008C00" stroke="#286326" stroke-width="0.27175" d="M67.16833,34.65672
	c0.24172-0.79471-0.59486-0.98252-0.78127-1.42878c-0.38188,0.74752-0.24797,1.50879-0.18047,1.90911
	c0.15672,0.65002,0.73283,1.0994,0.82846,1.64848c0.16875-0.81971,0.14172-1.32222,0.13329-2.12896V34.65672z"/>
<path fill="#008C00" stroke="#286326" stroke-width="0.27175" d="M68.27586,33.91842
	c0.01625-0.43486,0.58346-0.74627,0.81205-0.81487c-0.14172,0.84549,0.11282,1.24269,0.04547,1.58942
	c-0.05047,0.56626-1.08752,1.43129-1.52848,1.91192c0.22344-0.92878,0.4472-1.75786,0.6708-2.68647H68.27586z"/>
<path fill="#008C00" stroke="#286326" stroke-width="0.27175" d="M67.08051,37.30804
	c0.02766-0.05188-0.43157-4.04166,0.71877-4.8695c0.30157,0.17704,0.40032,0.74814,0.42251,1.06128
	c0.06375,1.37519,0.10876,2.07396-1.14127,3.80837L67.08051,37.30804z"/>
<path fill="#DC0000" stroke="#000000" stroke-width="0.27175" d="M44.00432,37.21288c0.32907,0.10453,0.61908,0.46345,0.4411,1.0469
	c-0.17813,0.58361-0.45376,0.95893-0.88627,0.82862c-0.56252-0.13032-0.6633-0.65158-0.48532-1.23519
	c0.17797-0.58345,0.60111-0.74471,0.93034-0.64033H44.00432z"/>
<path fill="#DC0000" stroke="#000000" stroke-width="0.29538" d="M44.56089,36.61662
	c0.10469,0.07344,0.16719,0.2275,0.03953,0.40189c-0.12751,0.17422-0.33673,0.23438-0.44126,0.16094
	c-0.10469-0.07344-0.12532-0.28329,0.00219-0.45782C44.28885,36.54755,44.4562,36.54318,44.56089,36.61662z M43.69509,36.43802
	c0.125-0.02657,0.28032,0.03265,0.32094,0.24485c0.04063,0.21203-0.05782,0.40626-0.18282,0.43282
	c-0.125,0.02641-0.29266-0.10157-0.33345-0.31376c-0.04063-0.21204,0.07032-0.33751,0.19532-0.36407L43.69509,36.43802z"/>
<path fill="#DC0000" stroke="#000000" stroke-width="0.27175" d="M44.05994,36.90084
	c0.12234,0.03672,0.23016,0.16329,0.16407,0.36892c-0.06625,0.20563-0.24594,0.3286-0.36829,0.29189
	c-0.12234-0.03688-0.20813-0.22969-0.14188-0.43517C43.77993,36.921,43.93728,36.86397,44.05994,36.90084z"/>
<path fill="#DC0000" stroke="#000000" stroke-width="0.27175" d="M44.23713,36.16551
	c0.10204,0.02781,0.1922,0.12344,0.13688,0.27907c-0.05531,0.15563-0.20516,0.24875-0.30719,0.22094
	c-0.10219-0.02797-0.1736-0.17376-0.11844-0.32938C44.00354,36.18067,44.13494,36.1377,44.23713,36.16551z"/>
<path fill="#DC0000" stroke="#000000" stroke-width="0.27175" d="M44.77324,37.10163
	c0.11172,0.07672,0.17438,0.22297,0.02766,0.36954c-0.14656,0.14656-0.37814,0.18156-0.48986,0.10469
	c-0.11188-0.07688-0.12626-0.27,0.02031-0.41673C44.47776,37.01272,44.66152,37.02475,44.77324,37.10163z"/>
<path fill="#DC0000" stroke="#000000" stroke-width="0.27175" d="M43.36695,36.78068c0.11375-0.0136,0.24751,0.05391,0.2661,0.25172
	c0.01875,0.19797-0.08516,0.36736-0.19891,0.3811c-0.11391,0.0136-0.25282-0.11797-0.27157-0.31563
	C43.14382,36.8999,43.2532,36.79443,43.36695,36.78068z"/>
<path fill="none" stroke="#000000" stroke-width="0.27175" d="M41.66191,47.07v-0.01828V47.07z"/>
<path fill="#FFFFFF" stroke="#000000" stroke-width="0.27175" d="M56.43806,39.40871
	c0.64127,0.34204,0.42142,1.14206-0.03656,1.35582c-0.02453-0.52533-0.36032-0.68408-0.86096-0.80611
	C55.80305,39.81185,56.08399,39.33543,56.43806,39.40871z"/>
<path fill="#008D00" stroke="#000000" stroke-width="0.27175" d="M50.31494,42.60801
	c0.23595-3.47681,2.87757-3.89854,4.62856-3.29664c2.56413,1.86052-0.03625,3.40633-3.87416,3.50634
	C50.72714,42.62958,50.65714,42.7963,50.31494,42.60801z"/>
<path fill="#FFFFFF" stroke="#000000" stroke-width="0.27175" d="M51.08261,38.7012
	c-0.82018-0.03313-1.06768,0.76721-0.74595,1.18472c0.32657-0.43923,0.74424-0.40454,1.30112-0.25391
	c-0.17063-0.26001-0.16891-0.81314-0.55532-0.93081H51.08261z"/>
<path fill="#FFFFFF" stroke="#000000" stroke-width="0.27175" d="M51.51028,39.74123
	c-0.64127,0.3422-0.5047,1.14206-0.04672,1.35582c0.02453-0.52517,0.36032-0.68408,0.86096-0.80611
	C52.06202,40.14436,51.86451,39.66795,51.51028,39.74123z"/>
<path fill="#F6AA00" stroke="#000000" stroke-width="0.27175" stroke-linejoin="round" d="M56.52306,39.47466
	c0.0075-0.28594-0.21829-0.53345-0.48298-0.57346c-0.31907-0.03875-0.62502,0.18141-0.94424-0.05156
	c-0.03875-0.0261-0.77971-0.66565-0.99237-0.96346c-0.21266-0.11673-0.6583-0.33516-0.6583-0.33516
	c-0.26251,0.34204-0.44736,0.7358-0.82659,0.96112c-0.1886,0.07563-0.26063,0.16406-0.6047,0.13594
	c-0.35564-0.16626-0.74689-0.25157-0.95034-0.07109c0.17297,0.34266,0.12578,0.77612,0.05266,1.10581
	c0.12828,0.07344,0.26954-0.01438,0.4236,0.02c0.47501,0.0125,0.35423,0.52298,0.53126,0.74283
	c0.50048,0.1361,0.7547-0.1036,0.82768-0.51157c0.13234-0.20829,0.53673-0.23516,0.82439-0.31376
	c0.31142-0.06016,0.70065-0.15923,0.98612,0.00094c0.23595,0.12532,0.39376,0.27657,0.51298,0.53126
	c0,0,0.37548,0.0336,0.75111-0.03656C55.98633,39.89029,55.94007,39.47997,56.52306,39.47466z"/>
<path fill="none" stroke="#000000" stroke-width="0.27175" d="M53.20361,37.91024l0.01844,0.8244
	c0.09766,0.29922,0.7633,0.26876,0.84268,0.07328l-0.01828-0.9344"/>
<path fill="none" stroke="#000000" stroke-width="0.29538" d="M53.4233,39.6681c0.14376-0.04876,0.19703-0.44845,0.19703-0.44845
	 M54.01081,39.55809l0.03656-0.32969 M54.61442,39.55809l-0.05422-0.34704 M53.02064,39.30168
	c-0.02235,0.0125-0.31142-0.34798-0.21985-0.31126 M52.49031,39.83357c0.03657,0-0.4786-0.53361-0.38704-0.49689 M52.01264,38.8448
	c-0.01328-0.04094-0.03656-0.23813,0.055-0.20157 M53.16126,38.72167c-0.78283,0.67564-1.51973,0.39141-1.62614,0.9594
	 M55.09928,39.10402c0.02734-0.03313,0.12157-0.20782,0.02297-0.20766"/>
<path fill="none" stroke="#000000" stroke-width="0.29538" stroke-linejoin="round" d="M42.52912,39.4381
	c0.01016-0.01516,0.5947-0.06344,0.5947-0.06344l-0.5422-0.34282 M46.09171,40.02108c0.01016-0.01516,0.5947-0.06344,0.5947-0.06344
	l-0.46439-0.53751 M47.53159,40.1192c-0.0286-0.09297,0.61439,0.01438,0.59486-0.06344L47.7205,39.6156 M46.76266,38.06837
	c0.01828,0,0.3847,0.45798,0.3847,0.45798l-0.01844-0.64127 M57.79607,41.12563c0.01406,0.01188-0.00344,0.65314-0.00344,0.65314
	l0.42079-0.45626 M53.0997,40.96157c0.0125,0.01328-0.07078,0.59392-0.07078,0.59392l0.62736-0.33282 M42.1027,37.98493
	l0.38486,0.3847 M41.40269,38.62651l0.3847,0.3847 M44.02619,39.62403l0.54189-0.04844 M43.16476,40.15874l0.54283-0.03844
	 M47.08923,38.92667l0.3847,0.38485 M48.69037,39.12605l0.3847,0.3847 M45.70639,38.42588l0.3847,0.3847 M41.66191,37.20413
	l0.3847,0.3847 M45.96124,41.88737l0.35595-0.41157 M47.76457,42.22863l0.35595-0.41158 M40.84299,40.12358l0.54189-0.04844"/>
<path fill="none" stroke="#000000" stroke-width="0.27175" stroke-linejoin="round" d="M41.86832,39.73841
	c-0.08844,0.00468,0.27454-0.02344,0.3747,0.01656l-0.53517-0.38282"/>
<path fill="none" stroke="#000000" stroke-width="0.29538" stroke-linejoin="round" d="M42.54522,40.88531l0.54189-0.04844
	 M48.97163,40.35952l0.54267-0.0386 M48.0516,41.1197l0.54283-0.03844 M48.70506,38.32916c0.01828,0,0.3847,0.45782,0.3847,0.45782
	l-0.01844-0.64111 M53.98582,39.96826l-0.3847,0.38486 M55.24725,40.38874l-0.38485,0.3847 M54.68615,41.46986l-0.3847,0.3847
	 M59.2111,41.56939l-0.3847,0.38486 M56.82933,41.2897l-0.38486,0.3847 M59.17157,38.98683l-0.3847,0.3847 M60.99239,41.58705
	l-0.54173-0.05156 M56.4426,42.79396l0.02625-0.54345 M58.15936,40.33452l0.27688-0.46844 M59.02079,40.85453l0.27672-0.46844
	 M59.73846,42.34441c-0.01187,0.0139-0.59814-0.00469-0.59814-0.00469l0.42032,0.30641 M51.59825,42.18176
	c0.0125,0.01344-0.07078,0.59392-0.07078,0.59392l0.62736-0.33282 M46.77142,41.1197
	c0.07141-0.05297,0.43392-0.16579,0.41454-0.24376l-0.38595-0.13969"/>
<path fill="#9C4314" stroke="#000000" stroke-width="0.27175" stroke-linejoin="round" d="M63.10917,37.45601
	c0.25423,0.19735,0.68283-2.04771,0.61721-2.75023c0-0.04641-0.07969-1.53629,0.23219-2.60053
	c0.19688-0.35829,0.20407-3.04289-0.0914-3.74869c0.23532-0.01984,0.52063-0.0961,0.5558-0.38376
	c-1.08722,0.40251-1.34535-2.29803-2.39162-3.84885c-1.02143-1.55535-2.28928-2.46194-3.60634-3.40571
	c0.10266-0.26407,0.2547-0.51173,0.45595-0.75939c-1.61723,0.81018-4.13729-2.12287-7.85582-1.90364
	c-0.83815,0.08344-1.233,0.13407-1.44738,0.64439c-0.69127,0.0586-1.3991,0.21563-1.40097,1.12815
	c0.00141,0.21844,0.19985,0.61752,0.64439,0.62267c0.60939,0.17547,1.10362,0.03906,1.51598,0.88752
	c0.03094,0.23219,0.07829,0.64486,0.10938,0.87705c0,0-0.54548-0.69095-0.84377-0.8058
	c0.07906-0.11485-0.04688-0.19376,0.18282-0.37142c-0.27907-0.16141-0.77861-0.03016-0.77861-0.03016
	s-1.08002-0.5083-1.95005-0.37142c0-0.09281-0.16657-0.70439-0.16657-0.70439c-0.15391,0.43079-0.49376,0.40751-0.54361,0.81658
	c-0.09281-0.29407-0.2186-0.65392-0.31141-0.94799c-0.30532,0.41704-0.21672,0.86674-0.32501,1.30003
	c-0.12109,0.09859-0.36251,0.10406-0.42329-0.175c-0.03094-0.34063-0.07281-0.37454-0.07094-0.78064
	c-0.22032,0.38407-0.4847,0.57111-0.57376,1.2344c-0.09282-0.24766-0.14188-0.48439-0.23485-0.73205
	c0.01187,0.86252-0.73221,1.38019-1.43676,1.98568c-0.19798,0.36642,0.03094,0.37157,0.04641,0.5572l0.37157,0.18579
	c0.21656-0.01547,0.4497-0.03094,0.66642-0.04641c0.10828,0.13922,0.01969,0.14766,0.30861,0.23751
	c0.77393,0.21688,1.74254-0.71361,2.5024,0.74846c-0.35001,0.2911-0.70002,0.97643-0.59017,1.10346
	c0.13938,0-0.2797,0.19704,0.28657,0.01641c-0.59095,0.5747-0.99143,1.33019-0.99143,1.3766
	c-0.06563,0.16141,0.23813-0.02188,0.17469,0.27141c0.08297-0.21985,0.14047-0.01828,0.14047-0.01828
	c-1.34878,1.45894-0.04515,3.02351-0.19047,3.86635c0.22422,0.3611,0.2522-0.00688,0.53267-0.04688
	c0.23719,1.03378,0.9158,1.66082,1.33379,2.48131c-0.21579-0.06625-0.64455-0.08969-0.87674,0.00859
	c0.01969,0.38908,0.37142,0.75893,0.65002,1.09909c-0.2011,0.06172-0.38689,0.1236-0.58814,0.18594
	c-0.41782,0.21657-0.69564,0.44423-0.98971,0.76877c-0.1961,0.47392,0.93596,0.58892,1.47878,0.66877
	c-0.04922,0.17001-0.1186,0.38391-0.02,0.5708c0.85361,0.08219,1.83989-0.17016,1.83989-0.21657
	c0-0.04688,0.21407-0.16688,0.21407-0.16688c0.11485,0.23,0.36766,0.29797,0.4797,0.26532
	c0.16126,0,0.41173-0.64267,0.29688-1.13487c0.30938,0.37095,0.6008,0.96222,0.91034,1.33394
	c0.09375,0.09844,0.21485,0.02594,0.29219-0.04016c0.26313,0.41813,0.62642,0.83612,0.88955,1.25362
	c0.13922,0.15953,0.10938,0.10078,0.29782,0.1125c0.17204-0.05562,0.31876-0.07844,0.40876-0.41251
	c0,0,0.05703,0.05188,0.13829,0.23594c0.20782,0.14782,0.35454-0.2075,0.46939-0.32251
	c0.06563-0.15844,0.32188,0.03094,0.32188-0.06188c0.09297,0.06188,0.15391,0.33407,0.24688,0.39579
	c0.14204-0.0525,0.28313-0.36485,0.29392-0.69627c0.14125,0.29063,0.18485,0.26657,0.29313,0.34439
	c0.09297-0.07781,0.12204-0.38095,0.215-0.45829c-0.02015-0.16016,1.11518,1.09472,1.16159,1.09472
	c0.11219,0.08172,0.75377,0.27829,0.88503,0.0489c0.32032,0.21407,1.18253,0.34626,1.32222,0.0025
	c0.70971,0.30297,1.54472-0.03656,1.50941-0.37548c0.6472,0.2586,1.65613,0.08594,1.65613,0.03953
	c0.11485-0.0136,0.42689-0.31657,0.13126-0.54595c-2.15146-1.5016-5.35341-3.98792-6.58564-4.58652
	c0-0.44314-0.33532-2.04224-0.69642-2.4824c-0.06563-0.22704,0.08219-0.50783,0.29563-0.49126
	c0.83721,0.78283,1.14143,0.70814,1.58473,0.83439c0.4797,0.37845,0.65189,0.95627,1.13175,1.48254
	c0.2261,0.07235,0.49329,0.30126,0.42392,0.07813c-0.29938-0.75158-0.66142-1.4791-1.55785-2.45616
	c0.46423,0.23219,1.22487,0.84721,1.73848,1.29284c0.34235,0.56408,0.43845,1.01362,0.74814,1.72551
	c0.22422,0.14219,0.45345,0.66689,0.42063,0.23204c-0.04922-0.81783-0.62283-2.11662-0.62283-2.20943
	c0.9119,0.72736,0.90237,1.85473,1.17722,2.54459c0.23813,0.35001,0.35782,0.81518,0.45642,0.70627
	c0.115-0.15891-0.27063-2.12818-0.27063-2.12818c-0.06188-0.24751-0.09297-0.52814-0.15469-0.77564
	c0.67861,0.39063,0.9158,1.88129,1.23347,3.66712c0.00078,0.28438,0.11672,0.59611,0.10125,0.78174
	c0.14563,0.18,0.31345,0.67658,0.30579,0.38032c0,0,0.00047-2.90523-0.19641-3.57275
	c-0.04938-0.35548,0.08719-0.93705,0.08719-0.93705c0.24766,1.20722,0.51173,2.51288,0.75939,3.72009v0.88252
	c0.12375,0.1236,0.24751,0.24735,0.37142,0.37173l0.23219-2.18255c0,0-0.2786-2.55413-0.2786-2.60038v-0.74299
	c-0.00563-0.26173,0.23485-0.21157,0.39345,0.085c0.03094,0.63455,0.02906,1.13784,0.06,1.77254
	c0.10844,0.72705,0.18391,1.25769,0.24297,2.18224c0.02906,0.75768,0.05828,2.54944,0.21875,2.5185L63.10917,37.45601z"/>
<path fill="none" stroke="#000000" stroke-width="0.29538" stroke-linejoin="round" d="M51.08105,41.6558
	c-0.03484-0.08172-0.06-0.46064-0.14032-0.45985l-0.22594,0.34266 M57.87075,39.58747l-0.04625,0.38329 M54.49427,42.41473
	c-0.08828,0.01078-0.45939-0.07032-0.48079,0.00687l0.26641,0.31235"/>
<path fill="none" stroke="#000000" stroke-width="0.27175" d="M48.81631,33.82608v0.04016V33.82608v0.04016V33.82608v0.7008
	c0.02047,0.09938,0.02,0.21001,0.02,0.32032c0.0125,0.085,0.04219,0.18688,0.08016,0.28048
	c0.00547,0.11876,0.0386,0.19657,0.08016,0.30032c0.00844,0.10235,0.04344,0.19001,0.08,0.28032
	c0.00875,0.10281,0.04203,0.15672,0.06016,0.24031c0.0289,0.09625,0.06406,0.15876,0.1,0.22032
	c0.02609,0.02609,0.03609,0.05203,0.06016,0.06"/>
<path fill="none" stroke="#000000" stroke-width="0.27175" d="M47.2533,36.28848c0-0.03234-0.005-0.13079,0.04016-0.20016
	c0.07078-0.10079,0.12766-0.16329,0.22016-0.26032c0.10938-0.06953,0.1875-0.15203,0.28032-0.24031
	c0.09969-0.06359,0.14985-0.11985,0.24032-0.18016c0.05547-0.05672,0.11969-0.08469,0.18016-0.12032
	c0.06891-0.03375,0.11906-0.08375,0.22032-0.1c0.06094-0.03047,0.18766-0.02,0.28032-0.02c0.09547,0,0.12891-0.01828,0.22032-0.02"
	/>
<path fill="none" stroke="#000000" stroke-width="0.29538" d="M61.80992,29.33331c0.30938,0.22438,0.65002,0.71205,0.78939,1.59426
	 M60.06956,29.63363c0.44876,0.40235,0.70221,0.84002,1.03706,1.82645"/>
<path fill="#00C600" stroke="#000000" stroke-width="0.29538" d="M58.98547,30.11395c0.27345,0.31219,0.43861,0.63986,0.5883,1.0294
	 M57.12808,29.09299c0.35595,0.41017,0.92862,1.03706,1.22269,1.6716"/>
<path fill="none" stroke="#000000" stroke-width="0.27175" d="M49.56789,18.61913c0.02594,1.78411,2.63725,1.34894,2.85726,3.02523
	c0.4997,1.82942,0.29141,3.01133-0.4397,3.59212c-0.41501,0.42735-0.09766,1.09175,0.02594,1.43285
	c0.67876,1.72035,1.70363,1.99724,2.14427,3.48212"/>
<path fill="none" stroke="#000000" stroke-width="0.27175" d="M48.59084,19.83651c0-0.03438,0.06125-0.09407,0.12188-0.12188
	c0.25985-0.08469,0.4197-0.08969,0.68549-0.10657c0.2286,0,0.44189,0.01,0.67033,0.04563"/>
<path fill="none" stroke="#000000" stroke-width="0.29538" d="M51.97327,36.21379l0.90783,1.47691 M54.8663,34.01655
	l4.86106,3.72259 M54.73583,35.03751l3.55228,3.11836 M48.05317,31.16866c0.46782,0.92893,1.78973,2.16255,2.58288,2.35943
	c0.02719-0.59673-0.00656-0.82705-0.10157-1.24065"/>
<path fill="none" stroke="#000000" stroke-width="0.27175" d="M49.55758,30.6399c0.46782,0.92893,0.89487,1.91864,2.13568,2.48131
	c0.12875-0.90158-0.14907-2.12864-0.83393-3.37618"/>
<path fill="none" stroke="#000000" stroke-width="0.27175" d="M49.77727,29.39487c0.4272,0.25766,0.81361,0.37282,1.09846,0.40673
	c0.12875-0.90159,0.24157-1.85583-0.49407-3.14695"/>
<path fill="none" stroke="#000000" stroke-width="0.29538" d="M48.13379,29.92801c0.63048,0.68486,1.13894,0.71861,1.42363,0.75252
	c0.21016-0.61689,0.29845-1.92536,0.04063-3.33571 M46.50032,30.4774c0.62783,0.81252,2.07505,2.35443,2.85382,2.91492
	c0.02703-0.12922,0.06719-0.18938,0.05688-0.60283 M57.22183,21.55483c0.67252,0.77518,3.26758,3.3843,3.78135,4.60543
	c0.88674,1.99583,2.52193,2.37537,2.9296,2.15193 M52.77594,32.34057c0.23344,0.95502,0.65752,2.69226,1.26862,2.96695
	c0.10516-0.10266,0.19407-0.29251,0.18375-0.70627"/>
<path fill="none" stroke="#000000" stroke-width="0.27175" d="M49.24851,26.92793c0.27438,0.27938,0.33657,0.53392,0.62127,0.56783
	c0.34689-0.28376,0.95784-1.86536,0.73846-3.03289"/>
<path fill="none" stroke="#000000" stroke-width="0.29538" d="M47.81004,26.88403c0.12891,0.6283,0.24923,1.15909,0.69392,1.16393
	c0.73955-0.61814,0.95784-2.00192,0.73846-3.1693 M47.52284,30.20927l-0.33282-0.73174 M54.70802,36.13036l2.22912,2.02489
	 M53.64612,35.3158l0.68783,1.93645 M50.61526,33.54342c0.46782,0.92893,1.46441,2.26958,2.25756,2.46631
	c0.02719-0.1286,0.01203-0.24063,0.00172-0.65361 M49.4082,33.35732c0.46782,0.9283,1.84224,2.44162,2.63554,2.88507
	c0.02719-0.12859,0.14281-0.15328,0.1325-0.56642 M52.83157,35.97066l0.99315,1.64692 M51.64357,31.83681
	c0.42704,0.25766,0.87549,0.47345,1.16018,0.50751c0.04359-1.00409-0.30641-2.62351-1.02502-3.86338"/>
<path fill="none" stroke="#000000" stroke-width="0.29538" d="M46.7011,26.57199c-0.12688,0.47501-0.10938,0.99393,0.33548,0.99877
	c1.2341-0.53283,0.4972-1.06362,1.55707-2.86226 M48.33005,23.30535c0.46782,0.92877,0.60486,1.5602,1.33379,1.79879
	c0.14594-0.06563,0.50876-1.70739-0.72189-3.04023"/>
<path fill="none" stroke="#000000" stroke-width="0.29538" d="M49.82852,24.0788c0.24032,0.27938,0.59251,0.3461,0.87737,0.32891
	c0.2786-0.55658-0.3172-2.13349-1.10159-2.94898 M56.72229,22.79268c0.5872,0.82643,3.16368,3.71134,4.26792,4.63215
	c0.24813-0.03156,0.61533,0.27657,0.27188-0.76611"/>
<path fill="none" stroke="#000000" stroke-width="0.27175" d="M56.43228,24.61788c0.5872,0.82643,1.66254,2.22552,2.76663,3.14648
	c0.27766,0.10359,0.54626,0.07031,0.63439-0.00187c0.09469-0.09109,0.00859-0.74611,0.03297-1.41253"/>
<path fill="none" stroke="#000000" stroke-width="0.27175" d="M55.73352,25.65931c0.67252,0.74127,1.56019,1.59441,2.64725,2.58366
	c0.27766,0.1036,0.51751,0.10782,0.54924-0.00187c0.02641-0.10828,0.07672-0.08094,0.01578-0.74721"/>
<path fill="none" stroke="#000000" stroke-width="0.27175" d="M54.79459,26.9895c0.67252,0.74111,1.28722,1.28738,1.89692,1.42347
	c0.29454,0.03547,0.44907,0.03953,0.48079-0.07c0.02641-0.10828,0.00844-0.62673-0.00109-1.22503"/>
<path fill="none" stroke="#000000" stroke-width="0.27175" d="M53.83941,27.97827c0.67252,0.74111,0.67315,1.04847,1.28284,1.18472
	c0.29454,0.03531,0.51267-0.00344,0.5661-0.10422c0.09469-0.21063,0.12782-0.43907,0.11813-1.03721"/>
<path fill="none" stroke="#000000" stroke-width="0.29538" d="M53.56705,23.13394c0.67736,0.12328,0.73346-0.46251,0.67846-0.88127
	c-0.06672-0.52533-0.43813-0.75518-0.87815-0.64486 M53.19048,25.4543c0.31923,0.12329,0.72033,0.11532,0.86627-0.25016
	c0.11782-0.27813,0.0736-0.95987-0.36626-0.84955"/>
<path fill="none" stroke="#000000" stroke-width="0.27175" d="M53.66956,24.34537c0.60908,0.03797,0.66611-0.24016,0.64439-0.59142
	c-0.02406-0.40938-0.30157-0.72095-0.74158-0.61048"/>
<path fill="none" stroke="#000000" stroke-width="0.29538" d="M54.26129,22.75439c0.88955-0.53533,3.45212,1.61191,1.50316,2.29552
	 M54.07238,24.27506c0.88955-0.53548,2.84851,1.21628,0.86221,1.89864 M53.73987,25.48353
	c0.99315,0.03453,2.13599,1.62879,0.18876,1.82348"/>
<path fill="none" stroke="#000000" stroke-width="0.27175" d="M52.56937,26.33464c0.31923,0.12344,0.5036,0.20313,0.78846-0.04281
	c0.1125-0.10313,0.26079-0.57626-0.15891-0.83862"/>
<path fill="none" stroke="#000000" stroke-width="0.29538" d="M44.25323,24.40834c0.33595-0.43345,1.1569-0.70986,1.43785-0.13594
	 M53.16861,26.4123c0.57845,0.19001,1.4991,1.79958-0.04687,1.9638"/>
<path fill="none" stroke="#000000" stroke-width="0.27175" d="M52.43015,19.1318c0.6672,0.12625,1.00425,1.2044,1.53597,1.28753
	c0.97253,0.145-0.12563-1.12565-0.3361-1.26847"/>
<path fill="none" stroke="#000000" stroke-width="0.29538" d="M42.59209,23.74036c0.29923,0.01219,0.58017-0.04281,0.76939-0.39688
	 M45.55841,26.82981c0.16626,0.31001,0.59361,0.1861,0.94674-0.02891c0.48298-0.27626,0.07594-1.2469,1.22738-2.07443
	 M46.17078,30.91678c0.62767,0.81252,1.81848,2.02458,2.56053,2.67616c0.02719-0.1286,0.1475-0.19407,0.13719-0.60783
	 M48.70803,33.53904l1.42753,1.98333 M51.68466,33.05996c0.23344,0.95471,1.16206,2.46663,1.77301,2.74132
	c0.10516-0.10313,0.17579-0.51252,0.16563-0.92643 M51.352,35.79488L51.2648,36.6799 M53.4894,31.36945
	c0.23344,0.95487,0.58423,3.27852,1.1219,3.69978c0.10532-0.10266,0.32251-2.03318,0.31219-2.44662 M52.7686,31.30351
	c0.3172,0.03797,0.50204,0.03687,0.75018,0.03406c0.04375-1.00393-0.39142-2.18427-1.11003-3.42415"/>
<path fill="#00C600" stroke="#000000" stroke-width="0.27175" d="M54.53676,28.82345l-0.04953,1.01534"/>
<path fill="none" stroke="#000000" stroke-width="0.27175" d="M50.95214,28.38985c0.33548,0.12953,0.57533,0.17141,0.8419,0.15032
	c0.27532-1.35972-0.41798-1.36113-1.28191-2.3224"/>
<path fill="none" stroke="#000000" stroke-width="0.27175" d="M54.81209,19.35165c0.6672,0.1261,0.24422,1.12409,1.15128,1.43394
	c0.76142,0.25375,0.33236-0.7958,0.12188-0.93862"/>
<path fill="none" stroke="#000000" stroke-width="0.29538" d="M53.82034,21.5928c0.48142-0.35001,2.20256,0.13469,2.78492,0.62377
	c0.16688,0.15563,0.42141,0.77658-0.3697,1.34738 M44.70152,22.4147c1.3816-1.34831,2.02239-1.19472,3.60415-0.20032
	c0.22704,0.05344,0.47392,0.00672,0.6208-0.08c0.08-0.19376,0.00375-0.39079-0.10016-0.54064
	c-0.70752-0.5072-1.23472-0.65408-1.90224-0.56064 M46.69079,27.41857c-0.31063,0.45798-0.5647,1.45395-0.04,2.56303
	c0.02078,0.12766,0.15485,0.25532,0.02,0.34048c-0.2586,0.13016-0.37548,0.34532-0.52064,0.56064 M54.74177,34.5
	c0.00937-1.6802-0.23595-3.02039-0.90627-4.23339 M51.83982,27.95765c0.22188-0.02344,0.50032,0.03797,0.6372-0.02812
	c0.0661-0.24532-0.12266-0.54751-0.19829-0.77877c0.12751-0.01406,0.28329-0.01406,0.38235-0.0425
	c0.05656-0.21251,0-0.5097,0-0.76455"/>
<path fill="#FFFFFF" stroke="#000000" stroke-width="0.27175" d="M43.54134,23.17628
	c0.05328-0.3736,0.38704-0.78752,0.76095-1.00096c0.18016-0.10016,0.30032,0.02,0.38032,0.05984
	c0.10016,0.16032,0.04,0.46064,0,0.5808c-0.1,0.20032-0.30032,0.36048-0.66064,0.50064
	c-0.18703-0.08016-0.29376-0.06016-0.48063-0.14016V23.17628z"/>
<path fill="none" stroke="#000000" stroke-width="0.27175" d="M46.74501,30.30458c0.08016,0.04,0.88096,0.92096,0.88096,0.92096
	h0.48064l0.04-1.3416"/>
<path fill="none" stroke="#000000" stroke-width="0.27175" stroke-linejoin="round" d="M48.04582,27.72186
	c-0.16016,0.52736-0.10001,1.05471,0,1.58191"/>
<path fill="none" stroke="#000000" stroke-width="0.29538" d="M47.00283,30.20927l0.1875-0.73174 M47.34565,27.44061
	c-0.24032,0.44064-0.30876,1.16425-0.18375,1.68973 M53.89066,30.36896l-0.45313,0.00906"/>
<path fill="#9F3000" stroke="#000000" stroke-width="0.27175" d="M37.65837,28.66673
	c0.06359,0.19625-0.15047,0.09094-0.19641,0.1461c-0.22501,0.07938-0.58158-0.19625-0.8069-0.86283
	c0.11-0.18657,0.75611-0.58767,0.96346-0.50142c0,0,0.40657,0.155,0.45532,0.32485
	C37.99573,28.02109,37.64463,28.69438,37.65837,28.66673z"/>
<path fill="none" stroke="#000000" stroke-width="0.29538" d="M53.89066,30.36896l0.0075-0.89205 M54.62755,35.05517
	l0.12719,2.17631"/>
<path fill="#238700" stroke="#000000" stroke-width="0.27175" d="M37.64369,28.74298
	c0.43907,0.41282,1.12893,0.13594,1.23862,1.14456c0.04703,0.56455-0.75252,1.69348,0,2.71257
	c0.26657,0.3922,0.95658,0.81533,0.95658,0.81533c0.36063,0.40251,0.47033,1.11847,0.70549,1.6777
	c0.49658,0.74221,1.18128,0.90424,1.72473,0.72142c0,0,1.78754-0.79971,1.78754-0.81549c0-0.01562-0.9094-1.223-0.9094-1.20722
	c0,0.01563-1.01925,0.86252-1.03487,0.86252c-0.10984-0.01578-0.70564,0.04688-0.92502-0.7058
	c-0.01563-0.96159-0.49126-1.4941-1.25441-1.8813c-0.38673-0.29298-0.69517-0.75783-0.36063-1.41129
	c0.19328-0.5958,0.38673-1.59941-0.29798-2.27349c-0.43907-0.29266-0.75267-0.52267-1.223-0.61158
	c-0.62189,0.23532-0.61673,0.17251-0.40767,0.97221V28.74298z"/>
<path fill="none" stroke="#000000" stroke-width="0.29538" d="M46.48281,20.34918c-0.24032,0.44048-0.21844,0.7047-0.17844,1.14503
	 M45.26263,22.51579h0.56048c0.14922-0.00406,0.21297-0.06063,0.32048-0.14016c0.07219-0.04078,0.14891-0.10235,0.22032-0.16016
	c0.05938-0.0425,0.13063-0.09235,0.20016-0.12032c0.11359,0,0.20235,0.00844,0.30032,0.04016
	c0.09062,0.03797,0.16516,0.09235,0.24031,0.14016c0.075,0.03,0.14266,0.04,0.26032,0.04c0.12219,0,0.25032-0.00562,0.36032,0.02016
	c0.10594,0.00703,0.22438,0.03031,0.30048,0.06c0.09688,0.0611,0.15532,0.13407,0.22032,0.20032
	c0.00375,0.10625,0.0386,0.17125,0.04,0.28016c0,0.09313,0.01047,0.21938-0.02,0.28048c0,0.11516-0.01844,0.19704-0.04015,0.28032
	c-0.07344,0.06907-0.10016,0.1225-0.20016,0.14016c-0.07875,0.06172-0.19656,0.06-0.32032,0.06h-0.32048
	c-0.06953-0.05781-0.15391-0.11829-0.24032-0.20016c-0.04641-0.10781-0.07719-0.14282-0.18016-0.18032
	c-0.09946-0.01423-0.19985-0.02092-0.30032-0.02c-0.09781,0-0.17938,0.00688-0.24031-0.04
	c-0.05532-0.05266-0.13501-0.08031-0.22032-0.1c-0.09062-0.02578-0.19766-0.02016-0.30032-0.02016h-0.16016"/>
<path fill="none" stroke="#000000" stroke-width="0.27175" d="M45.78249,22.69595l0.02016,0.02
	c-0.04547-0.04531-0.02891-0.02344,0.08,0.02c0.13266,0.03063,0.27516,0.05594,0.42063,0.06016
	c0.13766,0,0.26298,0.01688,0.40033,0.02c0.09578,0,0.19672,0.00781,0.28048-0.02"/>
<path fill="none" stroke="#000000" stroke-width="0.29538" d="M47.06439,22.37517h-0.02c0.06266,0,0.02406-0.00531-0.06016,0.1
	c-0.00813,0.11438-0.03266,0.17751,0.02,0.28048c0.06532,0.02172,0.17579,0.07016,0.22032,0.12
	c0.06438,0.04609,0.06001,0.0875,0.06001,0.20032c-0.03844,0.0625-0.07313,0.11297-0.12001,0.20016
	c-0.02531,0.06297-0.05797,0.1475-0.08016,0.22032c-0.02281,0.09141-0.03891,0.17844-0.04,0.28032v0.20016 M54.31395,20.04308
	c0.0225,0.04266,0.40626,0.80924,0.88315,0.32298c0.07079-0.08281,0.09531-0.14297,0.09531-0.28438
	c0-0.07359-0.01-0.15938-0.02813-0.22016"/>
<path fill="#FFFFFF" stroke="#000000" stroke-width="0.27175" d="M42.75756,35.4594
	c0.23095,0.32188,0.65064,0.15625,0.73486-0.10157c-0.28751,0.01875-0.39719-0.15094-0.49861-0.41095
	C42.93241,35.0958,42.69287,35.27471,42.75756,35.4594z"/>
<path fill="none" stroke="#000000" stroke-width="0.27175" d="M56.33994,20.75934c0,0.01484,0.40673,0.38892,1.0219,0.38892
	c0.14845,0,0.85408-0.17813,1.07878-0.49158"/>
<path fill="none" stroke="#000000" stroke-width="0.29538" d="M57.19105,21.11967c0.00907,0.06016,0.02828,0.27923,0.02828,0.42485
	c-0.00187,0.15422,0.03516,0.28329-0.02297,0.41188c-0.06328,0.16407-0.1336,0.22954-0.28844,0.28595
	c-0.1261,0.05688-0.15297,0.00234-0.29345,0.0075 M53.80581,20.3448c0,0.00937,0.43376,1.04018,0.57658,1.14472"/>
<path fill="#FFFFFF" stroke="#000000" stroke-width="0.27175" d="M43.04023,35.2719c0.2311,0.32188,0.6508,0.15625,0.73502-0.10157
	c-0.28751,0.01875-0.39735-0.15094-0.49876-0.41095c-0.06141,0.14891-0.30079,0.32782-0.2361,0.51252H43.04023z"/>
<path fill="#FFFFFF" stroke="#000000" stroke-width="0.27175" d="M43.47837,35.08439
	c0.23094,0.32188,0.65064,0.15625,0.73486-0.10156c-0.28751,0.01875-0.39735-0.15094-0.49876-0.41095
	C43.65306,34.72079,43.41368,34.8997,43.47837,35.08439z"/>
<path fill="none" stroke="#000000" stroke-width="0.29538" d="M51.33012,19.81745h0.14156
	c0.45001-0.07594,1.96161,0.20297,2.22427,0.48126 M51.61279,27.12279c-0.00937-0.00938,0.0211,0.17344,0.01172,0.16391
	c0.05578,0.05578-0.00843-0.15094-0.04-0.27719c-0.04719-0.1125-0.05672-0.18688-0.05672-0.33985v-0.11329 M48.78709,33.78795
	v0.04031V33.78795v0.04031V33.6642v0.82455c0.02031,0.09953,0.02,0.21016,0.02,0.32032
	c0.0125,0.08532,0.04219,0.18673,0.08016,0.28079c0.00547,0.11875,0.0386,0.19672,0.08,0.30001
	c0.00859,0.10266,0.04344,0.19047,0.08016,0.28063c0.00859,0.10266,0.04188,0.15657,0.06,0.24001
	c0.02906,0.09657,0.06406,0.15891,0.10001,0.22032c0.02625,0.02657,0.05156,0.16063,0.07563,0.16813"/>
<path fill="none" stroke="#000000" stroke-width="0.29538" d="M47.56534,32.6073v0.54079
	c0.0261,0.13266,0.03063,0.27298,0.06001,0.40048c0.01094,0.11438,0.03859,0.21204,0.06016,0.32032
	c0.00953,0.10704,0.13766,0.48673,0.18016,0.5808c0.0475,0.08844,0.1175,0.18047,0.16032,0.23985
	c0.08,0.02484,0.14531,0.05312,0.24016,0.06h0.28032c0.1125-0.02156,0.1511-0.03344,0.20032-0.12001
	c0.02703-0.05375,0.02531-0.09141,0.06-0.12 M47.22549,36.25192c0-0.03281-0.005-0.1311,0.04-0.20032
	c0.07094-0.10094,0.12782-0.16328,0.22032-0.26048c0.10938-0.06985,0.38142-0.44407,1.20144-0.66048
	c0.09547,0,0.12891-0.0186,0.22032-0.02032 M47.32221,34.43547c0.00656,0.00688,0.44814,0.23751,0.67705,0.24735"/>
<path fill="none" stroke="#000000" stroke-width="0.27175" d="M48.58349,35.21033h-0.02188H48.58349
	C48.57615,35.21033,48.56881,35.21033,48.58349,35.21033z"/>
<path fill="#FFBC00" stroke="#000000" stroke-width="0.27175" d="M48.38567,35.18846
	c-0.06563-0.04375-2.1885-0.65658-2.1449-0.65658c0.04375,0-0.77689,0.55814-0.77689,0.55814l2.02442,0.6894l0.80971-0.59095h0.0875
	H48.38567z"/>
<path fill="#F7B200" stroke="#000000" stroke-width="0.27175" d="M46.35828,34.51453
	c0.13407-0.34048,0.09798-0.78908-0.34047-1.06784c-1.00065-0.61377-2.68241-0.5622-3.00226,0.15469
	c-0.34563-0.04641-0.5211,0.23235-0.57267,0.51095c-0.89237,0.2422-0.06688,1.27347,0.15469,1.31503
	c0.30001,0.10266,0.38189,0.02735,0.43344-0.07063c0.16688,0.0411,0.39579-0.1375,0.45329-0.26048
	c0.21204,0.03906,0.37298,0.03516,0.37704-0.17735c0.60736,0.56908,1.44441,0.96315,1.53754,0.23016l0.9594-0.63439V34.51453z"/>
<path fill="none" stroke="#000000" stroke-width="0.29538" d="M42.44412,34.09702c-0.05672,0.39735,0.21,0.82549,0.63298,1.23816
	 M42.99929,33.60201c-0.05672,0.3972,0.05672,1.07284,0.4797,1.48566 M43.62774,33.17575
	c-0.38844,0.3261-0.17672,1.3355,0.24625,1.74833"/>
<path fill="#288800" stroke="#000100" stroke-width="0.27175" stroke-linejoin="round" d="M44.66636,24.92398
	c0.89643,1.18722-0.35704,2.49881-1.45238,3.25461c-1.29128,1.01565-1.98864,2.99523,0.2886,3.1168
	c0.82236-0.01516,1.71535-0.08797,2.21786,0.55595s0.52095,1.83348-0.74471,2.596c-0.12407-0.10954-0.30844-0.43595-0.44579-0.53548
	c-0.13735-0.09953-0.22766,0.02813-0.35157-0.08141c-0.04375-0.4086,0.62377-1.01659-0.0075-1.16347
	c-0.81721,0.1386-3.67744,0.15047-3.64103-2.57803c0.06282-0.60798,0.38782-1.29066,0.9094-1.98505
	c0.52173-0.69439,1.95161-1.55551,2.08911-1.93255c0.22001-0.32563-0.18266-0.95909-0.5036-1.04675
	c-0.2625-0.70033,0.89737-1.44816,1.64145-0.20079L44.66636,24.92398z"/>
<path fill="none" stroke="#000000" stroke-width="0.29538" d="M42.67413,27.02466l0.03094,1.59379 M41.83911,27.65889
	l1.70238,0.24766 M43.09304,26.66855l1.43909,0.29407"/>
<path fill="none" stroke="#000000" stroke-width="0.29538" d="M41.57691,27.93734l1.19847,0.70971 M40.72298,29.43581
	l0.93581,0.99425 M41.58863,28.00312l0.15891,2.35115 M40.94267,28.98752l1.53754,0.03125"/>
<path fill="none" stroke="#000000" stroke-width="0.29538" d="M39.3342,32.96027c0.23797-0.22548,0.48657-0.54923,0.64033-0.86596
	 M39.81468,33.36466c0.32157-0.19907,0.73439-0.35595,1.14378-0.43923 M40.40641,34.73282
	c0.27892-0.23235,0.57892-0.47876,0.78408-0.80236 M40.41673,34.78563c0.49064-0.01203,0.98846-0.0625,1.47191-0.15157
	 M41.29269,35.75097c0.36501-0.1375,0.69846-0.34845,0.96878-0.5597 M38.75418,32.46667
	c0.28282-0.22844,0.5658-0.48845,0.79611-0.75908 M38.54605,31.73431c0.30766-0.08266,0.60814-0.23891,0.87033-0.3847
	 M38.65293,30.971c0.24891-0.09641,0.53986-0.13672,0.80971-0.1525 M38.8845,30.26786
	c0.30095-0.02969,0.50377-0.01125,0.80471,0.08281 M38.93575,29.82113c0.24907-0.13375,0.52908-0.22079,0.80908-0.18422
	 M38.81121,29.49003l0.86721-0.5922 M38.65887,29.24534l0.73861-0.73205 M38.44949,29.1444L38.9906,28.22 M40.6072,23.68036
	l-0.00672,1.31722 M41.9402,23.88973c-0.19423,0.3797-0.46611,0.82846-0.81565,1.16362 M40.95737,23.63645
	c-0.38704-0.03094-0.75252,0.1786-1.04659,0.42611"/>
<path fill="#9D4600" stroke="#000000" stroke-width="0.27175" stroke-linejoin="round" d="M43.01991,24.64132
	c0.64299,0.23657,1.49676,0.56173,1.40785,2.45022c0.5322-0.57658,0.77626-1.38581,0.1-2.40584
	C44.07307,24.19412,43.4079,24.09052,43.01991,24.64132z"/>
<path fill="none" stroke="#000000" stroke-width="0.29538" d="M43.30993,25.27118c0.02578-0.36595,0.53751-0.81846,0.80736-0.9183
	 M43.50618,25.60228c0.13485-0.46767,0.71783-0.83893,0.98753-0.93862 M43.5193,26.26433
	c0.24907,0.0039,1.19144-0.51876,1.40707-0.82987 M43.59556,25.91572c0.30297-0.21063,0.87205-0.68752,1.1419-0.78721
	 M44.4276,26.29808c0.22688-0.12922,0.30438-0.0975,0.5422-0.3422 M43.01991,24.65147
	c0.64658,0.21078,1.43754,0.68752,1.38581,2.43912"/>
<path fill="none" stroke="#000000" stroke-width="0.29538" d="M40.86642,31.4207l0.88018-1.0669 M40.97627,31.64055l0.78596-0.00078
	 M40.53688,30.57412l1.09956,0.62642"/>
<path fill="#9D4600" stroke="#000000" stroke-width="0.27175" d="M42.01786,30.46709
	c-0.21047-0.01953-0.33126-0.05953-0.51439-0.12735c0.08625,1.41722,0.22766,1.49004,0.45158,2.02443
	c0.67017,0.42501,1.82973,0.32563,2.32053,0.21969c0.05281,0.07406,0.34298,0.43423,0.16454,0.53876
	c-0.19234,0.12063-0.27032,0.35454-0.27735,0.73252c0.11359,0.12813,0.23203,0.01688,0.34766,0.09922
	s0.25157,0.3736,0.35876,0.62439c0,0,1.42504-0.9794,1.19378-1.90083c-0.15157-0.86565-0.73674-1.16034-0.73674-1.16034
	c-0.82737-0.4136-1.99036-0.13922-2.41475-0.29782c-0.52782-0.11719-0.85986-0.57345-0.89377-0.75268H42.01786z"/>
<path fill="none" stroke="#000000" stroke-width="0.29538" d="M44.36604,32.96762c0.71377-0.32579,1.46832-0.35235,1.67348-0.32235
	 M41.57394,31.07491c0.15501-0.09063,0.38298-0.28423,0.64564-0.28016 M42.88647,32.63667
	c0.12688-0.75096,0.44861-1.25784,0.61439-1.38472 M43.3157,32.69527c0.12688-0.75096,0.47783-1.28722,0.64346-1.41394
	 M43.79337,32.64527c0.12656-0.75064,0.44845-1.23816,0.61407-1.36488 M44.1551,32.58683
	c0.12672-0.7508,0.5461-1.12128,0.71173-1.24816 M44.39386,32.80074c0.12688-0.75096,0.76455-1.168,0.93018-1.29488
	 M44.41433,32.91637c0.4347-0.62502,1.14909-0.92877,1.35316-0.97284 M42.43834,32.53839
	c0.12656-0.7508,0.45814-1.16018,0.62392-1.28706 M42.00895,32.40229c0.12688-0.75096,0.51689-1.13112,0.68283-1.25784
	 M44.23713,33.94467c0.33688-0.265,0.56595,0.59111,0.58267,0.69486c0.01672,0.10376,0.07969,0.20938,0.24735,0.30626
	 M41.74691,31.88509c0.13641-0.38032,0.43876-0.79939,0.60454-0.92627"/>
<path fill="#FFFFFF" stroke="#000000" stroke-width="0.27175" d="M43.59399,33.20934c-0.4372,0.69455,0.0675,1.30785,0.63361,1.0619
	c-0.065-0.48001-0.18766-0.78487,0.25001-1.24659C44.16729,33.04293,43.88853,32.93309,43.59399,33.20934z"/>
<path fill="none" stroke="#000000" stroke-width="0.29538" d="M41.94458,28.10281l0.20688,1.02034 M42.15114,29.04033
	l-0.37235,1.25472 M44.34995,33.03356c0.77002-0.15001,1.5102,0,1.70238,0.07703"/>
<path fill="none" stroke="#000000" stroke-width="0.27175" d="M44.25901,33.15668c0.78939-0.01156,1.47785,0.31095,1.64754,0.43751"
	/>
<path fill="none" stroke="#000000" stroke-width="0.29538" d="M44.26791,33.30309c0.75939,0.17282,1.09971,0.55783,1.23253,0.72033
	 M44.21526,33.47747c0.68126,0.3772,0.8344,0.68674,0.91674,0.88002"/>
<path fill="#296526" d="M32.94341,37.12881l0.36595-0.08594l0.39673,1.69223l-0.36579,0.08563L32.94341,37.12881z
	 M35.98537,42.84537l0.7683,0.87487l0.28688-0.24266l-0.72111-0.90627l-0.33392,0.27407H35.98537z M59.43377,46.58374
	l-0.95159,0.67048l0.21063,0.3111l0.97783-0.62033C59.67064,46.945,59.43377,46.58374,59.43377,46.58374z M64.45389,42.39707
	l-0.84893,0.79658l0.25204,0.27876l0.88174-0.75064L64.45389,42.39707z M67.14645,36.77787l-0.30891,0.76221l0.16875,0.2186
	l0.33235-0.72533L67.14645,36.77787z"/>
<path fill="none" stroke="#000000" stroke-width="0.29538" d="M41.99879,32.44323c-0.41236-0.67845-0.46454-1.38831-0.48532-2.08239
	c0.21907,0.10438,0.39142,0.16172,0.51658,0.12516 M40.56329,23.64082c-0.33954-0.84893,0.05234-1.30878,0.4758-1.71176"/>
<path d="M41.11596,21.69234c0.07141,0.09047,0.02797,0.25438-0.09703,0.36626c-0.125,0.11172-0.28438,0.12907-0.35595,0.03859
	c-0.07141-0.09063-0.02797-0.25454,0.09719-0.36626C40.88517,21.61905,41.04455,21.60186,41.11596,21.69234z"/>
</svg>
