<?xml version="1.0" encoding="utf-8"?>
<!-- Generator: Adobe Illustrator 18.0.0, SVG Export Plug-In . SVG Version: 6.00 Build 0)  -->
<!DOCTYPE svg PUBLIC "-//W3C//DTD SVG 1.1//EN" "http://www.w3.org/Graphics/SVG/1.1/DTD/svg11.dtd">
<svg version="1.1" id="Layer_1" xmlns="http://www.w3.org/2000/svg" xmlns:xlink="http://www.w3.org/1999/xlink" x="0px" y="0px"
	 width="100px" height="69px" viewBox="0 0 100 69" enable-background="new 0 0 100 69" xml:space="preserve">
<g>
	<path fill="#00006A" d="M0.00058,0H100v69H0.00058L0.00058,0z"/>
	<path fill="#FFFFFF" d="M0,0.00029l45.85424,43.74888h9.40585L10.39571,0.02084L0,0.00029z"/>
	<path fill="#FF0000" d="M51.82403,43.74657L6.92875-0.00043L3.43476,0.05319l45.08331,43.69425h3.30582L51.82403,43.74657z"/>
	<path fill="#FFFFFF" d="M55.26095,0.00029L9.40657,43.74916H0.00072L44.86509,0.02084l10.39586-0.0207V0.00029z"/>
	<path fill="#FF0000" d="M51.81425,0.00043L6.93637,43.74744l-3.49255,0.00172L48.50944,0.00043h3.30467H51.81425z"/>
	<path fill="#FFFFFF" d="M23.20916,0.00058h8.84134V43.7483h-8.84134V0.00058z"/>
	<path fill="#FFFFFF" d="M0.00072,17.49955h55.25793v8.74949H0.00072V17.49955z"/>
	<path fill="#FF0000" d="M25.14403,0.00058h4.97332V43.7483h-4.97332V0.00058z"/>
	<path fill="#FF0000" d="M0.00072,19.68786h55.25793v4.37474H0.00072V19.68786z"/>
	<g>
		<path fill="#FFFFFF" d="M76.75114,25.77826l-2.81419-2.07992l-2.91755,1.9297l1.09853-3.33299l-2.72723-2.19319l3.49241,0.01998
			l1.23151-3.28526l1.06145,3.34506l3.48737,0.16301l-2.83591,2.04743L76.75114,25.77826z"/>
		<path fill="#FF0000" d="M75.62257,24.09437l-1.66463-1.20391l-1.70157,1.15101l0.62531-1.96362l-1.61532-1.27132l2.05175-0.00963
			l0.70337-1.9366l0.64242,1.95787l2.04901,0.07418l-1.65226,1.21972L75.62257,24.09437z"/>
		<path fill="#FFFFFF" d="M65.95121,43.70647l-2.81434-2.07992l-2.91755,1.9297l1.09868-3.33298l-2.72737-2.1932l3.49255,0.01999
			l1.23136-3.28526l1.0616,3.3452l3.48738,0.16287l-2.8359,2.04743L65.95121,43.70647z"/>
		<path fill="#FF0000" d="M64.82249,42.02258l-1.66462-1.20391l-1.70142,1.151l0.62531-1.96362l-1.61546-1.27118l2.05188-0.00978
			l0.70322-1.9366l0.64256,1.95788l2.04901,0.07417l-1.65226,1.21972L64.82249,42.02258z"/>
		<g>
			<path fill="#FFFFFF" d="M88.05349,41.93949l-2.81405-2.07992l-2.91769,1.9297l1.09854-3.33299l-2.72722-2.19305l3.4924,0.01984
				l1.23151-3.28512l1.06144,3.34507l3.48738,0.16287l-2.83575,2.04757L88.05349,41.93949z"/>
			<path fill="#FF0000" d="M86.92491,40.25575l-1.66463-1.20405l-1.70143,1.151l0.62531-1.96363L82.5687,36.9679l2.05189-0.00963
				l0.70323-1.9366l0.64242,1.95773l2.04902,0.07417l-1.65227,1.21986L86.92491,40.25575z"/>
		</g>
		<g>
			<path fill="#FFFFFF" d="M76.50002,67.44319l-2.81419-2.07977l-2.91755,1.92955l1.09854-3.33284l-2.72737-2.19319l3.49255,0.01984
				l1.23137-3.28512l1.06159,3.34506l3.48738,0.16301l-2.8359,2.04743L76.50002,67.44319z"/>
			<path fill="#FF0000" d="M75.37144,65.75945l-1.66477-1.20391l-1.70142,1.15101l0.62531-1.96363l-1.61546-1.27132l2.05189-0.00963
				l0.70337-1.9366l0.64227,1.95787l2.04916,0.07417l-1.65226,1.21972L75.37144,65.75945z"/>
		</g>
	</g>
</g>
</svg>
