<?xml version="1.0" encoding="utf-8"?>
<!-- Generator: Adobe Illustrator 18.0.0, SVG Export Plug-In . SVG Version: 6.00 Build 0)  -->
<!DOCTYPE svg PUBLIC "-//W3C//DTD SVG 1.1//EN" "http://www.w3.org/Graphics/SVG/1.1/DTD/svg11.dtd">
<svg version="1.1" id="Layer_1" xmlns="http://www.w3.org/2000/svg" xmlns:xlink="http://www.w3.org/1999/xlink" x="0px" y="0px"
	 width="100px" height="69px" viewBox="0 0 100 69" enable-background="new 0 0 100 69" xml:space="preserve">
<g>
	<rect fill="#FFFFFF" width="100" height="69"/>
	<path fill="#ED2939" d="M0,0v33.33331h100V0H0z M21.76337,29.20135c-6.92273,0-12.53473-5.61194-12.53473-12.53473
		c0-6.92273,5.612-12.53467,12.53473-12.53467c1.45215,0,2.84064,0.25952,4.13776,0.71368
		c-6.31311,0.25897-11.35565,5.44427-11.35565,11.82098c0,6.37677,5.04254,11.56207,11.35565,11.82104
		C24.604,28.94183,23.21552,29.20135,21.76337,29.20135z M23.3147,16.96906l-1.70276-1.30621l-1.70239,1.30682l0.6554-2.10632
		l-1.70819-1.2984l2.10785,0.00446l0.64661-2.10938l0.64734,2.10913l2.10785-0.00525l-1.70776,1.29907L23.3147,16.96906z
		 M25.15863,22.797l0.65607,2.10608l-1.70282-1.30627l-1.70233,1.30688l0.6554-2.10632l-1.70819-1.29846l2.10785,0.00446
		l0.64661-2.10931l0.64734,2.10913l2.10785-0.00525L25.15863,22.797z M26.5968,12.01111l0.6554-2.10638l-1.70819-1.2984
		l2.10785,0.00446l0.64661-2.10931l0.64734,2.10907l2.10785-0.00519l-1.70782,1.29901l0.65613,2.10614l-1.70282-1.30627
		L26.5968,12.01111z M34.17554,24.90308l-1.70276-1.30627l-1.70239,1.30688l0.6554-2.10632l-1.70819-1.29846l2.10785,0.00446
		l0.64661-2.10931l0.64734,2.10913l2.10785-0.00525L33.51947,22.797L34.17554,24.90308z M36.67554,16.96906l-1.70276-1.30621
		l-1.70239,1.30682l0.6554-2.10632l-1.70819-1.2984l2.10785,0.00446l0.64661-2.10938l0.64734,2.10913l2.10785-0.00525
		l-1.70776,1.29907L36.67554,16.96906z"/>
</g>
</svg>
